<mxfile modified="2023-05-12T09:06:08.825Z" host="app.diagrams.net" agent="Mozilla/5.0 (Windows NT 10.0; Win64; x64) AppleWebKit/537.36 (KHTML, like Gecko) Chrome/113.0.0.0 Safari/537.36" etag="lpmUK2eXx8tFAGc2_-2n" version="21.2.3" type="github">
  <diagram id="WI9T0HZ2pTsCkuznbFz-" name="Page-1">
    <mxGraphModel dx="1434" dy="708" grid="1" gridSize="10" guides="1" tooltips="1" connect="1" arrows="1" fold="1" page="1" pageScale="1" pageWidth="1169" pageHeight="827" math="0" shadow="0">
      <root>
        <mxCell id="0" />
        <mxCell id="1" parent="0" />
        <mxCell id="RLjyjs_sm2IHfBNOWAbh-113" value="" style="rounded=0;whiteSpace=wrap;html=1;labelBackgroundColor=#ffffff;fillColor=#f5f5f5;strokeColor=none;fontColor=#333333;" parent="1" vertex="1">
          <mxGeometry x="300" y="399" width="1240" height="801" as="geometry" />
        </mxCell>
        <mxCell id="enrhANVjS56f6MEKnJ0g-13" value="中间件服务器" style="shape=image;verticalLabelPosition=bottom;labelBackgroundColor=#ffffff;verticalAlign=top;aspect=fixed;imageAspect=0;image=data:image/svg+xml,PHN2ZyB4bWxuczpjYz0iaHR0cDovL2NyZWF0aXZlY29tbW9ucy5vcmcvbnMjIiB4bWxuczpkYz0iaHR0cDovL3B1cmwub3JnL2RjL2VsZW1lbnRzLzEuMS8iIHhtbG5zOmlua3NjYXBlPSJodHRwOi8vd3d3Lmlua3NjYXBlLm9yZy9uYW1lc3BhY2VzL2lua3NjYXBlIiB4bWxuczpyZGY9Imh0dHA6Ly93d3cudzMub3JnLzE5OTkvMDIvMjItcmRmLXN5bnRheC1ucyMiIHhtbG5zOnNvZGlwb2RpPSJodHRwOi8vc29kaXBvZGkuc291cmNlZm9yZ2UubmV0L0RURC9zb2RpcG9kaS0wLmR0ZCIgeG1sbnM6c3ZnPSJodHRwOi8vd3d3LnczLm9yZy8yMDAwL3N2ZyIgeG1sbnM9Imh0dHA6Ly93d3cudzMub3JnLzIwMDAvc3ZnIiB4bWxuczp4bGluaz0iaHR0cDovL3d3dy53My5vcmcvMTk5OS94bGluayIgdmVyc2lvbj0iMS4xIiBpZD0ic3ZnMTQzMzg3IiBpbmtzY2FwZTp2ZXJzaW9uPSIwLjkyLjMgKDI0MDU1NDYsIDIwMTgtMDMtMTEpIiBzb2RpcG9kaTpkb2NuYW1lPSJkYXRhYmFzZV9zZXJ2ZXIuc3ZnIiB4PSIwcHgiIHk9IjBweCIgdmlld0JveD0iMCAwIDYzLjA0IDc5LjQ5IiBzdHlsZT0iZW5hYmxlLWJhY2tncm91bmQ6bmV3IDAgMCA2My4wNCA3OS40OTsiIHhtbDpzcGFjZT0icHJlc2VydmUiPiYjeGE7PHNvZGlwb2RpOm5hbWVkdmlldyBib3JkZXJjb2xvcj0iIzY2NjY2NiIgYm9yZGVyb3BhY2l0eT0iMSIgZml0LW1hcmdpbi1ib3R0b209IjAiIGZpdC1tYXJnaW4tbGVmdD0iMCIgZml0LW1hcmdpbi1yaWdodD0iMCIgZml0LW1hcmdpbi10b3A9IjAiIGdyaWR0b2xlcmFuY2U9IjEwIiBndWlkZXRvbGVyYW5jZT0iMTAiIGlkPSJuYW1lZHZpZXcxNDMzODkiIGlua3NjYXBlOmN1cnJlbnQtbGF5ZXI9InN2ZzE0MzM4NyIgaW5rc2NhcGU6Y3g9IjQyLjAyOTk4NiIgaW5rc2NhcGU6Y3k9IjUyLjk5MTY0OCIgaW5rc2NhcGU6cGFnZW9wYWNpdHk9IjAiIGlua3NjYXBlOnBhZ2VzaGFkb3c9IjIiIGlua3NjYXBlOndpbmRvdy1oZWlnaHQ9IjEwMTciIGlua3NjYXBlOndpbmRvdy1tYXhpbWl6ZWQ9IjEiIGlua3NjYXBlOndpbmRvdy13aWR0aD0iMTkyMCIgaW5rc2NhcGU6d2luZG93LXg9Ii04IiBpbmtzY2FwZTp3aW5kb3cteT0iLTgiIGlua3NjYXBlOnpvb209IjguMDI4NDkxNSIgb2JqZWN0dG9sZXJhbmNlPSIxMCIgcGFnZWNvbG9yPSIjZmZmZmZmIiBzaG93Z3JpZD0iZmFsc2UiPiYjeGE7CTwvc29kaXBvZGk6bmFtZWR2aWV3PiYjeGE7PGcgaWQ9ImcxNDMzODUiIHRyYW5zZm9ybT0idHJhbnNsYXRlKC0wLjc1LC0wLjc1MDE2NjY1KSI+JiN4YTsJPHRpdGxlIGlkPSJ0aXRsZTE0MzI4NCI+UGFnZS0xPC90aXRsZT4mI3hhOwk8ZyBpZD0iZ3JvdXA3ODc0LTEiIHRyYW5zZm9ybT0idHJhbnNsYXRlKDEuNSwtMS41KSI+JiN4YTsJCTx0aXRsZSBpZD0idGl0bGUxNDMyODYiPkRhdGFiYXNlIFNlcnZlcjwvdGl0bGU+JiN4YTsJCTxnIGlkPSJncm91cDc4NzUtMiIgdHJhbnNmb3JtPSJ0cmFuc2xhdGUoMCwtOS43NDI1KSI+JiN4YTsJCQk8dGl0bGUgaWQ9InRpdGxlMTQzMjg4Ij5nMzExNC4yMTA4NDwvdGl0bGU+JiN4YTsJCQk8ZyBpZD0ic2hhcGU3ODc2LTMiPiYjeGE7CQkJCTx0aXRsZSBpZD0idGl0bGUxNDMyOTAiPnJlY3QzMDg2PC90aXRsZT4mI3hhOwkJCQkmI3hhOwkJCQkJPHJlY3QgaWQ9InJlY3QxNDMyOTIiIHk9IjEyLjc0IiBzdHlsZT0iZmlsbDojRkZGRkZGO3N0cm9rZTojNTU2QThBO3N0cm9rZS13aWR0aDoxLjU7c3Ryb2tlLW1pdGVybGltaXQ6MzsiIHdpZHRoPSIzOS43NSIgaGVpZ2h0PSI2OC4yNSIvPiYjeGE7CQkJPC9nPiYjeGE7CQkJPGcgaWQ9Imdyb3VwNzg3Ny01IiB0cmFuc2Zvcm09InRyYW5zbGF0ZSgxLjUsLTAuNzUpIj4mI3hhOwkJCQk8dGl0bGUgaWQ9InRpdGxlMTQzMjk1Ij5nMzEwNjwvdGl0bGU+JiN4YTsJCQkJPGcgaWQ9InNoYXBlNzg3OC02IiB0cmFuc2Zvcm09InRyYW5zbGF0ZSgxOCkiPiYjeGE7CQkJCQk8dGl0bGUgaWQ9InRpdGxlMTQzMjk3Ij5yZWN0MzA4ODwvdGl0bGU+JiN4YTsJCQkJCTxyZWN0IGlkPSJyZWN0MTQzMjk5IiB5PSIxNC4yNCIgc3R5bGU9ImZpbGw6I0U1RTVFNTsiIHdpZHRoPSIxOS41IiBoZWlnaHQ9IjY2Ljc1Ii8+JiN4YTsJCQkJPC9nPiYjeGE7CQkJCTxnIGlkPSJzaGFwZTc4NzktOCIgdHJhbnNmb3JtPSJ0cmFuc2xhdGUoMCwtNDgpIj4mI3hhOwkJCQkJPHRpdGxlIGlkPSJ0aXRsZTE0MzMwMiI+cmVjdDMwOTA8L3RpdGxlPiYjeGE7CQkJCQk8cmVjdCBpZD0icmVjdDE0MzMwNCIgeT0iNzguNzQiIHN0eWxlPSJmaWxsOiMyQkM3RjQ7IiB3aWR0aD0iMTgiIGhlaWdodD0iMi4yNSIvPiYjeGE7CQkJCTwvZz4mI3hhOwkJCQk8ZyBpZD0ic2hhcGU3ODgwLTEwIiB0cmFuc2Zvcm09InRyYW5zbGF0ZSgwLC01OC41KSI+JiN4YTsJCQkJCTx0aXRsZSBpZD0idGl0bGUxNDMzMDciPnBvbHlnb24zMDkyPC90aXRsZT4mI3hhOwkJCQkJPHJlY3QgaWQ9InJlY3QxNDMzMDkiIHk9Ijc4Ljc0IiBzdHlsZT0iZmlsbDpub25lOyIgd2lkdGg9IjI3IiBoZWlnaHQ9IjIuMjUiLz4mI3hhOwkJCQk8L2c+JiN4YTsJCQkJPGcgaWQ9InNoYXBlNzg4MS0xMiIgdHJhbnNmb3JtPSJ0cmFuc2xhdGUoMCwtNTguNSkiPiYjeGE7CQkJCQk8dGl0bGUgaWQ9InRpdGxlMTQzMzEyIj5wb2x5bGluZTMwOTQ8L3RpdGxlPiYjeGE7CQkJCQk8cmVjdCBpZD0icmVjdDE0MzMxNCIgeT0iNzguNzQiIHN0eWxlPSJmaWxsOm5vbmU7IiB3aWR0aD0iMjciIGhlaWdodD0iMi4yNSIvPiYjeGE7CQkJCTwvZz4mI3hhOwkJCQk8ZyBpZD0ic2hhcGU3ODgyLTE0IiB0cmFuc2Zvcm09InRyYW5zbGF0ZSgwLC01My4yNSkiPiYjeGE7CQkJCQk8dGl0bGUgaWQ9InRpdGxlMTQzMzE3Ij5yZWN0MzA5NjwvdGl0bGU+JiN4YTsJCQkJCTxyZWN0IGlkPSJyZWN0MTQzMzE5IiB5PSI3OC43NCIgc3R5bGU9ImZpbGw6IzJCQzdGNDsiIHdpZHRoPSIxOCIgaGVpZ2h0PSIyLjI1Ii8+JiN4YTsJCQkJPC9nPiYjeGE7CQkJCTxnIGlkPSJzaGFwZTc4ODMtMTYiIHRyYW5zZm9ybT0idHJhbnNsYXRlKDAsLTU4LjUpIj4mI3hhOwkJCQkJPHRpdGxlIGlkPSJ0aXRsZTE0MzMyMiI+cmVjdDMwOTg8L3RpdGxlPiYjeGE7CQkJCQk8cmVjdCBpZD0icmVjdDE0MzMyNCIgeT0iNzguNzQiIHN0eWxlPSJmaWxsOiMyQkM3RjQ7IiB3aWR0aD0iMTgiIGhlaWdodD0iMi4yNSIvPiYjeGE7CQkJCTwvZz4mI3hhOwkJCQk8ZyBpZD0ic2hhcGU3ODg0LTE4IiB0cmFuc2Zvcm09InRyYW5zbGF0ZSgxOCwtNDgpIj4mI3hhOwkJCQkJPHRpdGxlIGlkPSJ0aXRsZTE0MzMyNyI+cmVjdDMxMDA8L3RpdGxlPiYjeGE7CQkJCQk8cmVjdCBpZD0icmVjdDE0MzMyOSIgeT0iNzguNzQiIHN0eWxlPSJmaWxsOiM1NTZBOEE7IiB3aWR0aD0iMTkuNSIgaGVpZ2h0PSIyLjI1Ii8+JiN4YTsJCQkJPC9nPiYjeGE7CQkJCTxnIGlkPSJzaGFwZTc4ODUtMjAiIHRyYW5zZm9ybT0idHJhbnNsYXRlKDE4LC01My4yNSkiPiYjeGE7CQkJCQk8dGl0bGUgaWQ9InRpdGxlMTQzMzMyIj5yZWN0MzEwMjwvdGl0bGU+JiN4YTsJCQkJCTxyZWN0IGlkPSJyZWN0MTQzMzM0IiB5PSI3OC43NCIgc3R5bGU9ImZpbGw6IzU1NkE4QTsiIHdpZHRoPSIxOS41IiBoZWlnaHQ9IjIuMjUiLz4mI3hhOwkJCQk8L2c+JiN4YTsJCQkJPGcgaWQ9InNoYXBlNzg4Ni0yMiIgdHJhbnNmb3JtPSJ0cmFuc2xhdGUoMTgsLTU4LjUpIj4mI3hhOwkJCQkJPHRpdGxlIGlkPSJ0aXRsZTE0MzMzNyI+cmVjdDMxMDQ8L3RpdGxlPiYjeGE7CQkJCQk8cmVjdCBpZD0icmVjdDE0MzMzOSIgeT0iNzguNzQiIHN0eWxlPSJmaWxsOiM1NTZBOEE7IiB3aWR0aD0iMTkuNSIgaGVpZ2h0PSIyLjI1Ii8+JiN4YTsJCQkJPC9nPiYjeGE7CQkJPC9nPiYjeGE7CQkJPGcgaWQ9InNoYXBlNzg4Ny0yNCIgdHJhbnNmb3JtPSJ0cmFuc2xhdGUoMC43NSwtNTkuMjUpIj4mI3hhOwkJCQk8dGl0bGUgaWQ9InRpdGxlMTQzMzQzIj5yZWN0MzEwODwvdGl0bGU+JiN4YTsJCQkJPHJlY3QgaWQ9InJlY3QxNDMzNDUiIHk9Ijc4Ljc0IiBzdHlsZT0iZmlsbDojNTU2QThBOyIgd2lkdGg9IjIuMjUiIGhlaWdodD0iMi4yNSIvPiYjeGE7CQkJPC9nPiYjeGE7CQkJPGcgaWQ9InNoYXBlNzg4OC0yNiIgdHJhbnNmb3JtPSJ0cmFuc2xhdGUoMC43NSwtNTQpIj4mI3hhOwkJCQk8dGl0bGUgaWQ9InRpdGxlMTQzMzQ4Ij5yZWN0MzExMDwvdGl0bGU+JiN4YTsJCQkJPHJlY3QgaWQ9InJlY3QxNDMzNTAiIHk9Ijc4Ljc0IiBzdHlsZT0iZmlsbDojNTU2QThBOyIgd2lkdGg9IjIuMjUiIGhlaWdodD0iMi4yNSIvPiYjeGE7CQkJPC9nPiYjeGE7CQkJPGcgaWQ9InNoYXBlNzg4OS0yOCIgdHJhbnNmb3JtPSJ0cmFuc2xhdGUoMC43NSwtNDguNzUpIj4mI3hhOwkJCQk8dGl0bGUgaWQ9InRpdGxlMTQzMzUzIj5yZWN0MzExMjwvdGl0bGU+JiN4YTsJCQkJPHJlY3QgaWQ9InJlY3QxNDMzNTUiIHk9Ijc4Ljc0IiBzdHlsZT0iZmlsbDojNTU2QThBOyIgd2lkdGg9IjIuMjUiIGhlaWdodD0iMi4yNSIvPiYjeGE7CQkJPC9nPiYjeGE7CQk8L2c+JiN4YTsJCTxnIGlkPSJncm91cDc4OTAtMzAiIHRyYW5zZm9ybT0idHJhbnNsYXRlKDI2LjI1KSI+JiN4YTsJCQk8dGl0bGUgaWQ9InRpdGxlMTQzMzU5Ij5nMzEyNC4yMTA5OTwvdGl0bGU+JiN4YTsJCQk8ZyBpZD0ic2hhcGU3ODkxLTMxIj4mI3hhOwkJCQk8dGl0bGUgaWQ9InRpdGxlMTQzMzYxIj5wYXRoMzExNjwvdGl0bGU+JiN4YTsJCQkJPHBhdGggaWQ9InBhdGgxNDMzNjMiIGlua3NjYXBlOmNvbm5lY3Rvci1jdXJ2YXR1cmU9IjAiIHN0eWxlPSJmaWxsOiNGRkZGRkY7IiBkPSJNMzEuNzksNDAuODJsLTEwLjM1LDAuMDlMMCw0MS4wOXYzMy4zNSAgICAgIGMwLDMuNDIsNy41LDYuMzcsMTcuMjUsNi41NWgwLjM3YzEuMzIsMCwyLjYtMC4wNywzLjgyLTAuMTljMy41Ny0wLjIyLDcuMDgtMS4wNywxMC4zNS0yLjUzYzIuMTktMS4wOSwzLjQ2LTIuNDIsMy40Ni0zLjgzICAgICAgVjQwLjc5TDMxLjc5LDQwLjgyeiIvPiYjeGE7CQkJPC9nPiYjeGE7CQkJPGcgaWQ9InNoYXBlNzg5Mi0zMyIgdHJhbnNmb3JtPSJ0cmFuc2xhdGUoMjEuMTUsLTAuMTg3NSkiPiYjeGE7CQkJCTx0aXRsZSBpZD0idGl0bGUxNDMzNjYiPnBhdGgzMTE4PC90aXRsZT4mI3hhOwkJCQk8cGF0aCBpZD0icGF0aDE0MzM2OCIgaW5rc2NhcGU6Y29ubmVjdG9yLWN1cnZhdHVyZT0iMCIgc3R5bGU9ImZpbGw6I0U1RTVFNTsiIGQ9Ik0xMC4zNSw0MS4wMXYzNy40NSAgICAgIEM3LjA4LDc5LjkyLDMuNTcsODAuNzcsMCw4MC45OVY0MS4xTDEwLjM1LDQxLjAxeiIvPiYjeGE7CQkJPC9nPiYjeGE7CQkJPGcgaWQ9InNoYXBlNzg5My0zNSI+JiN4YTsJCQkJPHRpdGxlIGlkPSJ0aXRsZTE0MzM3MSI+cGF0aDMxMjA8L3RpdGxlPiYjeGE7CQkJCTxwYXRoIGlkPSJwYXRoMTQzMzczIiBpbmtzY2FwZTpjb25uZWN0b3ItY3VydmF0dXJlPSIwIiBzdHlsZT0iZmlsbDpub25lOyIgZD0iTTAsNDEuMDl2MzMuMzVjMCwzLjQyLDcuNDYsNi4zNywxNy4yNSw2LjU1aDAuMzcgICAgICBjOS45Ny0wLjExLDE3LjYzLTMuMDksMTcuNjMtNi41NVY0MC43OUwwLDQxLjA5eiIvPiYjeGE7CQkJCSYjeGE7CQkJCQk8cGF0aCBpZD0icGF0aDE0MzM3NSIgaW5rc2NhcGU6Y29ubmVjdG9yLWN1cnZhdHVyZT0iMCIgc3R5bGU9ImZpbGw6bm9uZTtzdHJva2U6IzU1NkE4QTtzdHJva2Utd2lkdGg6MS41O3N0cm9rZS1taXRlcmxpbWl0OjM7IiBkPSIgICAgICBNMCw0MS4wOXYzMy4zNWMwLDMuNDIsNy40Niw2LjM3LDE3LjI1LDYuNTVoMC4zN2M5Ljk3LTAuMTEsMTcuNjMtMy4wOSwxNy42My02LjU1VjQwLjc5Ii8+JiN4YTsJCQk8L2c+JiN4YTsJCQk8ZyBpZD0ic2hhcGU3ODk0LTM4IiB0cmFuc2Zvcm09InRyYW5zbGF0ZSgwLjA0NSwtMzMuNDQyNSkiPiYjeGE7CQkJCTx0aXRsZSBpZD0idGl0bGUxNDMzNzgiPnBhdGgzMTIyPC90aXRsZT4mI3hhOwkJCQkmI3hhOwkJCQkJPHBhdGggaWQ9InBhdGgxNDMzODAiIGlua3NjYXBlOmNvbm5lY3Rvci1jdXJ2YXR1cmU9IjAiIHN0eWxlPSJmaWxsOiNCQUQ4MEE7c3Ryb2tlOiM1NTZBOEE7c3Ryb2tlLXdpZHRoOjEuNTtzdHJva2UtbWl0ZXJsaW1pdDozOyIgZD0iICAgICAgTTM1LjI1LDc0LjYyYzAsMy41Mi03Ljg5LDYuMzctMTcuNjMsNi4zN0M3Ljg5LDgwLjk5LDAsNzguMTQsMCw3NC42MmMwLTMuNTEsOC4xMy02LjM2LDE3Ljg2LTYuMzYgICAgICBDMjcuNTgsNjguMjYsMzUuMjUsNzEuMTEsMzUuMjUsNzQuNjJ6Ii8+JiN4YTsJCQk8L2c+JiN4YTsJCTwvZz4mI3hhOwk8L2c+JiN4YTs8L2c+JiN4YTs8L3N2Zz4=;" vertex="1" parent="1">
          <mxGeometry x="850" y="610" width="70.97" height="89" as="geometry" />
        </mxCell>
        <mxCell id="enrhANVjS56f6MEKnJ0g-20" value="" style="rounded=0;whiteSpace=wrap;html=1;labelBackgroundColor=#ffffff;fillColor=#CCE5FF;strokeColor=none;fontColor=#333333;" vertex="1" parent="1">
          <mxGeometry x="300" y="400" width="200" height="800" as="geometry" />
        </mxCell>
        <mxCell id="enrhANVjS56f6MEKnJ0g-21" value="" style="shape=image;verticalLabelPosition=bottom;labelBackgroundColor=#ffffff;verticalAlign=top;aspect=fixed;imageAspect=0;image=data:image/svg+xml,PHN2ZyB4bWxuczpjYz0iaHR0cDovL2NyZWF0aXZlY29tbW9ucy5vcmcvbnMjIiB4bWxuczpkYz0iaHR0cDovL3B1cmwub3JnL2RjL2VsZW1lbnRzLzEuMS8iIHhtbG5zOmlua3NjYXBlPSJodHRwOi8vd3d3Lmlua3NjYXBlLm9yZy9uYW1lc3BhY2VzL2lua3NjYXBlIiB4bWxuczpyZGY9Imh0dHA6Ly93d3cudzMub3JnLzE5OTkvMDIvMjItcmRmLXN5bnRheC1ucyMiIHhtbG5zOnNvZGlwb2RpPSJodHRwOi8vc29kaXBvZGkuc291cmNlZm9yZ2UubmV0L0RURC9zb2RpcG9kaS0wLmR0ZCIgeG1sbnM6c3ZnPSJodHRwOi8vd3d3LnczLm9yZy8yMDAwL3N2ZyIgeG1sbnM9Imh0dHA6Ly93d3cudzMub3JnLzIwMDAvc3ZnIiB4bWxuczp4bGluaz0iaHR0cDovL3d3dy53My5vcmcvMTk5OS94bGluayIgdmVyc2lvbj0iMS4xIiBpZD0ic3ZnMTQ5NyIgaW5rc2NhcGU6dmVyc2lvbj0iMC45Mi4zICgyNDA1NTQ2LCAyMDE4LTAzLTExKSIgc29kaXBvZGk6ZG9jbmFtZT0iYXBwbGUuc3ZnIiB4PSIwcHgiIHk9IjBweCIgdmlld0JveD0iMCAwIDc0LjY3IDcwLjQiIHN0eWxlPSJlbmFibGUtYmFja2dyb3VuZDpuZXcgMCAwIDc0LjY3IDcwLjQ7IiB4bWw6c3BhY2U9InByZXNlcnZlIj4mI3hhOzxzb2RpcG9kaTpuYW1lZHZpZXcgYm9yZGVyY29sb3I9IiM2NjY2NjYiIGJvcmRlcm9wYWNpdHk9IjEiIGZpdC1tYXJnaW4tYm90dG9tPSIwIiBmaXQtbWFyZ2luLWxlZnQ9IjAiIGZpdC1tYXJnaW4tcmlnaHQ9IjAiIGZpdC1tYXJnaW4tdG9wPSIwIiBncmlkdG9sZXJhbmNlPSIxMCIgZ3VpZGV0b2xlcmFuY2U9IjEwIiBpZD0ibmFtZWR2aWV3MTQ5OSIgaW5rc2NhcGU6Y3VycmVudC1sYXllcj0ic3ZnMTQ5NyIgaW5rc2NhcGU6Y3g9IjQ5Ljc3NTk3NyIgaW5rc2NhcGU6Y3k9IjQ2LjkzNDUyOSIgaW5rc2NhcGU6cGFnZW9wYWNpdHk9IjAiIGlua3NjYXBlOnBhZ2VzaGFkb3c9IjIiIGlua3NjYXBlOndpbmRvdy1oZWlnaHQ9IjEwMTciIGlua3NjYXBlOndpbmRvdy1tYXhpbWl6ZWQ9IjEiIGlua3NjYXBlOndpbmRvdy13aWR0aD0iMTkyMCIgaW5rc2NhcGU6d2luZG93LXg9Ii04IiBpbmtzY2FwZTp3aW5kb3cteT0iLTgiIGlua3NjYXBlOnpvb209IjguMjkwNDk0NCIgb2JqZWN0dG9sZXJhbmNlPSIxMCIgcGFnZWNvbG9yPSIjZmZmZmZmIiBzaG93Z3JpZD0iZmFsc2UiPiYjeGE7CTwvc29kaXBvZGk6bmFtZWR2aWV3PiYjeGE7PGcgaWQ9ImcxNDk1IiB0cmFuc2Zvcm09InRyYW5zbGF0ZSgtNC4wMTU4MTgzLC00LjAxMjcxMTQpIj4mI3hhOwk8dGl0bGUgaWQ9InRpdGxlMTQ3MCI+UGFnZS0xPC90aXRsZT4mI3hhOwk8ZyBpZD0iZ3JvdXAzODEwLTEiIHRyYW5zZm9ybT0idHJhbnNsYXRlKDQuMDE1NzcsLTQuMDE1NzUpIj4mI3hhOwkJPHRpdGxlIGlkPSJ0aXRsZTE0NzIiPkFwcGxlPC90aXRsZT4mI3hhOwkJPGcgaWQ9InNoYXBlMzgxMS0yIiB0cmFuc2Zvcm09InRyYW5zbGF0ZSgyNC4zOTgxLC00LjA2NjM1KSI+JiN4YTsJCQk8dGl0bGUgaWQ9InRpdGxlMTQ3NCI+U2hlZXQuMzgxMTwvdGl0bGU+JiN4YTsJCQk8cmVjdCBpZD0icmVjdDE0NzYiIHg9IjAiIHk9IjY4LjEiIHN0eWxlPSJmaWxsOiMyQzQyNEY7IiB3aWR0aD0iMjUuODciIGhlaWdodD0iMTAuMzQiLz4mI3hhOwkJPC9nPiYjeGE7CQk8ZyBpZD0ic2hhcGUzODEyLTQiIHRyYW5zZm9ybT0idHJhbnNsYXRlKDE1LjI4NTUpIj4mI3hhOwkJCTx0aXRsZSBpZD0idGl0bGUxNDc5Ij5TaGVldC4zODEyPC90aXRsZT4mI3hhOwkJCTxyZWN0IGlkPSJyZWN0MTQ4MSIgeD0iMCIgeT0iNzQuMzciIHN0eWxlPSJmaWxsOiNCQkMyQzY7IiB3aWR0aD0iNDQuMDkiIGhlaWdodD0iNC4wNyIvPiYjeGE7CQk8L2c+JiN4YTsJCTxnIGlkPSJzaGFwZTM4MTMtNiIgdHJhbnNmb3JtPSJ0cmFuc2xhdGUoMCwtMTQuNDAzNykiPiYjeGE7CQkJPHRpdGxlIGlkPSJ0aXRsZTE0ODQiPlNoZWV0LjM4MTM8L3RpdGxlPiYjeGE7CQkJPHBhdGggaWQ9InBhdGgxNDg2IiBpbmtzY2FwZTpjb25uZWN0b3ItY3VydmF0dXJlPSIwIiBzdHlsZT0iZmlsbDojQkJDMkM2OyIgZD0iTTAsNjQuNzJ2MTEuMDdjMCwxLjQ2LDEuMTgsMi42NCwyLjYzLDIuNjQgICAgIGMwLjAxLDAsMC4wMSwwLDAuMDIsMGg2OS4zMmMxLjQ2LDAuMDEsMi42NC0xLjE3LDIuNjUtMi42MmMwLTAuMDEsMC0wLjAxLDAtMC4wMlY2NC43MkgweiIvPiYjeGE7CQk8L2c+JiN4YTsJCTxnIGlkPSJzaGFwZTM4MTQtOCIgdHJhbnNmb3JtPSJ0cmFuc2xhdGUoMC4wNDg5OTIxLC0yOC4xMjE1KSI+JiN4YTsJCQk8dGl0bGUgaWQ9InRpdGxlMTQ4OSI+U2hlZXQuMzgxNDwvdGl0bGU+JiN4YTsJCQk8cGF0aCBpZD0icGF0aDE0OTEiIGlua3NjYXBlOmNvbm5lY3Rvci1jdXJ2YXR1cmU9IjAiIHN0eWxlPSJmaWxsOiM1MjdGOTk7IiBkPSJNNzQuNjIsMzguOGMwLjAxLTEuNDYtMS4xNy0yLjY0LTIuNjItMi42NSAgICAgYy0wLjAxLDAtMC4wMiwwLTAuMDMsMEgyLjY1QzEuMTksMzYuMTQsMC4wMSwzNy4zMiwwLDM4Ljc3YzAsMC4wMSwwLDAuMDIsMCwwLjAzdjM5LjYzaDc0LjYyVjM4Ljh6Ii8+JiN4YTsJCTwvZz4mI3hhOwk8L2c+JiN4YTs8L2c+JiN4YTs8L3N2Zz4=;" vertex="1" parent="1">
          <mxGeometry x="362.5" y="520" width="75" height="70" as="geometry" />
        </mxCell>
        <mxCell id="enrhANVjS56f6MEKnJ0g-22" value="" style="shape=image;verticalLabelPosition=bottom;labelBackgroundColor=#ffffff;verticalAlign=top;aspect=fixed;imageAspect=0;image=data:image/svg+xml,PHN2ZyB4bWxuczpjYz0iaHR0cDovL2NyZWF0aXZlY29tbW9ucy5vcmcvbnMjIiB4bWxuczpkYz0iaHR0cDovL3B1cmwub3JnL2RjL2VsZW1lbnRzLzEuMS8iIHhtbG5zOmlua3NjYXBlPSJodHRwOi8vd3d3Lmlua3NjYXBlLm9yZy9uYW1lc3BhY2VzL2lua3NjYXBlIiB4bWxuczpyZGY9Imh0dHA6Ly93d3cudzMub3JnLzE5OTkvMDIvMjItcmRmLXN5bnRheC1ucyMiIHhtbG5zOnNvZGlwb2RpPSJodHRwOi8vc29kaXBvZGkuc291cmNlZm9yZ2UubmV0L0RURC9zb2RpcG9kaS0wLmR0ZCIgeG1sbnM6c3ZnPSJodHRwOi8vd3d3LnczLm9yZy8yMDAwL3N2ZyIgeG1sbnM9Imh0dHA6Ly93d3cudzMub3JnLzIwMDAvc3ZnIiB4bWxuczp4bGluaz0iaHR0cDovL3d3dy53My5vcmcvMTk5OS94bGluayIgdmVyc2lvbj0iMS4xIiBpZD0ic3ZnMTE5NSIgaW5rc2NhcGU6dmVyc2lvbj0iMC45Mi4zICgyNDA1NTQ2LCAyMDE4LTAzLTExKSIgc29kaXBvZGk6ZG9jbmFtZT0iYW5kcm9pZC5zdmciIHg9IjBweCIgeT0iMHB4IiB2aWV3Qm94PSIwIDAgMjkuMzggNTAuODUiIHN0eWxlPSJlbmFibGUtYmFja2dyb3VuZDpuZXcgMCAwIDI5LjM4IDUwLjg1OyIgeG1sOnNwYWNlPSJwcmVzZXJ2ZSI+JiN4YTs8c29kaXBvZGk6bmFtZWR2aWV3IGJvcmRlcmNvbG9yPSIjNjY2NjY2IiBib3JkZXJvcGFjaXR5PSIxIiBmaXQtbWFyZ2luLWJvdHRvbT0iMCIgZml0LW1hcmdpbi1sZWZ0PSIwIiBmaXQtbWFyZ2luLXJpZ2h0PSIwIiBmaXQtbWFyZ2luLXRvcD0iMCIgZ3JpZHRvbGVyYW5jZT0iMTAiIGd1aWRldG9sZXJhbmNlPSIxMCIgaWQ9Im5hbWVkdmlldzExOTciIGlua3NjYXBlOmN1cnJlbnQtbGF5ZXI9InN2ZzExOTUiIGlua3NjYXBlOmN4PSIxOS41ODkzNCIgaW5rc2NhcGU6Y3k9IjMzLjg5NzQ3NiIgaW5rc2NhcGU6cGFnZW9wYWNpdHk9IjAiIGlua3NjYXBlOnBhZ2VzaGFkb3c9IjIiIGlua3NjYXBlOndpbmRvdy1oZWlnaHQ9IjEwMTciIGlua3NjYXBlOndpbmRvdy1tYXhpbWl6ZWQ9IjEiIGlua3NjYXBlOndpbmRvdy13aWR0aD0iMTkyMCIgaW5rc2NhcGU6d2luZG93LXg9Ii04IiBpbmtzY2FwZTp3aW5kb3cteT0iLTgiIGlua3NjYXBlOnpvb209IjEyLjc4NjY1MSIgb2JqZWN0dG9sZXJhbmNlPSIxMCIgcGFnZWNvbG9yPSIjZmZmZmZmIiBzaG93Z3JpZD0iZmFsc2UiPiYjeGE7CTwvc29kaXBvZGk6bmFtZWR2aWV3PiYjeGE7PGcgaWQ9ImcxMTkzIiB0cmFuc2Zvcm09InRyYW5zbGF0ZSgtMi42ODI2ODU1ZS01KSI+JiN4YTsJPHRpdGxlIGlkPSJ0aXRsZTExNjMiPlBhZ2UtMTwvdGl0bGU+JiN4YTsJPGcgaWQ9Imdyb3VwMzQ5OS0xIj4mI3hhOwkJPHRpdGxlIGlkPSJ0aXRsZTExNjUiPkFuZHJvaWQ8L3RpdGxlPiYjeGE7CQk8ZyBpZD0ic2hhcGUzNTAwLTIiPiYjeGE7CQkJPHRpdGxlIGlkPSJ0aXRsZTExNjciPlNoZWV0LjM1MDA8L3RpdGxlPiYjeGE7CQkJPHBhdGggaWQ9InBhdGgxMTY5IiBpbmtzY2FwZTpjb25uZWN0b3ItY3VydmF0dXJlPSIwIiBzdHlsZT0iZmlsbDojM0Y1NzY1OyIgZD0iTTI3LjQzLDBDMi4xLDAsMi4xLDAsMi4xLDBDMC45MiwwLDAsMC44LDAsMS44NCAgICAgYzAsNDYuOTUsMCw0Ni45NSwwLDQ2Ljk1YzAsMC45MiwwLjkyLDIuMDYsMi4xLDIuMDZjMjUuMzMsMCwyNS4zMywwLDI1LjMzLDBjMS4wNywwLDEuOTUtMS4xNCwxLjk1LTIuMDYgICAgIGMwLTQ2Ljk1LDAtNDYuOTUsMC00Ni45NUMyOS4zOCwwLjgsMjguNSwwLDI3LjQzLDB6Ii8+JiN4YTsJCTwvZz4mI3hhOwkJPGcgaWQ9InNoYXBlMzUwMS00IiB0cmFuc2Zvcm09InRyYW5zbGF0ZSgzLjA2MDg0LC03LjI1MTY3KSI+JiN4YTsJCQk8dGl0bGUgaWQ9InRpdGxlMTE3MiI+U2hlZXQuMzUwMTwvdGl0bGU+JiN4YTsJCQk8cGF0aCBpZD0icGF0aDExNzQiIGlua3NjYXBlOmNvbm5lY3Rvci1jdXJ2YXR1cmU9IjAiIHN0eWxlPSJmaWxsOiNGRkZGRkY7IiBkPSJNMCwxMC41OWgyMy4yNnY0MC4yNkgwVjEwLjU5eiIvPiYjeGE7CQk8L2c+JiN4YTsJCTxnIGlkPSJzaGFwZTM1MDItNiIgdHJhbnNmb3JtPSJ0cmFuc2xhdGUoMTIuODU1NSwtMy4wNjM0OCkiPiYjeGE7CQkJPHRpdGxlIGlkPSJ0aXRsZTExNzciPlNoZWV0LjM1MDI8L3RpdGxlPiYjeGE7CQkJPHBhdGggaWQ9InBhdGgxMTc5IiBpbmtzY2FwZTpjb25uZWN0b3ItY3VydmF0dXJlPSIwIiBzdHlsZT0iZmlsbDojRkZGRkZGOyIgZD0iTTAsNDkuMzJjMC0wLjg0LDAuNzctMS41MywxLjY0LTEuNTMgICAgIGMwLjkzLDAsMS42NSwwLjY5LDEuNjUsMS41M2MwLDAuODgtMC43MiwxLjUzLTEuNjUsMS41M0MwLjc3LDUwLjg1LDAsNTAuMiwwLDQ5LjMyeiIvPiYjeGE7CQk8L2c+JiN4YTsJCTxnIGlkPSJzaGFwZTM1MDMtOCIgdHJhbnNmb3JtPSJ0cmFuc2xhdGUoMTcuNzUyOSwtMy42NzYxOCkiPiYjeGE7CQkJPHRpdGxlIGlkPSJ0aXRsZTExODIiPlNoZWV0LjM1MDM8L3RpdGxlPiYjeGE7CQkJPHBhdGggaWQ9InBhdGgxMTg0IiBpbmtzY2FwZTpjb25uZWN0b3ItY3VydmF0dXJlPSIwIiBzdHlsZT0iZmlsbDojRkZGRkZGOyIgZD0iTTAsNDkuOTNjMC0wLjQ5LDAuMzEtMC45MSwwLjYxLTAuOTEgICAgIGMwLjM1LDAsMC42MSwwLjQyLDAuNjEsMC45MWMwLDAuNTQtMC4yNiwwLjkyLTAuNjEsMC45MkMwLjMxLDUwLjg1LDAsNTAuNDcsMCw0OS45M3oiLz4mI3hhOwkJPC9nPiYjeGE7CQk8ZyBpZD0ic2hhcGUzNTA0LTEwIiB0cmFuc2Zvcm09InRyYW5zbGF0ZSg5LjE4MjUxLC0zLjY3NjE4KSI+JiN4YTsJCQk8dGl0bGUgaWQ9InRpdGxlMTE4NyI+U2hlZXQuMzUwNDwvdGl0bGU+JiN4YTsJCQk8cGF0aCBpZD0icGF0aDExODkiIGlua3NjYXBlOmNvbm5lY3Rvci1jdXJ2YXR1cmU9IjAiIHN0eWxlPSJmaWxsOiNGRkZGRkY7IiBkPSJNMCw0OS45M2MwLTAuNDksMC4zMS0wLjkxLDAuNjEtMC45MSAgICAgYzAuMzUsMCwwLjYxLDAuNDIsMC42MSwwLjkxYzAsMC41NC0wLjI2LDAuOTItMC42MSwwLjkyQzAuMzEsNTAuODUsMCw1MC40NywwLDQ5LjkzeiIvPiYjeGE7CQk8L2c+JiN4YTsJPC9nPiYjeGE7PC9nPiYjeGE7PC9zdmc+;" vertex="1" parent="1">
          <mxGeometry x="385.5" y="1020" width="29" height="51" as="geometry" />
        </mxCell>
        <mxCell id="enrhANVjS56f6MEKnJ0g-23" value="" style="rounded=0;whiteSpace=wrap;html=1;labelBackgroundColor=#ffffff;fillColor=#d5e8d4;strokeColor=#82b366;" vertex="1" parent="1">
          <mxGeometry x="500" y="400" width="200" height="800" as="geometry" />
        </mxCell>
        <mxCell id="enrhANVjS56f6MEKnJ0g-24" value="防火墙" style="image;sketch=0;aspect=fixed;html=1;points=[];align=center;fontSize=12;image=img/lib/mscae/Web_App_Firewall.svg;" vertex="1" parent="1">
          <mxGeometry x="460" y="758.75" width="57.5" height="57.5" as="geometry" />
        </mxCell>
        <mxCell id="enrhANVjS56f6MEKnJ0g-25" value="" style="shape=image;verticalLabelPosition=bottom;verticalAlign=top;imageAspect=0;image=https://www.nginx-cn.net/wp-content/uploads/2021/08/NGINX-Part-of-F5-horiz-black-type-1.svg" vertex="1" parent="1">
          <mxGeometry x="550" y="752.5" width="119.74" height="70" as="geometry" />
        </mxCell>
        <mxCell id="enrhANVjS56f6MEKnJ0g-26" value="" style="rounded=0;whiteSpace=wrap;html=1;labelBackgroundColor=#ffffff;fillColor=#CCE5FF;strokeColor=none;fontColor=#333333;" vertex="1" parent="1">
          <mxGeometry x="700" y="400" width="840" height="800" as="geometry" />
        </mxCell>
        <mxCell id="enrhANVjS56f6MEKnJ0g-27" value="" style="rounded=0;whiteSpace=wrap;html=1;labelBackgroundColor=#ffffff;fillColor=#d5e8d4;strokeColor=#82b366;" vertex="1" parent="1">
          <mxGeometry x="1120" y="400" width="420" height="600" as="geometry" />
        </mxCell>
        <mxCell id="enrhANVjS56f6MEKnJ0g-28" value="" style="rounded=0;whiteSpace=wrap;html=1;labelBackgroundColor=#ffffff;fillColor=#e1d5e7;strokeColor=#9673a6;" vertex="1" parent="1">
          <mxGeometry x="700" y="530" width="420" height="470" as="geometry" />
        </mxCell>
        <mxCell id="enrhANVjS56f6MEKnJ0g-29" value="" style="rounded=0;whiteSpace=wrap;html=1;labelBackgroundColor=#ffffff;fillColor=#1ba1e2;strokeColor=#006EAF;fontColor=#ffffff;" vertex="1" parent="1">
          <mxGeometry x="700" y="1000" width="840" height="200" as="geometry" />
        </mxCell>
        <mxCell id="enrhANVjS56f6MEKnJ0g-30" value="Swarm管理节点1" style="shape=image;verticalLabelPosition=bottom;labelBackgroundColor=#ffffff;verticalAlign=top;aspect=fixed;imageAspect=0;image=data:image/svg+xml,PHN2ZyB4bWxuczpjYz0iaHR0cDovL2NyZWF0aXZlY29tbW9ucy5vcmcvbnMjIiB4bWxuczpkYz0iaHR0cDovL3B1cmwub3JnL2RjL2VsZW1lbnRzLzEuMS8iIHhtbG5zOmlua3NjYXBlPSJodHRwOi8vd3d3Lmlua3NjYXBlLm9yZy9uYW1lc3BhY2VzL2lua3NjYXBlIiB4bWxuczpyZGY9Imh0dHA6Ly93d3cudzMub3JnLzE5OTkvMDIvMjItcmRmLXN5bnRheC1ucyMiIHhtbG5zOnNvZGlwb2RpPSJodHRwOi8vc29kaXBvZGkuc291cmNlZm9yZ2UubmV0L0RURC9zb2RpcG9kaS0wLmR0ZCIgeG1sbnM6c3ZnPSJodHRwOi8vd3d3LnczLm9yZy8yMDAwL3N2ZyIgeG1sbnM9Imh0dHA6Ly93d3cudzMub3JnLzIwMDAvc3ZnIiB4bWxuczp4bGluaz0iaHR0cDovL3d3dy53My5vcmcvMTk5OS94bGluayIgdmVyc2lvbj0iMS4xIiBpZD0ic3ZnMTM2MTM0IiBpbmtzY2FwZTp2ZXJzaW9uPSIwLjkyLjMgKDI0MDU1NDYsIDIwMTgtMDMtMTEpIiBzb2RpcG9kaTpkb2NuYW1lPSJhcHBsaWNhdGlvbl9zZXJ2ZXIuc3ZnIiB4PSIwcHgiIHk9IjBweCIgdmlld0JveD0iMCAwIDYzLjExIDY5Ljc1IiBzdHlsZT0iZW5hYmxlLWJhY2tncm91bmQ6bmV3IDAgMCA2My4xMSA2OS43NTsiIHhtbDpzcGFjZT0icHJlc2VydmUiPiYjeGE7PHNvZGlwb2RpOm5hbWVkdmlldyBib3JkZXJjb2xvcj0iIzY2NjY2NiIgYm9yZGVyb3BhY2l0eT0iMSIgZml0LW1hcmdpbi1ib3R0b209IjAiIGZpdC1tYXJnaW4tbGVmdD0iMCIgZml0LW1hcmdpbi1yaWdodD0iMCIgZml0LW1hcmdpbi10b3A9IjAiIGdyaWR0b2xlcmFuY2U9IjEwIiBndWlkZXRvbGVyYW5jZT0iMTAiIGlkPSJuYW1lZHZpZXcxMzYxMzYiIGlua3NjYXBlOmN1cnJlbnQtbGF5ZXI9InN2ZzEzNjEzNCIgaW5rc2NhcGU6Y3g9IjQyLjA3NDgxNSIgaW5rc2NhcGU6Y3k9IjQ2LjUwMDAxNSIgaW5rc2NhcGU6cGFnZW9wYWNpdHk9IjAiIGlua3NjYXBlOnBhZ2VzaGFkb3c9IjIiIGlua3NjYXBlOndpbmRvdy1oZWlnaHQ9IjEwMTciIGlua3NjYXBlOndpbmRvdy1tYXhpbWl6ZWQ9IjEiIGlua3NjYXBlOndpbmRvdy13aWR0aD0iMTkyMCIgaW5rc2NhcGU6d2luZG93LXg9Ii04IiBpbmtzY2FwZTp3aW5kb3cteT0iLTgiIGlua3NjYXBlOnpvb209IjkuMTI2MzE4NyIgb2JqZWN0dG9sZXJhbmNlPSIxMCIgcGFnZWNvbG9yPSIjZmZmZmZmIiBzaG93Z3JpZD0iZmFsc2UiPiYjeGE7CTwvc29kaXBvZGk6bmFtZWR2aWV3PiYjeGE7PGcgaWQ9ImcxMzYxMzIiIHRyYW5zZm9ybT0idHJhbnNsYXRlKC0wLjc1LC0wLjc1KSI+JiN4YTsJPHRpdGxlIGlkPSJ0aXRsZTEzNjAwNyI+UGFnZS0xPC90aXRsZT4mI3hhOwk8ZyBpZD0iZ3JvdXA3OTc1LTEiIHRyYW5zZm9ybT0idHJhbnNsYXRlKDEuNSwtMS41KSI+JiN4YTsJCTx0aXRsZSBpZD0idGl0bGUxMzYwMDkiPkFwcGxpY2F0aW9uIFNlcnZlcjwvdGl0bGU+JiN4YTsJCTxnIGlkPSJncm91cDc5NzYtMiI+JiN4YTsJCQk8dGl0bGUgaWQ9InRpdGxlMTM2MDExIj5TaGVldC43OTc2PC90aXRsZT4mI3hhOwkJCTxnIGlkPSJncm91cDc5NzctMyI+JiN4YTsJCQkJPHRpdGxlIGlkPSJ0aXRsZTEzNjAxMyI+ZzE2NDA4PC90aXRsZT4mI3hhOwkJCQk8ZyBpZD0ic2hhcGU3OTc4LTQiPiYjeGE7CQkJCQk8dGl0bGUgaWQ9InRpdGxlMTM2MDE1Ij5yZWN0MTYzODA8L3RpdGxlPiYjeGE7CQkJCQkmI3hhOwkJCQkJCTxyZWN0IGlkPSJyZWN0MTM2MDE3IiB4PSIwIiB5PSIzIiBzdHlsZT0iZmlsbDojRkZGRkZGO3N0cm9rZTojNTU2QThBO3N0cm9rZS13aWR0aDoxLjU7c3Ryb2tlLW1pdGVybGltaXQ6MzsiIHdpZHRoPSIzOS43NSIgaGVpZ2h0PSI2OC4yNSIvPiYjeGE7CQkJCTwvZz4mI3hhOwkJCQk8ZyBpZD0iZ3JvdXA3OTc5LTYiIHRyYW5zZm9ybT0idHJhbnNsYXRlKDEuNSwtMC43NSkiPiYjeGE7CQkJCQk8dGl0bGUgaWQ9InRpdGxlMTM2MDIwIj5nMTY0MDA8L3RpdGxlPiYjeGE7CQkJCQk8ZyBpZD0ic2hhcGU3OTgwLTciIHRyYW5zZm9ybT0idHJhbnNsYXRlKDE4KSI+JiN4YTsJCQkJCQk8dGl0bGUgaWQ9InRpdGxlMTM2MDIyIj5yZWN0MTYzODI8L3RpdGxlPiYjeGE7CQkJCQkJPHJlY3QgaWQ9InJlY3QxMzYwMjQiIHg9IjAiIHk9IjQuNSIgc3R5bGU9ImZpbGw6I0U1RTVFNTsiIHdpZHRoPSIxOS41IiBoZWlnaHQ9IjY2Ljc1Ii8+JiN4YTsJCQkJCTwvZz4mI3hhOwkJCQkJPGcgaWQ9InNoYXBlNzk4MS05IiB0cmFuc2Zvcm09InRyYW5zbGF0ZSgwLC00OCkiPiYjeGE7CQkJCQkJPHRpdGxlIGlkPSJ0aXRsZTEzNjAyNyI+cmVjdDE2Mzg0PC90aXRsZT4mI3hhOwkJCQkJCTxyZWN0IGlkPSJyZWN0MTM2MDI5IiB4PSIwIiB5PSI2OSIgc3R5bGU9ImZpbGw6IzJCQzdGNDsiIHdpZHRoPSIxOCIgaGVpZ2h0PSIyLjI1Ii8+JiN4YTsJCQkJCTwvZz4mI3hhOwkJCQkJPGcgaWQ9InNoYXBlNzk4Mi0xMSIgdHJhbnNmb3JtPSJ0cmFuc2xhdGUoMCwtNTguNSkiPiYjeGE7CQkJCQkJPHRpdGxlIGlkPSJ0aXRsZTEzNjAzMiI+cG9seWdvbjE2Mzg2PC90aXRsZT4mI3hhOwkJCQkJCTxyZWN0IGlkPSJyZWN0MTM2MDM0IiB4PSIwIiB5PSI2OSIgc3R5bGU9ImZpbGw6bm9uZTsiIHdpZHRoPSIyNyIgaGVpZ2h0PSIyLjI1Ii8+JiN4YTsJCQkJCTwvZz4mI3hhOwkJCQkJPGcgaWQ9InNoYXBlNzk4My0xMyIgdHJhbnNmb3JtPSJ0cmFuc2xhdGUoMCwtNTguNSkiPiYjeGE7CQkJCQkJPHRpdGxlIGlkPSJ0aXRsZTEzNjAzNyI+cG9seWxpbmUxNjM4ODwvdGl0bGU+JiN4YTsJCQkJCQk8cmVjdCBpZD0icmVjdDEzNjAzOSIgeD0iMCIgeT0iNjkiIHN0eWxlPSJmaWxsOm5vbmU7IiB3aWR0aD0iMjciIGhlaWdodD0iMi4yNSIvPiYjeGE7CQkJCQk8L2c+JiN4YTsJCQkJCTxnIGlkPSJzaGFwZTc5ODQtMTUiIHRyYW5zZm9ybT0idHJhbnNsYXRlKDAsLTUzLjI1KSI+JiN4YTsJCQkJCQk8dGl0bGUgaWQ9InRpdGxlMTM2MDQyIj5yZWN0MTYzOTA8L3RpdGxlPiYjeGE7CQkJCQkJPHJlY3QgaWQ9InJlY3QxMzYwNDQiIHg9IjAiIHk9IjY5IiBzdHlsZT0iZmlsbDojMkJDN0Y0OyIgd2lkdGg9IjE4IiBoZWlnaHQ9IjIuMjUiLz4mI3hhOwkJCQkJPC9nPiYjeGE7CQkJCQk8ZyBpZD0ic2hhcGU3OTg1LTE3IiB0cmFuc2Zvcm09InRyYW5zbGF0ZSgwLC01OC41KSI+JiN4YTsJCQkJCQk8dGl0bGUgaWQ9InRpdGxlMTM2MDQ3Ij5yZWN0MTYzOTI8L3RpdGxlPiYjeGE7CQkJCQkJPHJlY3QgaWQ9InJlY3QxMzYwNDkiIHg9IjAiIHk9IjY5IiBzdHlsZT0iZmlsbDojMkJDN0Y0OyIgd2lkdGg9IjE4IiBoZWlnaHQ9IjIuMjUiLz4mI3hhOwkJCQkJPC9nPiYjeGE7CQkJCQk8ZyBpZD0ic2hhcGU3OTg2LTE5IiB0cmFuc2Zvcm09InRyYW5zbGF0ZSgxOCwtNDgpIj4mI3hhOwkJCQkJCTx0aXRsZSBpZD0idGl0bGUxMzYwNTIiPnJlY3QxNjM5NDwvdGl0bGU+JiN4YTsJCQkJCQk8cmVjdCBpZD0icmVjdDEzNjA1NCIgeD0iMCIgeT0iNjkiIHN0eWxlPSJmaWxsOiM1NTZBOEE7IiB3aWR0aD0iMTkuNSIgaGVpZ2h0PSIyLjI1Ii8+JiN4YTsJCQkJCTwvZz4mI3hhOwkJCQkJPGcgaWQ9InNoYXBlNzk4Ny0yMSIgdHJhbnNmb3JtPSJ0cmFuc2xhdGUoMTgsLTUzLjI1KSI+JiN4YTsJCQkJCQk8dGl0bGUgaWQ9InRpdGxlMTM2MDU3Ij5yZWN0MTYzOTY8L3RpdGxlPiYjeGE7CQkJCQkJPHJlY3QgaWQ9InJlY3QxMzYwNTkiIHg9IjAiIHk9IjY5IiBzdHlsZT0iZmlsbDojNTU2QThBOyIgd2lkdGg9IjE5LjUiIGhlaWdodD0iMi4yNSIvPiYjeGE7CQkJCQk8L2c+JiN4YTsJCQkJCTxnIGlkPSJzaGFwZTc5ODgtMjMiIHRyYW5zZm9ybT0idHJhbnNsYXRlKDE4LC01OC41KSI+JiN4YTsJCQkJCQk8dGl0bGUgaWQ9InRpdGxlMTM2MDYyIj5yZWN0MTYzOTg8L3RpdGxlPiYjeGE7CQkJCQkJPHJlY3QgaWQ9InJlY3QxMzYwNjQiIHg9IjAiIHk9IjY5IiBzdHlsZT0iZmlsbDojNTU2QThBOyIgd2lkdGg9IjE5LjUiIGhlaWdodD0iMi4yNSIvPiYjeGE7CQkJCQk8L2c+JiN4YTsJCQkJPC9nPiYjeGE7CQkJCTxnIGlkPSJzaGFwZTc5ODktMjUiIHRyYW5zZm9ybT0idHJhbnNsYXRlKDAuNzUsLTU5LjI1KSI+JiN4YTsJCQkJCTx0aXRsZSBpZD0idGl0bGUxMzYwNjgiPnJlY3QxNjQwMjwvdGl0bGU+JiN4YTsJCQkJCTxyZWN0IGlkPSJyZWN0MTM2MDcwIiB4PSIwIiB5PSI2OSIgc3R5bGU9ImZpbGw6IzU1NkE4QTsiIHdpZHRoPSIyLjI1IiBoZWlnaHQ9IjIuMjUiLz4mI3hhOwkJCQk8L2c+JiN4YTsJCQkJPGcgaWQ9InNoYXBlNzk5MC0yNyIgdHJhbnNmb3JtPSJ0cmFuc2xhdGUoMC43NSwtNTQpIj4mI3hhOwkJCQkJPHRpdGxlIGlkPSJ0aXRsZTEzNjA3MyI+cmVjdDE2NDA0PC90aXRsZT4mI3hhOwkJCQkJPHJlY3QgaWQ9InJlY3QxMzYwNzUiIHg9IjAiIHk9IjY5IiBzdHlsZT0iZmlsbDojNTU2QThBOyIgd2lkdGg9IjIuMjUiIGhlaWdodD0iMi4yNSIvPiYjeGE7CQkJCTwvZz4mI3hhOwkJCQk8ZyBpZD0ic2hhcGU3OTkxLTI5IiB0cmFuc2Zvcm09InRyYW5zbGF0ZSgwLjc1LC00OC43NSkiPiYjeGE7CQkJCQk8dGl0bGUgaWQ9InRpdGxlMTM2MDc4Ij5yZWN0MTY0MDY8L3RpdGxlPiYjeGE7CQkJCQk8cmVjdCBpZD0icmVjdDEzNjA4MCIgeD0iMCIgeT0iNjkiIHN0eWxlPSJmaWxsOiM1NTZBOEE7IiB3aWR0aD0iMi4yNSIgaGVpZ2h0PSIyLjI1Ii8+JiN4YTsJCQkJPC9nPiYjeGE7CQkJPC9nPiYjeGE7CQk8L2c+JiN4YTsJCTxnIGlkPSJncm91cDc5OTItMzEiIHRyYW5zZm9ybT0idHJhbnNsYXRlKDE3LjM2MjIsLTMuNjkwMTUpIj4mI3hhOwkJCTx0aXRsZSBpZD0idGl0bGUxMzYwODUiPlNoZWV0Ljc5OTI8L3RpdGxlPiYjeGE7CQkJPGcgaWQ9InNoYXBlNzk5My0zMiI+JiN4YTsJCQkJPHRpdGxlIGlkPSJ0aXRsZTEzNjA4NyI+U2hlZXQuNzk5MzwvdGl0bGU+JiN4YTsJCQkJPHBhdGggaWQ9InBhdGgxMzYwODkiIGlua3NjYXBlOmNvbm5lY3Rvci1jdXJ2YXR1cmU9IjAiIHN0eWxlPSJmaWxsOiM1NTZBOEE7IiBkPSJNNDUsNjcuOTdjMCwzLjI4LTAuNCwzLjA4LTMuNjgsMy4wOEgzLjU4ICAgICAgQzAuMyw3MS4wNSwwLDcwLjc1LDAsNjcuNDhWNDIuMTRjMC0zLjI3LDAuNy0zLjM3LDMuODctMy4zN2gzNi4yNmMzLjI4LDAsNC43Ny0wLjYsNC43NywyLjU4TDQ1LDY3Ljk3eiIvPiYjeGE7CQkJPC9nPiYjeGE7CQkJPGcgaWQ9InNoYXBlNzk5NC0zNCIgdHJhbnNmb3JtPSJ0cmFuc2xhdGUoMi42ODIxMiwtMS45ODY3NSkiPiYjeGE7CQkJCTx0aXRsZSBpZD0idGl0bGUxMzYwOTIiPlNoZWV0Ljc5OTQ8L3RpdGxlPiYjeGE7CQkJCTxwYXRoIGlkPSJwYXRoMTM2MDk0IiBpbmtzY2FwZTpjb25uZWN0b3ItY3VydmF0dXJlPSIwIiBzdHlsZT0iZmlsbDojRTVFNUU1OyIgZD0iTTM5LjY0LDY4LjM3YzAsMi44OC0wLjQsMi42OC0zLjI4LDIuNjhIMy4wOCAgICAgIEMwLjIsNzEuMDUsMCw3MC43NSwwLDY3Ljk3VjQ1LjYyYzAtMi44OCwwLjYtMi45OCwzLjQ4LTIuOThoMzEuOThjMi44OCwwLDQuMTgtMC42LDQuMTgsMi4yOVY2OC4zN3oiLz4mI3hhOwkJCTwvZz4mI3hhOwkJCTxnIGlkPSJzaGFwZTc5OTUtMzYiIHRyYW5zZm9ybT0idHJhbnNsYXRlKDUuNTYyOTEsLTQuNTY5NTQpIj4mI3hhOwkJCQk8dGl0bGUgaWQ9InRpdGxlMTM2MDk3Ij5TaGVldC43OTk1PC90aXRsZT4mI3hhOwkJCQk8cGF0aCBpZD0icGF0aDEzNjA5OSIgaW5rc2NhcGU6Y29ubmVjdG9yLWN1cnZhdHVyZT0iMCIgc3R5bGU9ImZpbGw6IzU1RDJGNjsiIGQ9Ik00Ljk3LDY4Ljc3YzAsMS4zOS0xLjEsMi40OC0yLjQ5LDIuNDggICAgICBTMCw3MC4xNiwwLDY4Ljc3VjUwLjQ5QzAsNDkuMSwxLjA5LDQ4LDIuNDgsNDhzMi40OSwxLjEsMi40OSwyLjQ5TDQuOTcsNjguNzd6Ii8+JiN4YTsJCQk8L2c+JiN4YTsJCQk8ZyBpZD0ic2hhcGU3OTk2LTM4IiB0cmFuc2Zvcm09InRyYW5zbGF0ZSgxMy43MDg2LC01LjY2MjI1KSI+JiN4YTsJCQkJPHRpdGxlIGlkPSJ0aXRsZTEzNjEwMiI+U2hlZXQuNzk5NjwvdGl0bGU+JiN4YTsJCQkJPHJlY3QgaWQ9InJlY3QxMzYxMDQiIHg9IjAiIHk9IjUwLjA5IiBzdHlsZT0iZmlsbDojOTI3M0I2OyIgd2lkdGg9IjE3LjM4IiBoZWlnaHQ9IjIxLjE2Ii8+JiN4YTsJCQk8L2c+JiN4YTsJCQk8ZyBpZD0ic2hhcGU3OTk3LTQwIiB0cmFuc2Zvcm09InRyYW5zbGF0ZSgzMi41ODI4LC0yMy4yNDUpIj4mI3hhOwkJCQk8dGl0bGUgaWQ9InRpdGxlMTM2MTA3Ij5TaGVldC43OTk3PC90aXRsZT4mI3hhOwkJCQk8cGF0aCBpZD0icGF0aDEzNjEwOSIgaW5rc2NhcGU6Y29ubmVjdG9yLWN1cnZhdHVyZT0iMCIgc3R5bGU9ImZpbGw6I0FCOUFDMDsiIGQ9Ik0wLDY3LjY3djMuNThoNy44NXYtMy41OEgweiBNNy4zNSw3MC44NUgwLjYgICAgICB2LTIuNzhoNi43NVY3MC44NXoiLz4mI3hhOwkJCTwvZz4mI3hhOwkJCTxnIGlkPSJzaGFwZTc5OTgtNDIiIHRyYW5zZm9ybT0idHJhbnNsYXRlKDMyLjU4MjgsLTE2Ljk4NjgpIj4mI3hhOwkJCQk8dGl0bGUgaWQ9InRpdGxlMTM2MTEyIj5TaGVldC43OTk4PC90aXRsZT4mI3hhOwkJCQk8cmVjdCBpZD0icmVjdDEzNjExNCIgeD0iMCIgeT0iNjcuNjciIHN0eWxlPSJmaWxsOiNCQUQ4MEE7IiB3aWR0aD0iNy44NSIgaGVpZ2h0PSIzLjU4Ii8+JiN4YTsJCQk8L2c+JiN4YTsJCQk8ZyBpZD0ic2hhcGU3OTk5LTQ0IiB0cmFuc2Zvcm09InRyYW5zbGF0ZSgzMi41ODI4LC0xMC41Mjk4KSI+JiN4YTsJCQkJPHRpdGxlIGlkPSJ0aXRsZTEzNjExNyI+U2hlZXQuNzk5OTwvdGl0bGU+JiN4YTsJCQkJPHJlY3QgaWQ9InJlY3QxMzYxMTkiIHg9IjAiIHk9IjY3LjY3IiBzdHlsZT0iZmlsbDojQkFEODBBOyIgd2lkdGg9IjcuODUiIGhlaWdodD0iMy41OCIvPiYjeGE7CQkJPC9nPiYjeGE7CQkJPGcgaWQ9InNoYXBlODAwMC00NiIgdHJhbnNmb3JtPSJ0cmFuc2xhdGUoMzIuNTgyOCwtNS41NjI5MSkiPiYjeGE7CQkJCTx0aXRsZSBpZD0idGl0bGUxMzYxMjIiPlNoZWV0LjgwMDA8L3RpdGxlPiYjeGE7CQkJCTxyZWN0IGlkPSJyZWN0MTM2MTI0IiB4PSIwIiB5PSI2Ny42NyIgc3R5bGU9ImZpbGw6I0JBRDgwQTsiIHdpZHRoPSI3Ljg1IiBoZWlnaHQ9IjMuNTgiLz4mI3hhOwkJCTwvZz4mI3hhOwkJPC9nPiYjeGE7CQk8ZyBpZD0iZ3JvdXA4MDAxLTQ4IiB0cmFuc2Zvcm09InRyYW5zbGF0ZSgyOS43MDcyLC04LjQyMzU3KSI+JiN4YTsJCQk8dGl0bGUgaWQ9InRpdGxlMTM2MTI4Ij5XZWJzaXRlczwvdGl0bGU+JiN4YTsJCTwvZz4mI3hhOwk8L2c+JiN4YTs8L2c+JiN4YTs8L3N2Zz4=;" vertex="1" parent="1">
          <mxGeometry x="830" y="1030" width="63" height="70" as="geometry" />
        </mxCell>
        <mxCell id="enrhANVjS56f6MEKnJ0g-31" value="Swarm管理节点2" style="shape=image;verticalLabelPosition=bottom;labelBackgroundColor=#ffffff;verticalAlign=top;aspect=fixed;imageAspect=0;image=data:image/svg+xml,PHN2ZyB4bWxuczpjYz0iaHR0cDovL2NyZWF0aXZlY29tbW9ucy5vcmcvbnMjIiB4bWxuczpkYz0iaHR0cDovL3B1cmwub3JnL2RjL2VsZW1lbnRzLzEuMS8iIHhtbG5zOmlua3NjYXBlPSJodHRwOi8vd3d3Lmlua3NjYXBlLm9yZy9uYW1lc3BhY2VzL2lua3NjYXBlIiB4bWxuczpyZGY9Imh0dHA6Ly93d3cudzMub3JnLzE5OTkvMDIvMjItcmRmLXN5bnRheC1ucyMiIHhtbG5zOnNvZGlwb2RpPSJodHRwOi8vc29kaXBvZGkuc291cmNlZm9yZ2UubmV0L0RURC9zb2RpcG9kaS0wLmR0ZCIgeG1sbnM6c3ZnPSJodHRwOi8vd3d3LnczLm9yZy8yMDAwL3N2ZyIgeG1sbnM9Imh0dHA6Ly93d3cudzMub3JnLzIwMDAvc3ZnIiB4bWxuczp4bGluaz0iaHR0cDovL3d3dy53My5vcmcvMTk5OS94bGluayIgdmVyc2lvbj0iMS4xIiBpZD0ic3ZnMTM2MTM0IiBpbmtzY2FwZTp2ZXJzaW9uPSIwLjkyLjMgKDI0MDU1NDYsIDIwMTgtMDMtMTEpIiBzb2RpcG9kaTpkb2NuYW1lPSJhcHBsaWNhdGlvbl9zZXJ2ZXIuc3ZnIiB4PSIwcHgiIHk9IjBweCIgdmlld0JveD0iMCAwIDYzLjExIDY5Ljc1IiBzdHlsZT0iZW5hYmxlLWJhY2tncm91bmQ6bmV3IDAgMCA2My4xMSA2OS43NTsiIHhtbDpzcGFjZT0icHJlc2VydmUiPiYjeGE7PHNvZGlwb2RpOm5hbWVkdmlldyBib3JkZXJjb2xvcj0iIzY2NjY2NiIgYm9yZGVyb3BhY2l0eT0iMSIgZml0LW1hcmdpbi1ib3R0b209IjAiIGZpdC1tYXJnaW4tbGVmdD0iMCIgZml0LW1hcmdpbi1yaWdodD0iMCIgZml0LW1hcmdpbi10b3A9IjAiIGdyaWR0b2xlcmFuY2U9IjEwIiBndWlkZXRvbGVyYW5jZT0iMTAiIGlkPSJuYW1lZHZpZXcxMzYxMzYiIGlua3NjYXBlOmN1cnJlbnQtbGF5ZXI9InN2ZzEzNjEzNCIgaW5rc2NhcGU6Y3g9IjQyLjA3NDgxNSIgaW5rc2NhcGU6Y3k9IjQ2LjUwMDAxNSIgaW5rc2NhcGU6cGFnZW9wYWNpdHk9IjAiIGlua3NjYXBlOnBhZ2VzaGFkb3c9IjIiIGlua3NjYXBlOndpbmRvdy1oZWlnaHQ9IjEwMTciIGlua3NjYXBlOndpbmRvdy1tYXhpbWl6ZWQ9IjEiIGlua3NjYXBlOndpbmRvdy13aWR0aD0iMTkyMCIgaW5rc2NhcGU6d2luZG93LXg9Ii04IiBpbmtzY2FwZTp3aW5kb3cteT0iLTgiIGlua3NjYXBlOnpvb209IjkuMTI2MzE4NyIgb2JqZWN0dG9sZXJhbmNlPSIxMCIgcGFnZWNvbG9yPSIjZmZmZmZmIiBzaG93Z3JpZD0iZmFsc2UiPiYjeGE7CTwvc29kaXBvZGk6bmFtZWR2aWV3PiYjeGE7PGcgaWQ9ImcxMzYxMzIiIHRyYW5zZm9ybT0idHJhbnNsYXRlKC0wLjc1LC0wLjc1KSI+JiN4YTsJPHRpdGxlIGlkPSJ0aXRsZTEzNjAwNyI+UGFnZS0xPC90aXRsZT4mI3hhOwk8ZyBpZD0iZ3JvdXA3OTc1LTEiIHRyYW5zZm9ybT0idHJhbnNsYXRlKDEuNSwtMS41KSI+JiN4YTsJCTx0aXRsZSBpZD0idGl0bGUxMzYwMDkiPkFwcGxpY2F0aW9uIFNlcnZlcjwvdGl0bGU+JiN4YTsJCTxnIGlkPSJncm91cDc5NzYtMiI+JiN4YTsJCQk8dGl0bGUgaWQ9InRpdGxlMTM2MDExIj5TaGVldC43OTc2PC90aXRsZT4mI3hhOwkJCTxnIGlkPSJncm91cDc5NzctMyI+JiN4YTsJCQkJPHRpdGxlIGlkPSJ0aXRsZTEzNjAxMyI+ZzE2NDA4PC90aXRsZT4mI3hhOwkJCQk8ZyBpZD0ic2hhcGU3OTc4LTQiPiYjeGE7CQkJCQk8dGl0bGUgaWQ9InRpdGxlMTM2MDE1Ij5yZWN0MTYzODA8L3RpdGxlPiYjeGE7CQkJCQkmI3hhOwkJCQkJCTxyZWN0IGlkPSJyZWN0MTM2MDE3IiB4PSIwIiB5PSIzIiBzdHlsZT0iZmlsbDojRkZGRkZGO3N0cm9rZTojNTU2QThBO3N0cm9rZS13aWR0aDoxLjU7c3Ryb2tlLW1pdGVybGltaXQ6MzsiIHdpZHRoPSIzOS43NSIgaGVpZ2h0PSI2OC4yNSIvPiYjeGE7CQkJCTwvZz4mI3hhOwkJCQk8ZyBpZD0iZ3JvdXA3OTc5LTYiIHRyYW5zZm9ybT0idHJhbnNsYXRlKDEuNSwtMC43NSkiPiYjeGE7CQkJCQk8dGl0bGUgaWQ9InRpdGxlMTM2MDIwIj5nMTY0MDA8L3RpdGxlPiYjeGE7CQkJCQk8ZyBpZD0ic2hhcGU3OTgwLTciIHRyYW5zZm9ybT0idHJhbnNsYXRlKDE4KSI+JiN4YTsJCQkJCQk8dGl0bGUgaWQ9InRpdGxlMTM2MDIyIj5yZWN0MTYzODI8L3RpdGxlPiYjeGE7CQkJCQkJPHJlY3QgaWQ9InJlY3QxMzYwMjQiIHg9IjAiIHk9IjQuNSIgc3R5bGU9ImZpbGw6I0U1RTVFNTsiIHdpZHRoPSIxOS41IiBoZWlnaHQ9IjY2Ljc1Ii8+JiN4YTsJCQkJCTwvZz4mI3hhOwkJCQkJPGcgaWQ9InNoYXBlNzk4MS05IiB0cmFuc2Zvcm09InRyYW5zbGF0ZSgwLC00OCkiPiYjeGE7CQkJCQkJPHRpdGxlIGlkPSJ0aXRsZTEzNjAyNyI+cmVjdDE2Mzg0PC90aXRsZT4mI3hhOwkJCQkJCTxyZWN0IGlkPSJyZWN0MTM2MDI5IiB4PSIwIiB5PSI2OSIgc3R5bGU9ImZpbGw6IzJCQzdGNDsiIHdpZHRoPSIxOCIgaGVpZ2h0PSIyLjI1Ii8+JiN4YTsJCQkJCTwvZz4mI3hhOwkJCQkJPGcgaWQ9InNoYXBlNzk4Mi0xMSIgdHJhbnNmb3JtPSJ0cmFuc2xhdGUoMCwtNTguNSkiPiYjeGE7CQkJCQkJPHRpdGxlIGlkPSJ0aXRsZTEzNjAzMiI+cG9seWdvbjE2Mzg2PC90aXRsZT4mI3hhOwkJCQkJCTxyZWN0IGlkPSJyZWN0MTM2MDM0IiB4PSIwIiB5PSI2OSIgc3R5bGU9ImZpbGw6bm9uZTsiIHdpZHRoPSIyNyIgaGVpZ2h0PSIyLjI1Ii8+JiN4YTsJCQkJCTwvZz4mI3hhOwkJCQkJPGcgaWQ9InNoYXBlNzk4My0xMyIgdHJhbnNmb3JtPSJ0cmFuc2xhdGUoMCwtNTguNSkiPiYjeGE7CQkJCQkJPHRpdGxlIGlkPSJ0aXRsZTEzNjAzNyI+cG9seWxpbmUxNjM4ODwvdGl0bGU+JiN4YTsJCQkJCQk8cmVjdCBpZD0icmVjdDEzNjAzOSIgeD0iMCIgeT0iNjkiIHN0eWxlPSJmaWxsOm5vbmU7IiB3aWR0aD0iMjciIGhlaWdodD0iMi4yNSIvPiYjeGE7CQkJCQk8L2c+JiN4YTsJCQkJCTxnIGlkPSJzaGFwZTc5ODQtMTUiIHRyYW5zZm9ybT0idHJhbnNsYXRlKDAsLTUzLjI1KSI+JiN4YTsJCQkJCQk8dGl0bGUgaWQ9InRpdGxlMTM2MDQyIj5yZWN0MTYzOTA8L3RpdGxlPiYjeGE7CQkJCQkJPHJlY3QgaWQ9InJlY3QxMzYwNDQiIHg9IjAiIHk9IjY5IiBzdHlsZT0iZmlsbDojMkJDN0Y0OyIgd2lkdGg9IjE4IiBoZWlnaHQ9IjIuMjUiLz4mI3hhOwkJCQkJPC9nPiYjeGE7CQkJCQk8ZyBpZD0ic2hhcGU3OTg1LTE3IiB0cmFuc2Zvcm09InRyYW5zbGF0ZSgwLC01OC41KSI+JiN4YTsJCQkJCQk8dGl0bGUgaWQ9InRpdGxlMTM2MDQ3Ij5yZWN0MTYzOTI8L3RpdGxlPiYjeGE7CQkJCQkJPHJlY3QgaWQ9InJlY3QxMzYwNDkiIHg9IjAiIHk9IjY5IiBzdHlsZT0iZmlsbDojMkJDN0Y0OyIgd2lkdGg9IjE4IiBoZWlnaHQ9IjIuMjUiLz4mI3hhOwkJCQkJPC9nPiYjeGE7CQkJCQk8ZyBpZD0ic2hhcGU3OTg2LTE5IiB0cmFuc2Zvcm09InRyYW5zbGF0ZSgxOCwtNDgpIj4mI3hhOwkJCQkJCTx0aXRsZSBpZD0idGl0bGUxMzYwNTIiPnJlY3QxNjM5NDwvdGl0bGU+JiN4YTsJCQkJCQk8cmVjdCBpZD0icmVjdDEzNjA1NCIgeD0iMCIgeT0iNjkiIHN0eWxlPSJmaWxsOiM1NTZBOEE7IiB3aWR0aD0iMTkuNSIgaGVpZ2h0PSIyLjI1Ii8+JiN4YTsJCQkJCTwvZz4mI3hhOwkJCQkJPGcgaWQ9InNoYXBlNzk4Ny0yMSIgdHJhbnNmb3JtPSJ0cmFuc2xhdGUoMTgsLTUzLjI1KSI+JiN4YTsJCQkJCQk8dGl0bGUgaWQ9InRpdGxlMTM2MDU3Ij5yZWN0MTYzOTY8L3RpdGxlPiYjeGE7CQkJCQkJPHJlY3QgaWQ9InJlY3QxMzYwNTkiIHg9IjAiIHk9IjY5IiBzdHlsZT0iZmlsbDojNTU2QThBOyIgd2lkdGg9IjE5LjUiIGhlaWdodD0iMi4yNSIvPiYjeGE7CQkJCQk8L2c+JiN4YTsJCQkJCTxnIGlkPSJzaGFwZTc5ODgtMjMiIHRyYW5zZm9ybT0idHJhbnNsYXRlKDE4LC01OC41KSI+JiN4YTsJCQkJCQk8dGl0bGUgaWQ9InRpdGxlMTM2MDYyIj5yZWN0MTYzOTg8L3RpdGxlPiYjeGE7CQkJCQkJPHJlY3QgaWQ9InJlY3QxMzYwNjQiIHg9IjAiIHk9IjY5IiBzdHlsZT0iZmlsbDojNTU2QThBOyIgd2lkdGg9IjE5LjUiIGhlaWdodD0iMi4yNSIvPiYjeGE7CQkJCQk8L2c+JiN4YTsJCQkJPC9nPiYjeGE7CQkJCTxnIGlkPSJzaGFwZTc5ODktMjUiIHRyYW5zZm9ybT0idHJhbnNsYXRlKDAuNzUsLTU5LjI1KSI+JiN4YTsJCQkJCTx0aXRsZSBpZD0idGl0bGUxMzYwNjgiPnJlY3QxNjQwMjwvdGl0bGU+JiN4YTsJCQkJCTxyZWN0IGlkPSJyZWN0MTM2MDcwIiB4PSIwIiB5PSI2OSIgc3R5bGU9ImZpbGw6IzU1NkE4QTsiIHdpZHRoPSIyLjI1IiBoZWlnaHQ9IjIuMjUiLz4mI3hhOwkJCQk8L2c+JiN4YTsJCQkJPGcgaWQ9InNoYXBlNzk5MC0yNyIgdHJhbnNmb3JtPSJ0cmFuc2xhdGUoMC43NSwtNTQpIj4mI3hhOwkJCQkJPHRpdGxlIGlkPSJ0aXRsZTEzNjA3MyI+cmVjdDE2NDA0PC90aXRsZT4mI3hhOwkJCQkJPHJlY3QgaWQ9InJlY3QxMzYwNzUiIHg9IjAiIHk9IjY5IiBzdHlsZT0iZmlsbDojNTU2QThBOyIgd2lkdGg9IjIuMjUiIGhlaWdodD0iMi4yNSIvPiYjeGE7CQkJCTwvZz4mI3hhOwkJCQk8ZyBpZD0ic2hhcGU3OTkxLTI5IiB0cmFuc2Zvcm09InRyYW5zbGF0ZSgwLjc1LC00OC43NSkiPiYjeGE7CQkJCQk8dGl0bGUgaWQ9InRpdGxlMTM2MDc4Ij5yZWN0MTY0MDY8L3RpdGxlPiYjeGE7CQkJCQk8cmVjdCBpZD0icmVjdDEzNjA4MCIgeD0iMCIgeT0iNjkiIHN0eWxlPSJmaWxsOiM1NTZBOEE7IiB3aWR0aD0iMi4yNSIgaGVpZ2h0PSIyLjI1Ii8+JiN4YTsJCQkJPC9nPiYjeGE7CQkJPC9nPiYjeGE7CQk8L2c+JiN4YTsJCTxnIGlkPSJncm91cDc5OTItMzEiIHRyYW5zZm9ybT0idHJhbnNsYXRlKDE3LjM2MjIsLTMuNjkwMTUpIj4mI3hhOwkJCTx0aXRsZSBpZD0idGl0bGUxMzYwODUiPlNoZWV0Ljc5OTI8L3RpdGxlPiYjeGE7CQkJPGcgaWQ9InNoYXBlNzk5My0zMiI+JiN4YTsJCQkJPHRpdGxlIGlkPSJ0aXRsZTEzNjA4NyI+U2hlZXQuNzk5MzwvdGl0bGU+JiN4YTsJCQkJPHBhdGggaWQ9InBhdGgxMzYwODkiIGlua3NjYXBlOmNvbm5lY3Rvci1jdXJ2YXR1cmU9IjAiIHN0eWxlPSJmaWxsOiM1NTZBOEE7IiBkPSJNNDUsNjcuOTdjMCwzLjI4LTAuNCwzLjA4LTMuNjgsMy4wOEgzLjU4ICAgICAgQzAuMyw3MS4wNSwwLDcwLjc1LDAsNjcuNDhWNDIuMTRjMC0zLjI3LDAuNy0zLjM3LDMuODctMy4zN2gzNi4yNmMzLjI4LDAsNC43Ny0wLjYsNC43NywyLjU4TDQ1LDY3Ljk3eiIvPiYjeGE7CQkJPC9nPiYjeGE7CQkJPGcgaWQ9InNoYXBlNzk5NC0zNCIgdHJhbnNmb3JtPSJ0cmFuc2xhdGUoMi42ODIxMiwtMS45ODY3NSkiPiYjeGE7CQkJCTx0aXRsZSBpZD0idGl0bGUxMzYwOTIiPlNoZWV0Ljc5OTQ8L3RpdGxlPiYjeGE7CQkJCTxwYXRoIGlkPSJwYXRoMTM2MDk0IiBpbmtzY2FwZTpjb25uZWN0b3ItY3VydmF0dXJlPSIwIiBzdHlsZT0iZmlsbDojRTVFNUU1OyIgZD0iTTM5LjY0LDY4LjM3YzAsMi44OC0wLjQsMi42OC0zLjI4LDIuNjhIMy4wOCAgICAgIEMwLjIsNzEuMDUsMCw3MC43NSwwLDY3Ljk3VjQ1LjYyYzAtMi44OCwwLjYtMi45OCwzLjQ4LTIuOThoMzEuOThjMi44OCwwLDQuMTgtMC42LDQuMTgsMi4yOVY2OC4zN3oiLz4mI3hhOwkJCTwvZz4mI3hhOwkJCTxnIGlkPSJzaGFwZTc5OTUtMzYiIHRyYW5zZm9ybT0idHJhbnNsYXRlKDUuNTYyOTEsLTQuNTY5NTQpIj4mI3hhOwkJCQk8dGl0bGUgaWQ9InRpdGxlMTM2MDk3Ij5TaGVldC43OTk1PC90aXRsZT4mI3hhOwkJCQk8cGF0aCBpZD0icGF0aDEzNjA5OSIgaW5rc2NhcGU6Y29ubmVjdG9yLWN1cnZhdHVyZT0iMCIgc3R5bGU9ImZpbGw6IzU1RDJGNjsiIGQ9Ik00Ljk3LDY4Ljc3YzAsMS4zOS0xLjEsMi40OC0yLjQ5LDIuNDggICAgICBTMCw3MC4xNiwwLDY4Ljc3VjUwLjQ5QzAsNDkuMSwxLjA5LDQ4LDIuNDgsNDhzMi40OSwxLjEsMi40OSwyLjQ5TDQuOTcsNjguNzd6Ii8+JiN4YTsJCQk8L2c+JiN4YTsJCQk8ZyBpZD0ic2hhcGU3OTk2LTM4IiB0cmFuc2Zvcm09InRyYW5zbGF0ZSgxMy43MDg2LC01LjY2MjI1KSI+JiN4YTsJCQkJPHRpdGxlIGlkPSJ0aXRsZTEzNjEwMiI+U2hlZXQuNzk5NjwvdGl0bGU+JiN4YTsJCQkJPHJlY3QgaWQ9InJlY3QxMzYxMDQiIHg9IjAiIHk9IjUwLjA5IiBzdHlsZT0iZmlsbDojOTI3M0I2OyIgd2lkdGg9IjE3LjM4IiBoZWlnaHQ9IjIxLjE2Ii8+JiN4YTsJCQk8L2c+JiN4YTsJCQk8ZyBpZD0ic2hhcGU3OTk3LTQwIiB0cmFuc2Zvcm09InRyYW5zbGF0ZSgzMi41ODI4LC0yMy4yNDUpIj4mI3hhOwkJCQk8dGl0bGUgaWQ9InRpdGxlMTM2MTA3Ij5TaGVldC43OTk3PC90aXRsZT4mI3hhOwkJCQk8cGF0aCBpZD0icGF0aDEzNjEwOSIgaW5rc2NhcGU6Y29ubmVjdG9yLWN1cnZhdHVyZT0iMCIgc3R5bGU9ImZpbGw6I0FCOUFDMDsiIGQ9Ik0wLDY3LjY3djMuNThoNy44NXYtMy41OEgweiBNNy4zNSw3MC44NUgwLjYgICAgICB2LTIuNzhoNi43NVY3MC44NXoiLz4mI3hhOwkJCTwvZz4mI3hhOwkJCTxnIGlkPSJzaGFwZTc5OTgtNDIiIHRyYW5zZm9ybT0idHJhbnNsYXRlKDMyLjU4MjgsLTE2Ljk4NjgpIj4mI3hhOwkJCQk8dGl0bGUgaWQ9InRpdGxlMTM2MTEyIj5TaGVldC43OTk4PC90aXRsZT4mI3hhOwkJCQk8cmVjdCBpZD0icmVjdDEzNjExNCIgeD0iMCIgeT0iNjcuNjciIHN0eWxlPSJmaWxsOiNCQUQ4MEE7IiB3aWR0aD0iNy44NSIgaGVpZ2h0PSIzLjU4Ii8+JiN4YTsJCQk8L2c+JiN4YTsJCQk8ZyBpZD0ic2hhcGU3OTk5LTQ0IiB0cmFuc2Zvcm09InRyYW5zbGF0ZSgzMi41ODI4LC0xMC41Mjk4KSI+JiN4YTsJCQkJPHRpdGxlIGlkPSJ0aXRsZTEzNjExNyI+U2hlZXQuNzk5OTwvdGl0bGU+JiN4YTsJCQkJPHJlY3QgaWQ9InJlY3QxMzYxMTkiIHg9IjAiIHk9IjY3LjY3IiBzdHlsZT0iZmlsbDojQkFEODBBOyIgd2lkdGg9IjcuODUiIGhlaWdodD0iMy41OCIvPiYjeGE7CQkJPC9nPiYjeGE7CQkJPGcgaWQ9InNoYXBlODAwMC00NiIgdHJhbnNmb3JtPSJ0cmFuc2xhdGUoMzIuNTgyOCwtNS41NjI5MSkiPiYjeGE7CQkJCTx0aXRsZSBpZD0idGl0bGUxMzYxMjIiPlNoZWV0LjgwMDA8L3RpdGxlPiYjeGE7CQkJCTxyZWN0IGlkPSJyZWN0MTM2MTI0IiB4PSIwIiB5PSI2Ny42NyIgc3R5bGU9ImZpbGw6I0JBRDgwQTsiIHdpZHRoPSI3Ljg1IiBoZWlnaHQ9IjMuNTgiLz4mI3hhOwkJCTwvZz4mI3hhOwkJPC9nPiYjeGE7CQk8ZyBpZD0iZ3JvdXA4MDAxLTQ4IiB0cmFuc2Zvcm09InRyYW5zbGF0ZSgyOS43MDcyLC04LjQyMzU3KSI+JiN4YTsJCQk8dGl0bGUgaWQ9InRpdGxlMTM2MTI4Ij5XZWJzaXRlczwvdGl0bGU+JiN4YTsJCTwvZz4mI3hhOwk8L2c+JiN4YTs8L2c+JiN4YTs8L3N2Zz4=;" vertex="1" parent="1">
          <mxGeometry x="1110" y="1030" width="63" height="70" as="geometry" />
        </mxCell>
        <mxCell id="enrhANVjS56f6MEKnJ0g-32" value="Swarm管理节点3" style="shape=image;verticalLabelPosition=bottom;labelBackgroundColor=#ffffff;verticalAlign=top;aspect=fixed;imageAspect=0;image=data:image/svg+xml,PHN2ZyB4bWxuczpjYz0iaHR0cDovL2NyZWF0aXZlY29tbW9ucy5vcmcvbnMjIiB4bWxuczpkYz0iaHR0cDovL3B1cmwub3JnL2RjL2VsZW1lbnRzLzEuMS8iIHhtbG5zOmlua3NjYXBlPSJodHRwOi8vd3d3Lmlua3NjYXBlLm9yZy9uYW1lc3BhY2VzL2lua3NjYXBlIiB4bWxuczpyZGY9Imh0dHA6Ly93d3cudzMub3JnLzE5OTkvMDIvMjItcmRmLXN5bnRheC1ucyMiIHhtbG5zOnNvZGlwb2RpPSJodHRwOi8vc29kaXBvZGkuc291cmNlZm9yZ2UubmV0L0RURC9zb2RpcG9kaS0wLmR0ZCIgeG1sbnM6c3ZnPSJodHRwOi8vd3d3LnczLm9yZy8yMDAwL3N2ZyIgeG1sbnM9Imh0dHA6Ly93d3cudzMub3JnLzIwMDAvc3ZnIiB4bWxuczp4bGluaz0iaHR0cDovL3d3dy53My5vcmcvMTk5OS94bGluayIgdmVyc2lvbj0iMS4xIiBpZD0ic3ZnMTM2MTM0IiBpbmtzY2FwZTp2ZXJzaW9uPSIwLjkyLjMgKDI0MDU1NDYsIDIwMTgtMDMtMTEpIiBzb2RpcG9kaTpkb2NuYW1lPSJhcHBsaWNhdGlvbl9zZXJ2ZXIuc3ZnIiB4PSIwcHgiIHk9IjBweCIgdmlld0JveD0iMCAwIDYzLjExIDY5Ljc1IiBzdHlsZT0iZW5hYmxlLWJhY2tncm91bmQ6bmV3IDAgMCA2My4xMSA2OS43NTsiIHhtbDpzcGFjZT0icHJlc2VydmUiPiYjeGE7PHNvZGlwb2RpOm5hbWVkdmlldyBib3JkZXJjb2xvcj0iIzY2NjY2NiIgYm9yZGVyb3BhY2l0eT0iMSIgZml0LW1hcmdpbi1ib3R0b209IjAiIGZpdC1tYXJnaW4tbGVmdD0iMCIgZml0LW1hcmdpbi1yaWdodD0iMCIgZml0LW1hcmdpbi10b3A9IjAiIGdyaWR0b2xlcmFuY2U9IjEwIiBndWlkZXRvbGVyYW5jZT0iMTAiIGlkPSJuYW1lZHZpZXcxMzYxMzYiIGlua3NjYXBlOmN1cnJlbnQtbGF5ZXI9InN2ZzEzNjEzNCIgaW5rc2NhcGU6Y3g9IjQyLjA3NDgxNSIgaW5rc2NhcGU6Y3k9IjQ2LjUwMDAxNSIgaW5rc2NhcGU6cGFnZW9wYWNpdHk9IjAiIGlua3NjYXBlOnBhZ2VzaGFkb3c9IjIiIGlua3NjYXBlOndpbmRvdy1oZWlnaHQ9IjEwMTciIGlua3NjYXBlOndpbmRvdy1tYXhpbWl6ZWQ9IjEiIGlua3NjYXBlOndpbmRvdy13aWR0aD0iMTkyMCIgaW5rc2NhcGU6d2luZG93LXg9Ii04IiBpbmtzY2FwZTp3aW5kb3cteT0iLTgiIGlua3NjYXBlOnpvb209IjkuMTI2MzE4NyIgb2JqZWN0dG9sZXJhbmNlPSIxMCIgcGFnZWNvbG9yPSIjZmZmZmZmIiBzaG93Z3JpZD0iZmFsc2UiPiYjeGE7CTwvc29kaXBvZGk6bmFtZWR2aWV3PiYjeGE7PGcgaWQ9ImcxMzYxMzIiIHRyYW5zZm9ybT0idHJhbnNsYXRlKC0wLjc1LC0wLjc1KSI+JiN4YTsJPHRpdGxlIGlkPSJ0aXRsZTEzNjAwNyI+UGFnZS0xPC90aXRsZT4mI3hhOwk8ZyBpZD0iZ3JvdXA3OTc1LTEiIHRyYW5zZm9ybT0idHJhbnNsYXRlKDEuNSwtMS41KSI+JiN4YTsJCTx0aXRsZSBpZD0idGl0bGUxMzYwMDkiPkFwcGxpY2F0aW9uIFNlcnZlcjwvdGl0bGU+JiN4YTsJCTxnIGlkPSJncm91cDc5NzYtMiI+JiN4YTsJCQk8dGl0bGUgaWQ9InRpdGxlMTM2MDExIj5TaGVldC43OTc2PC90aXRsZT4mI3hhOwkJCTxnIGlkPSJncm91cDc5NzctMyI+JiN4YTsJCQkJPHRpdGxlIGlkPSJ0aXRsZTEzNjAxMyI+ZzE2NDA4PC90aXRsZT4mI3hhOwkJCQk8ZyBpZD0ic2hhcGU3OTc4LTQiPiYjeGE7CQkJCQk8dGl0bGUgaWQ9InRpdGxlMTM2MDE1Ij5yZWN0MTYzODA8L3RpdGxlPiYjeGE7CQkJCQkmI3hhOwkJCQkJCTxyZWN0IGlkPSJyZWN0MTM2MDE3IiB4PSIwIiB5PSIzIiBzdHlsZT0iZmlsbDojRkZGRkZGO3N0cm9rZTojNTU2QThBO3N0cm9rZS13aWR0aDoxLjU7c3Ryb2tlLW1pdGVybGltaXQ6MzsiIHdpZHRoPSIzOS43NSIgaGVpZ2h0PSI2OC4yNSIvPiYjeGE7CQkJCTwvZz4mI3hhOwkJCQk8ZyBpZD0iZ3JvdXA3OTc5LTYiIHRyYW5zZm9ybT0idHJhbnNsYXRlKDEuNSwtMC43NSkiPiYjeGE7CQkJCQk8dGl0bGUgaWQ9InRpdGxlMTM2MDIwIj5nMTY0MDA8L3RpdGxlPiYjeGE7CQkJCQk8ZyBpZD0ic2hhcGU3OTgwLTciIHRyYW5zZm9ybT0idHJhbnNsYXRlKDE4KSI+JiN4YTsJCQkJCQk8dGl0bGUgaWQ9InRpdGxlMTM2MDIyIj5yZWN0MTYzODI8L3RpdGxlPiYjeGE7CQkJCQkJPHJlY3QgaWQ9InJlY3QxMzYwMjQiIHg9IjAiIHk9IjQuNSIgc3R5bGU9ImZpbGw6I0U1RTVFNTsiIHdpZHRoPSIxOS41IiBoZWlnaHQ9IjY2Ljc1Ii8+JiN4YTsJCQkJCTwvZz4mI3hhOwkJCQkJPGcgaWQ9InNoYXBlNzk4MS05IiB0cmFuc2Zvcm09InRyYW5zbGF0ZSgwLC00OCkiPiYjeGE7CQkJCQkJPHRpdGxlIGlkPSJ0aXRsZTEzNjAyNyI+cmVjdDE2Mzg0PC90aXRsZT4mI3hhOwkJCQkJCTxyZWN0IGlkPSJyZWN0MTM2MDI5IiB4PSIwIiB5PSI2OSIgc3R5bGU9ImZpbGw6IzJCQzdGNDsiIHdpZHRoPSIxOCIgaGVpZ2h0PSIyLjI1Ii8+JiN4YTsJCQkJCTwvZz4mI3hhOwkJCQkJPGcgaWQ9InNoYXBlNzk4Mi0xMSIgdHJhbnNmb3JtPSJ0cmFuc2xhdGUoMCwtNTguNSkiPiYjeGE7CQkJCQkJPHRpdGxlIGlkPSJ0aXRsZTEzNjAzMiI+cG9seWdvbjE2Mzg2PC90aXRsZT4mI3hhOwkJCQkJCTxyZWN0IGlkPSJyZWN0MTM2MDM0IiB4PSIwIiB5PSI2OSIgc3R5bGU9ImZpbGw6bm9uZTsiIHdpZHRoPSIyNyIgaGVpZ2h0PSIyLjI1Ii8+JiN4YTsJCQkJCTwvZz4mI3hhOwkJCQkJPGcgaWQ9InNoYXBlNzk4My0xMyIgdHJhbnNmb3JtPSJ0cmFuc2xhdGUoMCwtNTguNSkiPiYjeGE7CQkJCQkJPHRpdGxlIGlkPSJ0aXRsZTEzNjAzNyI+cG9seWxpbmUxNjM4ODwvdGl0bGU+JiN4YTsJCQkJCQk8cmVjdCBpZD0icmVjdDEzNjAzOSIgeD0iMCIgeT0iNjkiIHN0eWxlPSJmaWxsOm5vbmU7IiB3aWR0aD0iMjciIGhlaWdodD0iMi4yNSIvPiYjeGE7CQkJCQk8L2c+JiN4YTsJCQkJCTxnIGlkPSJzaGFwZTc5ODQtMTUiIHRyYW5zZm9ybT0idHJhbnNsYXRlKDAsLTUzLjI1KSI+JiN4YTsJCQkJCQk8dGl0bGUgaWQ9InRpdGxlMTM2MDQyIj5yZWN0MTYzOTA8L3RpdGxlPiYjeGE7CQkJCQkJPHJlY3QgaWQ9InJlY3QxMzYwNDQiIHg9IjAiIHk9IjY5IiBzdHlsZT0iZmlsbDojMkJDN0Y0OyIgd2lkdGg9IjE4IiBoZWlnaHQ9IjIuMjUiLz4mI3hhOwkJCQkJPC9nPiYjeGE7CQkJCQk8ZyBpZD0ic2hhcGU3OTg1LTE3IiB0cmFuc2Zvcm09InRyYW5zbGF0ZSgwLC01OC41KSI+JiN4YTsJCQkJCQk8dGl0bGUgaWQ9InRpdGxlMTM2MDQ3Ij5yZWN0MTYzOTI8L3RpdGxlPiYjeGE7CQkJCQkJPHJlY3QgaWQ9InJlY3QxMzYwNDkiIHg9IjAiIHk9IjY5IiBzdHlsZT0iZmlsbDojMkJDN0Y0OyIgd2lkdGg9IjE4IiBoZWlnaHQ9IjIuMjUiLz4mI3hhOwkJCQkJPC9nPiYjeGE7CQkJCQk8ZyBpZD0ic2hhcGU3OTg2LTE5IiB0cmFuc2Zvcm09InRyYW5zbGF0ZSgxOCwtNDgpIj4mI3hhOwkJCQkJCTx0aXRsZSBpZD0idGl0bGUxMzYwNTIiPnJlY3QxNjM5NDwvdGl0bGU+JiN4YTsJCQkJCQk8cmVjdCBpZD0icmVjdDEzNjA1NCIgeD0iMCIgeT0iNjkiIHN0eWxlPSJmaWxsOiM1NTZBOEE7IiB3aWR0aD0iMTkuNSIgaGVpZ2h0PSIyLjI1Ii8+JiN4YTsJCQkJCTwvZz4mI3hhOwkJCQkJPGcgaWQ9InNoYXBlNzk4Ny0yMSIgdHJhbnNmb3JtPSJ0cmFuc2xhdGUoMTgsLTUzLjI1KSI+JiN4YTsJCQkJCQk8dGl0bGUgaWQ9InRpdGxlMTM2MDU3Ij5yZWN0MTYzOTY8L3RpdGxlPiYjeGE7CQkJCQkJPHJlY3QgaWQ9InJlY3QxMzYwNTkiIHg9IjAiIHk9IjY5IiBzdHlsZT0iZmlsbDojNTU2QThBOyIgd2lkdGg9IjE5LjUiIGhlaWdodD0iMi4yNSIvPiYjeGE7CQkJCQk8L2c+JiN4YTsJCQkJCTxnIGlkPSJzaGFwZTc5ODgtMjMiIHRyYW5zZm9ybT0idHJhbnNsYXRlKDE4LC01OC41KSI+JiN4YTsJCQkJCQk8dGl0bGUgaWQ9InRpdGxlMTM2MDYyIj5yZWN0MTYzOTg8L3RpdGxlPiYjeGE7CQkJCQkJPHJlY3QgaWQ9InJlY3QxMzYwNjQiIHg9IjAiIHk9IjY5IiBzdHlsZT0iZmlsbDojNTU2QThBOyIgd2lkdGg9IjE5LjUiIGhlaWdodD0iMi4yNSIvPiYjeGE7CQkJCQk8L2c+JiN4YTsJCQkJPC9nPiYjeGE7CQkJCTxnIGlkPSJzaGFwZTc5ODktMjUiIHRyYW5zZm9ybT0idHJhbnNsYXRlKDAuNzUsLTU5LjI1KSI+JiN4YTsJCQkJCTx0aXRsZSBpZD0idGl0bGUxMzYwNjgiPnJlY3QxNjQwMjwvdGl0bGU+JiN4YTsJCQkJCTxyZWN0IGlkPSJyZWN0MTM2MDcwIiB4PSIwIiB5PSI2OSIgc3R5bGU9ImZpbGw6IzU1NkE4QTsiIHdpZHRoPSIyLjI1IiBoZWlnaHQ9IjIuMjUiLz4mI3hhOwkJCQk8L2c+JiN4YTsJCQkJPGcgaWQ9InNoYXBlNzk5MC0yNyIgdHJhbnNmb3JtPSJ0cmFuc2xhdGUoMC43NSwtNTQpIj4mI3hhOwkJCQkJPHRpdGxlIGlkPSJ0aXRsZTEzNjA3MyI+cmVjdDE2NDA0PC90aXRsZT4mI3hhOwkJCQkJPHJlY3QgaWQ9InJlY3QxMzYwNzUiIHg9IjAiIHk9IjY5IiBzdHlsZT0iZmlsbDojNTU2QThBOyIgd2lkdGg9IjIuMjUiIGhlaWdodD0iMi4yNSIvPiYjeGE7CQkJCTwvZz4mI3hhOwkJCQk8ZyBpZD0ic2hhcGU3OTkxLTI5IiB0cmFuc2Zvcm09InRyYW5zbGF0ZSgwLjc1LC00OC43NSkiPiYjeGE7CQkJCQk8dGl0bGUgaWQ9InRpdGxlMTM2MDc4Ij5yZWN0MTY0MDY8L3RpdGxlPiYjeGE7CQkJCQk8cmVjdCBpZD0icmVjdDEzNjA4MCIgeD0iMCIgeT0iNjkiIHN0eWxlPSJmaWxsOiM1NTZBOEE7IiB3aWR0aD0iMi4yNSIgaGVpZ2h0PSIyLjI1Ii8+JiN4YTsJCQkJPC9nPiYjeGE7CQkJPC9nPiYjeGE7CQk8L2c+JiN4YTsJCTxnIGlkPSJncm91cDc5OTItMzEiIHRyYW5zZm9ybT0idHJhbnNsYXRlKDE3LjM2MjIsLTMuNjkwMTUpIj4mI3hhOwkJCTx0aXRsZSBpZD0idGl0bGUxMzYwODUiPlNoZWV0Ljc5OTI8L3RpdGxlPiYjeGE7CQkJPGcgaWQ9InNoYXBlNzk5My0zMiI+JiN4YTsJCQkJPHRpdGxlIGlkPSJ0aXRsZTEzNjA4NyI+U2hlZXQuNzk5MzwvdGl0bGU+JiN4YTsJCQkJPHBhdGggaWQ9InBhdGgxMzYwODkiIGlua3NjYXBlOmNvbm5lY3Rvci1jdXJ2YXR1cmU9IjAiIHN0eWxlPSJmaWxsOiM1NTZBOEE7IiBkPSJNNDUsNjcuOTdjMCwzLjI4LTAuNCwzLjA4LTMuNjgsMy4wOEgzLjU4ICAgICAgQzAuMyw3MS4wNSwwLDcwLjc1LDAsNjcuNDhWNDIuMTRjMC0zLjI3LDAuNy0zLjM3LDMuODctMy4zN2gzNi4yNmMzLjI4LDAsNC43Ny0wLjYsNC43NywyLjU4TDQ1LDY3Ljk3eiIvPiYjeGE7CQkJPC9nPiYjeGE7CQkJPGcgaWQ9InNoYXBlNzk5NC0zNCIgdHJhbnNmb3JtPSJ0cmFuc2xhdGUoMi42ODIxMiwtMS45ODY3NSkiPiYjeGE7CQkJCTx0aXRsZSBpZD0idGl0bGUxMzYwOTIiPlNoZWV0Ljc5OTQ8L3RpdGxlPiYjeGE7CQkJCTxwYXRoIGlkPSJwYXRoMTM2MDk0IiBpbmtzY2FwZTpjb25uZWN0b3ItY3VydmF0dXJlPSIwIiBzdHlsZT0iZmlsbDojRTVFNUU1OyIgZD0iTTM5LjY0LDY4LjM3YzAsMi44OC0wLjQsMi42OC0zLjI4LDIuNjhIMy4wOCAgICAgIEMwLjIsNzEuMDUsMCw3MC43NSwwLDY3Ljk3VjQ1LjYyYzAtMi44OCwwLjYtMi45OCwzLjQ4LTIuOThoMzEuOThjMi44OCwwLDQuMTgtMC42LDQuMTgsMi4yOVY2OC4zN3oiLz4mI3hhOwkJCTwvZz4mI3hhOwkJCTxnIGlkPSJzaGFwZTc5OTUtMzYiIHRyYW5zZm9ybT0idHJhbnNsYXRlKDUuNTYyOTEsLTQuNTY5NTQpIj4mI3hhOwkJCQk8dGl0bGUgaWQ9InRpdGxlMTM2MDk3Ij5TaGVldC43OTk1PC90aXRsZT4mI3hhOwkJCQk8cGF0aCBpZD0icGF0aDEzNjA5OSIgaW5rc2NhcGU6Y29ubmVjdG9yLWN1cnZhdHVyZT0iMCIgc3R5bGU9ImZpbGw6IzU1RDJGNjsiIGQ9Ik00Ljk3LDY4Ljc3YzAsMS4zOS0xLjEsMi40OC0yLjQ5LDIuNDggICAgICBTMCw3MC4xNiwwLDY4Ljc3VjUwLjQ5QzAsNDkuMSwxLjA5LDQ4LDIuNDgsNDhzMi40OSwxLjEsMi40OSwyLjQ5TDQuOTcsNjguNzd6Ii8+JiN4YTsJCQk8L2c+JiN4YTsJCQk8ZyBpZD0ic2hhcGU3OTk2LTM4IiB0cmFuc2Zvcm09InRyYW5zbGF0ZSgxMy43MDg2LC01LjY2MjI1KSI+JiN4YTsJCQkJPHRpdGxlIGlkPSJ0aXRsZTEzNjEwMiI+U2hlZXQuNzk5NjwvdGl0bGU+JiN4YTsJCQkJPHJlY3QgaWQ9InJlY3QxMzYxMDQiIHg9IjAiIHk9IjUwLjA5IiBzdHlsZT0iZmlsbDojOTI3M0I2OyIgd2lkdGg9IjE3LjM4IiBoZWlnaHQ9IjIxLjE2Ii8+JiN4YTsJCQk8L2c+JiN4YTsJCQk8ZyBpZD0ic2hhcGU3OTk3LTQwIiB0cmFuc2Zvcm09InRyYW5zbGF0ZSgzMi41ODI4LC0yMy4yNDUpIj4mI3hhOwkJCQk8dGl0bGUgaWQ9InRpdGxlMTM2MTA3Ij5TaGVldC43OTk3PC90aXRsZT4mI3hhOwkJCQk8cGF0aCBpZD0icGF0aDEzNjEwOSIgaW5rc2NhcGU6Y29ubmVjdG9yLWN1cnZhdHVyZT0iMCIgc3R5bGU9ImZpbGw6I0FCOUFDMDsiIGQ9Ik0wLDY3LjY3djMuNThoNy44NXYtMy41OEgweiBNNy4zNSw3MC44NUgwLjYgICAgICB2LTIuNzhoNi43NVY3MC44NXoiLz4mI3hhOwkJCTwvZz4mI3hhOwkJCTxnIGlkPSJzaGFwZTc5OTgtNDIiIHRyYW5zZm9ybT0idHJhbnNsYXRlKDMyLjU4MjgsLTE2Ljk4NjgpIj4mI3hhOwkJCQk8dGl0bGUgaWQ9InRpdGxlMTM2MTEyIj5TaGVldC43OTk4PC90aXRsZT4mI3hhOwkJCQk8cmVjdCBpZD0icmVjdDEzNjExNCIgeD0iMCIgeT0iNjcuNjciIHN0eWxlPSJmaWxsOiNCQUQ4MEE7IiB3aWR0aD0iNy44NSIgaGVpZ2h0PSIzLjU4Ii8+JiN4YTsJCQk8L2c+JiN4YTsJCQk8ZyBpZD0ic2hhcGU3OTk5LTQ0IiB0cmFuc2Zvcm09InRyYW5zbGF0ZSgzMi41ODI4LC0xMC41Mjk4KSI+JiN4YTsJCQkJPHRpdGxlIGlkPSJ0aXRsZTEzNjExNyI+U2hlZXQuNzk5OTwvdGl0bGU+JiN4YTsJCQkJPHJlY3QgaWQ9InJlY3QxMzYxMTkiIHg9IjAiIHk9IjY3LjY3IiBzdHlsZT0iZmlsbDojQkFEODBBOyIgd2lkdGg9IjcuODUiIGhlaWdodD0iMy41OCIvPiYjeGE7CQkJPC9nPiYjeGE7CQkJPGcgaWQ9InNoYXBlODAwMC00NiIgdHJhbnNmb3JtPSJ0cmFuc2xhdGUoMzIuNTgyOCwtNS41NjI5MSkiPiYjeGE7CQkJCTx0aXRsZSBpZD0idGl0bGUxMzYxMjIiPlNoZWV0LjgwMDA8L3RpdGxlPiYjeGE7CQkJCTxyZWN0IGlkPSJyZWN0MTM2MTI0IiB4PSIwIiB5PSI2Ny42NyIgc3R5bGU9ImZpbGw6I0JBRDgwQTsiIHdpZHRoPSI3Ljg1IiBoZWlnaHQ9IjMuNTgiLz4mI3hhOwkJCTwvZz4mI3hhOwkJPC9nPiYjeGE7CQk8ZyBpZD0iZ3JvdXA4MDAxLTQ4IiB0cmFuc2Zvcm09InRyYW5zbGF0ZSgyOS43MDcyLC04LjQyMzU3KSI+JiN4YTsJCQk8dGl0bGUgaWQ9InRpdGxlMTM2MTI4Ij5XZWJzaXRlczwvdGl0bGU+JiN4YTsJCTwvZz4mI3hhOwk8L2c+JiN4YTs8L2c+JiN4YTs8L3N2Zz4=;" vertex="1" parent="1">
          <mxGeometry x="1390" y="1030" width="63" height="70" as="geometry" />
        </mxCell>
        <mxCell id="enrhANVjS56f6MEKnJ0g-33" value="业务服务器1" style="shape=image;verticalLabelPosition=bottom;labelBackgroundColor=#ffffff;verticalAlign=top;aspect=fixed;imageAspect=0;image=data:image/svg+xml,PHN2ZyB4bWxuczpjYz0iaHR0cDovL2NyZWF0aXZlY29tbW9ucy5vcmcvbnMjIiB4bWxuczpkYz0iaHR0cDovL3B1cmwub3JnL2RjL2VsZW1lbnRzLzEuMS8iIHhtbG5zOmlua3NjYXBlPSJodHRwOi8vd3d3Lmlua3NjYXBlLm9yZy9uYW1lc3BhY2VzL2lua3NjYXBlIiB4bWxuczpyZGY9Imh0dHA6Ly93d3cudzMub3JnLzE5OTkvMDIvMjItcmRmLXN5bnRheC1ucyMiIHhtbG5zOnNvZGlwb2RpPSJodHRwOi8vc29kaXBvZGkuc291cmNlZm9yZ2UubmV0L0RURC9zb2RpcG9kaS0wLmR0ZCIgeG1sbnM6c3ZnPSJodHRwOi8vd3d3LnczLm9yZy8yMDAwL3N2ZyIgeG1sbnM9Imh0dHA6Ly93d3cudzMub3JnLzIwMDAvc3ZnIiB4bWxuczp4bGluaz0iaHR0cDovL3d3dy53My5vcmcvMTk5OS94bGluayIgdmVyc2lvbj0iMS4xIiBpZD0ic3ZnNTE0OCIgaW5rc2NhcGU6dmVyc2lvbj0iMC45Mi4zICgyNDA1NTQ2LCAyMDE4LTAzLTExKSIgc29kaXBvZGk6ZG9jbmFtZT0ic2VydmVyLnN2ZyIgeD0iMHB4IiB5PSIwcHgiIHZpZXdCb3g9IjAgMCA0MS4yNSA2OS43NSIgc3R5bGU9ImVuYWJsZS1iYWNrZ3JvdW5kOm5ldyAwIDAgNDEuMjUgNjkuNzU7IiB4bWw6c3BhY2U9InByZXNlcnZlIj4mI3hhOzxzb2RpcG9kaTpuYW1lZHZpZXcgYm9yZGVyY29sb3I9IiM2NjY2NjYiIGJvcmRlcm9wYWNpdHk9IjEiIGZpdC1tYXJnaW4tYm90dG9tPSIwIiBmaXQtbWFyZ2luLWxlZnQ9IjAiIGZpdC1tYXJnaW4tcmlnaHQ9IjAiIGZpdC1tYXJnaW4tdG9wPSIwIiBncmlkdG9sZXJhbmNlPSIxMCIgZ3VpZGV0b2xlcmFuY2U9IjEwIiBpZD0ibmFtZWR2aWV3NTE1MCIgaW5rc2NhcGU6Y3VycmVudC1sYXllcj0ic3ZnNTE0OCIgaW5rc2NhcGU6Y3g9IjI3LjUiIGlua3NjYXBlOmN5PSI0Ni41IiBpbmtzY2FwZTpwYWdlb3BhY2l0eT0iMCIgaW5rc2NhcGU6cGFnZXNoYWRvdz0iMiIgaW5rc2NhcGU6d2luZG93LWhlaWdodD0iMTAxNyIgaW5rc2NhcGU6d2luZG93LW1heGltaXplZD0iMSIgaW5rc2NhcGU6d2luZG93LXdpZHRoPSIxOTIwIiBpbmtzY2FwZTp3aW5kb3cteD0iLTgiIGlua3NjYXBlOndpbmRvdy15PSItOCIgaW5rc2NhcGU6em9vbT0iOS4xMjYzMTg3IiBvYmplY3R0b2xlcmFuY2U9IjEwIiBwYWdlY29sb3I9IiNmZmZmZmYiIHNob3dncmlkPSJmYWxzZSI+JiN4YTsJPC9zb2RpcG9kaTpuYW1lZHZpZXc+JiN4YTs8ZyBpZD0iZzUxNDYiIHRyYW5zZm9ybT0idHJhbnNsYXRlKC0wLjc1LC0wLjc1KSI+JiN4YTsJPHRpdGxlIGlkPSJ0aXRsZTUwNzAiPlBhZ2UtMTwvdGl0bGU+JiN4YTsJPGcgaWQ9Imdyb3VwNzUzMC0xIiB0cmFuc2Zvcm09InRyYW5zbGF0ZSgxLjUsLTEuNSkiPiYjeGE7CQk8dGl0bGUgaWQ9InRpdGxlNTA3MiI+U2VydmVyPC90aXRsZT4mI3hhOwkJPGcgaWQ9Imdyb3VwNzUzMS0yIj4mI3hhOwkJCTx0aXRsZSBpZD0idGl0bGU1MDc0Ij5nMTY0MDg8L3RpdGxlPiYjeGE7CQkJPGcgaWQ9InNoYXBlNzUzMi0zIj4mI3hhOwkJCQk8dGl0bGUgaWQ9InRpdGxlNTA3NiI+cmVjdDE2MzgwPC90aXRsZT4mI3hhOwkJCQkmI3hhOwkJCQkJPHJlY3QgaWQ9InJlY3Q1MDc4IiB4PSIwIiB5PSIzIiBzdHlsZT0iZmlsbDojRkZGRkZGO3N0cm9rZTojNTU2QThBO3N0cm9rZS13aWR0aDoxLjU7c3Ryb2tlLW1pdGVybGltaXQ6MzsiIHdpZHRoPSIzOS43NSIgaGVpZ2h0PSI2OC4yNSIvPiYjeGE7CQkJPC9nPiYjeGE7CQkJPGcgaWQ9Imdyb3VwNzUzMy01IiB0cmFuc2Zvcm09InRyYW5zbGF0ZSgxLjUsLTAuNzUpIj4mI3hhOwkJCQk8dGl0bGUgaWQ9InRpdGxlNTA4MSI+ZzE2NDAwPC90aXRsZT4mI3hhOwkJCQk8ZyBpZD0ic2hhcGU3NTM0LTYiIHRyYW5zZm9ybT0idHJhbnNsYXRlKDE4KSI+JiN4YTsJCQkJCTx0aXRsZSBpZD0idGl0bGU1MDgzIj5yZWN0MTYzODI8L3RpdGxlPiYjeGE7CQkJCQk8cmVjdCBpZD0icmVjdDUwODUiIHg9IjAiIHk9IjQuNSIgc3R5bGU9ImZpbGw6I0U1RTVFNTsiIHdpZHRoPSIxOS41IiBoZWlnaHQ9IjY2Ljc1Ii8+JiN4YTsJCQkJPC9nPiYjeGE7CQkJCTxnIGlkPSJzaGFwZTc1MzUtOCIgdHJhbnNmb3JtPSJ0cmFuc2xhdGUoMCwtNDgpIj4mI3hhOwkJCQkJPHRpdGxlIGlkPSJ0aXRsZTUwODgiPnJlY3QxNjM4NDwvdGl0bGU+JiN4YTsJCQkJCTxyZWN0IGlkPSJyZWN0NTA5MCIgeD0iMCIgeT0iNjkiIHN0eWxlPSJmaWxsOiMyQkM3RjQ7IiB3aWR0aD0iMTgiIGhlaWdodD0iMi4yNSIvPiYjeGE7CQkJCTwvZz4mI3hhOwkJCQk8ZyBpZD0ic2hhcGU3NTM2LTEwIiB0cmFuc2Zvcm09InRyYW5zbGF0ZSgwLC01OC41KSI+JiN4YTsJCQkJCTx0aXRsZSBpZD0idGl0bGU1MDkzIj5wb2x5Z29uMTYzODY8L3RpdGxlPiYjeGE7CQkJCQk8cmVjdCBpZD0icmVjdDUwOTUiIHg9IjAiIHk9IjY5IiBzdHlsZT0iZmlsbDpub25lOyIgd2lkdGg9IjI3IiBoZWlnaHQ9IjIuMjUiLz4mI3hhOwkJCQk8L2c+JiN4YTsJCQkJPGcgaWQ9InNoYXBlNzUzNy0xMiIgdHJhbnNmb3JtPSJ0cmFuc2xhdGUoMCwtNTguNSkiPiYjeGE7CQkJCQk8dGl0bGUgaWQ9InRpdGxlNTA5OCI+cG9seWxpbmUxNjM4ODwvdGl0bGU+JiN4YTsJCQkJCTxyZWN0IGlkPSJyZWN0NTEwMCIgeD0iMCIgeT0iNjkiIHN0eWxlPSJmaWxsOm5vbmU7IiB3aWR0aD0iMjciIGhlaWdodD0iMi4yNSIvPiYjeGE7CQkJCTwvZz4mI3hhOwkJCQk8ZyBpZD0ic2hhcGU3NTM4LTE0IiB0cmFuc2Zvcm09InRyYW5zbGF0ZSgwLC01My4yNSkiPiYjeGE7CQkJCQk8dGl0bGUgaWQ9InRpdGxlNTEwMyI+cmVjdDE2MzkwPC90aXRsZT4mI3hhOwkJCQkJPHJlY3QgaWQ9InJlY3Q1MTA1IiB4PSIwIiB5PSI2OSIgc3R5bGU9ImZpbGw6IzJCQzdGNDsiIHdpZHRoPSIxOCIgaGVpZ2h0PSIyLjI1Ii8+JiN4YTsJCQkJPC9nPiYjeGE7CQkJCTxnIGlkPSJzaGFwZTc1MzktMTYiIHRyYW5zZm9ybT0idHJhbnNsYXRlKDAsLTU4LjUpIj4mI3hhOwkJCQkJPHRpdGxlIGlkPSJ0aXRsZTUxMDgiPnJlY3QxNjM5MjwvdGl0bGU+JiN4YTsJCQkJCTxyZWN0IGlkPSJyZWN0NTExMCIgeD0iMCIgeT0iNjkiIHN0eWxlPSJmaWxsOiMyQkM3RjQ7IiB3aWR0aD0iMTgiIGhlaWdodD0iMi4yNSIvPiYjeGE7CQkJCTwvZz4mI3hhOwkJCQk8ZyBpZD0ic2hhcGU3NTQwLTE4IiB0cmFuc2Zvcm09InRyYW5zbGF0ZSgxOCwtNDgpIj4mI3hhOwkJCQkJPHRpdGxlIGlkPSJ0aXRsZTUxMTMiPnJlY3QxNjM5NDwvdGl0bGU+JiN4YTsJCQkJCTxyZWN0IGlkPSJyZWN0NTExNSIgeD0iMCIgeT0iNjkiIHN0eWxlPSJmaWxsOiM1NTZBOEE7IiB3aWR0aD0iMTkuNSIgaGVpZ2h0PSIyLjI1Ii8+JiN4YTsJCQkJPC9nPiYjeGE7CQkJCTxnIGlkPSJzaGFwZTc1NDEtMjAiIHRyYW5zZm9ybT0idHJhbnNsYXRlKDE4LC01My4yNSkiPiYjeGE7CQkJCQk8dGl0bGUgaWQ9InRpdGxlNTExOCI+cmVjdDE2Mzk2PC90aXRsZT4mI3hhOwkJCQkJPHJlY3QgaWQ9InJlY3Q1MTIwIiB4PSIwIiB5PSI2OSIgc3R5bGU9ImZpbGw6IzU1NkE4QTsiIHdpZHRoPSIxOS41IiBoZWlnaHQ9IjIuMjUiLz4mI3hhOwkJCQk8L2c+JiN4YTsJCQkJPGcgaWQ9InNoYXBlNzU0Mi0yMiIgdHJhbnNmb3JtPSJ0cmFuc2xhdGUoMTgsLTU4LjUpIj4mI3hhOwkJCQkJPHRpdGxlIGlkPSJ0aXRsZTUxMjMiPnJlY3QxNjM5ODwvdGl0bGU+JiN4YTsJCQkJCTxyZWN0IGlkPSJyZWN0NTEyNSIgeD0iMCIgeT0iNjkiIHN0eWxlPSJmaWxsOiM1NTZBOEE7IiB3aWR0aD0iMTkuNSIgaGVpZ2h0PSIyLjI1Ii8+JiN4YTsJCQkJPC9nPiYjeGE7CQkJPC9nPiYjeGE7CQkJPGcgaWQ9InNoYXBlNzU0My0yNCIgdHJhbnNmb3JtPSJ0cmFuc2xhdGUoMC43NSwtNTkuMjUpIj4mI3hhOwkJCQk8dGl0bGUgaWQ9InRpdGxlNTEyOSI+cmVjdDE2NDAyPC90aXRsZT4mI3hhOwkJCQk8cmVjdCBpZD0icmVjdDUxMzEiIHg9IjAiIHk9IjY5IiBzdHlsZT0iZmlsbDojNTU2QThBOyIgd2lkdGg9IjIuMjUiIGhlaWdodD0iMi4yNSIvPiYjeGE7CQkJPC9nPiYjeGE7CQkJPGcgaWQ9InNoYXBlNzU0NC0yNiIgdHJhbnNmb3JtPSJ0cmFuc2xhdGUoMC43NSwtNTQpIj4mI3hhOwkJCQk8dGl0bGUgaWQ9InRpdGxlNTEzNCI+cmVjdDE2NDA0PC90aXRsZT4mI3hhOwkJCQk8cmVjdCBpZD0icmVjdDUxMzYiIHg9IjAiIHk9IjY5IiBzdHlsZT0iZmlsbDojNTU2QThBOyIgd2lkdGg9IjIuMjUiIGhlaWdodD0iMi4yNSIvPiYjeGE7CQkJPC9nPiYjeGE7CQkJPGcgaWQ9InNoYXBlNzU0NS0yOCIgdHJhbnNmb3JtPSJ0cmFuc2xhdGUoMC43NSwtNDguNzUpIj4mI3hhOwkJCQk8dGl0bGUgaWQ9InRpdGxlNTEzOSI+cmVjdDE2NDA2PC90aXRsZT4mI3hhOwkJCQk8cmVjdCBpZD0icmVjdDUxNDEiIHg9IjAiIHk9IjY5IiBzdHlsZT0iZmlsbDojNTU2QThBOyIgd2lkdGg9IjIuMjUiIGhlaWdodD0iMi4yNSIvPiYjeGE7CQkJPC9nPiYjeGE7CQk8L2c+JiN4YTsJPC9nPiYjeGE7PC9nPiYjeGE7PC9zdmc+;" vertex="1" parent="1">
          <mxGeometry x="980" y="665" width="41" height="70" as="geometry" />
        </mxCell>
        <mxCell id="enrhANVjS56f6MEKnJ0g-34" value="业务服务器2" style="shape=image;verticalLabelPosition=bottom;labelBackgroundColor=#ffffff;verticalAlign=top;aspect=fixed;imageAspect=0;image=data:image/svg+xml,PHN2ZyB4bWxuczpjYz0iaHR0cDovL2NyZWF0aXZlY29tbW9ucy5vcmcvbnMjIiB4bWxuczpkYz0iaHR0cDovL3B1cmwub3JnL2RjL2VsZW1lbnRzLzEuMS8iIHhtbG5zOmlua3NjYXBlPSJodHRwOi8vd3d3Lmlua3NjYXBlLm9yZy9uYW1lc3BhY2VzL2lua3NjYXBlIiB4bWxuczpyZGY9Imh0dHA6Ly93d3cudzMub3JnLzE5OTkvMDIvMjItcmRmLXN5bnRheC1ucyMiIHhtbG5zOnNvZGlwb2RpPSJodHRwOi8vc29kaXBvZGkuc291cmNlZm9yZ2UubmV0L0RURC9zb2RpcG9kaS0wLmR0ZCIgeG1sbnM6c3ZnPSJodHRwOi8vd3d3LnczLm9yZy8yMDAwL3N2ZyIgeG1sbnM9Imh0dHA6Ly93d3cudzMub3JnLzIwMDAvc3ZnIiB4bWxuczp4bGluaz0iaHR0cDovL3d3dy53My5vcmcvMTk5OS94bGluayIgdmVyc2lvbj0iMS4xIiBpZD0ic3ZnNTE0OCIgaW5rc2NhcGU6dmVyc2lvbj0iMC45Mi4zICgyNDA1NTQ2LCAyMDE4LTAzLTExKSIgc29kaXBvZGk6ZG9jbmFtZT0ic2VydmVyLnN2ZyIgeD0iMHB4IiB5PSIwcHgiIHZpZXdCb3g9IjAgMCA0MS4yNSA2OS43NSIgc3R5bGU9ImVuYWJsZS1iYWNrZ3JvdW5kOm5ldyAwIDAgNDEuMjUgNjkuNzU7IiB4bWw6c3BhY2U9InByZXNlcnZlIj4mI3hhOzxzb2RpcG9kaTpuYW1lZHZpZXcgYm9yZGVyY29sb3I9IiM2NjY2NjYiIGJvcmRlcm9wYWNpdHk9IjEiIGZpdC1tYXJnaW4tYm90dG9tPSIwIiBmaXQtbWFyZ2luLWxlZnQ9IjAiIGZpdC1tYXJnaW4tcmlnaHQ9IjAiIGZpdC1tYXJnaW4tdG9wPSIwIiBncmlkdG9sZXJhbmNlPSIxMCIgZ3VpZGV0b2xlcmFuY2U9IjEwIiBpZD0ibmFtZWR2aWV3NTE1MCIgaW5rc2NhcGU6Y3VycmVudC1sYXllcj0ic3ZnNTE0OCIgaW5rc2NhcGU6Y3g9IjI3LjUiIGlua3NjYXBlOmN5PSI0Ni41IiBpbmtzY2FwZTpwYWdlb3BhY2l0eT0iMCIgaW5rc2NhcGU6cGFnZXNoYWRvdz0iMiIgaW5rc2NhcGU6d2luZG93LWhlaWdodD0iMTAxNyIgaW5rc2NhcGU6d2luZG93LW1heGltaXplZD0iMSIgaW5rc2NhcGU6d2luZG93LXdpZHRoPSIxOTIwIiBpbmtzY2FwZTp3aW5kb3cteD0iLTgiIGlua3NjYXBlOndpbmRvdy15PSItOCIgaW5rc2NhcGU6em9vbT0iOS4xMjYzMTg3IiBvYmplY3R0b2xlcmFuY2U9IjEwIiBwYWdlY29sb3I9IiNmZmZmZmYiIHNob3dncmlkPSJmYWxzZSI+JiN4YTsJPC9zb2RpcG9kaTpuYW1lZHZpZXc+JiN4YTs8ZyBpZD0iZzUxNDYiIHRyYW5zZm9ybT0idHJhbnNsYXRlKC0wLjc1LC0wLjc1KSI+JiN4YTsJPHRpdGxlIGlkPSJ0aXRsZTUwNzAiPlBhZ2UtMTwvdGl0bGU+JiN4YTsJPGcgaWQ9Imdyb3VwNzUzMC0xIiB0cmFuc2Zvcm09InRyYW5zbGF0ZSgxLjUsLTEuNSkiPiYjeGE7CQk8dGl0bGUgaWQ9InRpdGxlNTA3MiI+U2VydmVyPC90aXRsZT4mI3hhOwkJPGcgaWQ9Imdyb3VwNzUzMS0yIj4mI3hhOwkJCTx0aXRsZSBpZD0idGl0bGU1MDc0Ij5nMTY0MDg8L3RpdGxlPiYjeGE7CQkJPGcgaWQ9InNoYXBlNzUzMi0zIj4mI3hhOwkJCQk8dGl0bGUgaWQ9InRpdGxlNTA3NiI+cmVjdDE2MzgwPC90aXRsZT4mI3hhOwkJCQkmI3hhOwkJCQkJPHJlY3QgaWQ9InJlY3Q1MDc4IiB4PSIwIiB5PSIzIiBzdHlsZT0iZmlsbDojRkZGRkZGO3N0cm9rZTojNTU2QThBO3N0cm9rZS13aWR0aDoxLjU7c3Ryb2tlLW1pdGVybGltaXQ6MzsiIHdpZHRoPSIzOS43NSIgaGVpZ2h0PSI2OC4yNSIvPiYjeGE7CQkJPC9nPiYjeGE7CQkJPGcgaWQ9Imdyb3VwNzUzMy01IiB0cmFuc2Zvcm09InRyYW5zbGF0ZSgxLjUsLTAuNzUpIj4mI3hhOwkJCQk8dGl0bGUgaWQ9InRpdGxlNTA4MSI+ZzE2NDAwPC90aXRsZT4mI3hhOwkJCQk8ZyBpZD0ic2hhcGU3NTM0LTYiIHRyYW5zZm9ybT0idHJhbnNsYXRlKDE4KSI+JiN4YTsJCQkJCTx0aXRsZSBpZD0idGl0bGU1MDgzIj5yZWN0MTYzODI8L3RpdGxlPiYjeGE7CQkJCQk8cmVjdCBpZD0icmVjdDUwODUiIHg9IjAiIHk9IjQuNSIgc3R5bGU9ImZpbGw6I0U1RTVFNTsiIHdpZHRoPSIxOS41IiBoZWlnaHQ9IjY2Ljc1Ii8+JiN4YTsJCQkJPC9nPiYjeGE7CQkJCTxnIGlkPSJzaGFwZTc1MzUtOCIgdHJhbnNmb3JtPSJ0cmFuc2xhdGUoMCwtNDgpIj4mI3hhOwkJCQkJPHRpdGxlIGlkPSJ0aXRsZTUwODgiPnJlY3QxNjM4NDwvdGl0bGU+JiN4YTsJCQkJCTxyZWN0IGlkPSJyZWN0NTA5MCIgeD0iMCIgeT0iNjkiIHN0eWxlPSJmaWxsOiMyQkM3RjQ7IiB3aWR0aD0iMTgiIGhlaWdodD0iMi4yNSIvPiYjeGE7CQkJCTwvZz4mI3hhOwkJCQk8ZyBpZD0ic2hhcGU3NTM2LTEwIiB0cmFuc2Zvcm09InRyYW5zbGF0ZSgwLC01OC41KSI+JiN4YTsJCQkJCTx0aXRsZSBpZD0idGl0bGU1MDkzIj5wb2x5Z29uMTYzODY8L3RpdGxlPiYjeGE7CQkJCQk8cmVjdCBpZD0icmVjdDUwOTUiIHg9IjAiIHk9IjY5IiBzdHlsZT0iZmlsbDpub25lOyIgd2lkdGg9IjI3IiBoZWlnaHQ9IjIuMjUiLz4mI3hhOwkJCQk8L2c+JiN4YTsJCQkJPGcgaWQ9InNoYXBlNzUzNy0xMiIgdHJhbnNmb3JtPSJ0cmFuc2xhdGUoMCwtNTguNSkiPiYjeGE7CQkJCQk8dGl0bGUgaWQ9InRpdGxlNTA5OCI+cG9seWxpbmUxNjM4ODwvdGl0bGU+JiN4YTsJCQkJCTxyZWN0IGlkPSJyZWN0NTEwMCIgeD0iMCIgeT0iNjkiIHN0eWxlPSJmaWxsOm5vbmU7IiB3aWR0aD0iMjciIGhlaWdodD0iMi4yNSIvPiYjeGE7CQkJCTwvZz4mI3hhOwkJCQk8ZyBpZD0ic2hhcGU3NTM4LTE0IiB0cmFuc2Zvcm09InRyYW5zbGF0ZSgwLC01My4yNSkiPiYjeGE7CQkJCQk8dGl0bGUgaWQ9InRpdGxlNTEwMyI+cmVjdDE2MzkwPC90aXRsZT4mI3hhOwkJCQkJPHJlY3QgaWQ9InJlY3Q1MTA1IiB4PSIwIiB5PSI2OSIgc3R5bGU9ImZpbGw6IzJCQzdGNDsiIHdpZHRoPSIxOCIgaGVpZ2h0PSIyLjI1Ii8+JiN4YTsJCQkJPC9nPiYjeGE7CQkJCTxnIGlkPSJzaGFwZTc1MzktMTYiIHRyYW5zZm9ybT0idHJhbnNsYXRlKDAsLTU4LjUpIj4mI3hhOwkJCQkJPHRpdGxlIGlkPSJ0aXRsZTUxMDgiPnJlY3QxNjM5MjwvdGl0bGU+JiN4YTsJCQkJCTxyZWN0IGlkPSJyZWN0NTExMCIgeD0iMCIgeT0iNjkiIHN0eWxlPSJmaWxsOiMyQkM3RjQ7IiB3aWR0aD0iMTgiIGhlaWdodD0iMi4yNSIvPiYjeGE7CQkJCTwvZz4mI3hhOwkJCQk8ZyBpZD0ic2hhcGU3NTQwLTE4IiB0cmFuc2Zvcm09InRyYW5zbGF0ZSgxOCwtNDgpIj4mI3hhOwkJCQkJPHRpdGxlIGlkPSJ0aXRsZTUxMTMiPnJlY3QxNjM5NDwvdGl0bGU+JiN4YTsJCQkJCTxyZWN0IGlkPSJyZWN0NTExNSIgeD0iMCIgeT0iNjkiIHN0eWxlPSJmaWxsOiM1NTZBOEE7IiB3aWR0aD0iMTkuNSIgaGVpZ2h0PSIyLjI1Ii8+JiN4YTsJCQkJPC9nPiYjeGE7CQkJCTxnIGlkPSJzaGFwZTc1NDEtMjAiIHRyYW5zZm9ybT0idHJhbnNsYXRlKDE4LC01My4yNSkiPiYjeGE7CQkJCQk8dGl0bGUgaWQ9InRpdGxlNTExOCI+cmVjdDE2Mzk2PC90aXRsZT4mI3hhOwkJCQkJPHJlY3QgaWQ9InJlY3Q1MTIwIiB4PSIwIiB5PSI2OSIgc3R5bGU9ImZpbGw6IzU1NkE4QTsiIHdpZHRoPSIxOS41IiBoZWlnaHQ9IjIuMjUiLz4mI3hhOwkJCQk8L2c+JiN4YTsJCQkJPGcgaWQ9InNoYXBlNzU0Mi0yMiIgdHJhbnNmb3JtPSJ0cmFuc2xhdGUoMTgsLTU4LjUpIj4mI3hhOwkJCQkJPHRpdGxlIGlkPSJ0aXRsZTUxMjMiPnJlY3QxNjM5ODwvdGl0bGU+JiN4YTsJCQkJCTxyZWN0IGlkPSJyZWN0NTEyNSIgeD0iMCIgeT0iNjkiIHN0eWxlPSJmaWxsOiM1NTZBOEE7IiB3aWR0aD0iMTkuNSIgaGVpZ2h0PSIyLjI1Ii8+JiN4YTsJCQkJPC9nPiYjeGE7CQkJPC9nPiYjeGE7CQkJPGcgaWQ9InNoYXBlNzU0My0yNCIgdHJhbnNmb3JtPSJ0cmFuc2xhdGUoMC43NSwtNTkuMjUpIj4mI3hhOwkJCQk8dGl0bGUgaWQ9InRpdGxlNTEyOSI+cmVjdDE2NDAyPC90aXRsZT4mI3hhOwkJCQk8cmVjdCBpZD0icmVjdDUxMzEiIHg9IjAiIHk9IjY5IiBzdHlsZT0iZmlsbDojNTU2QThBOyIgd2lkdGg9IjIuMjUiIGhlaWdodD0iMi4yNSIvPiYjeGE7CQkJPC9nPiYjeGE7CQkJPGcgaWQ9InNoYXBlNzU0NC0yNiIgdHJhbnNmb3JtPSJ0cmFuc2xhdGUoMC43NSwtNTQpIj4mI3hhOwkJCQk8dGl0bGUgaWQ9InRpdGxlNTEzNCI+cmVjdDE2NDA0PC90aXRsZT4mI3hhOwkJCQk8cmVjdCBpZD0icmVjdDUxMzYiIHg9IjAiIHk9IjY5IiBzdHlsZT0iZmlsbDojNTU2QThBOyIgd2lkdGg9IjIuMjUiIGhlaWdodD0iMi4yNSIvPiYjeGE7CQkJPC9nPiYjeGE7CQkJPGcgaWQ9InNoYXBlNzU0NS0yOCIgdHJhbnNmb3JtPSJ0cmFuc2xhdGUoMC43NSwtNDguNzUpIj4mI3hhOwkJCQk8dGl0bGUgaWQ9InRpdGxlNTEzOSI+cmVjdDE2NDA2PC90aXRsZT4mI3hhOwkJCQk8cmVjdCBpZD0icmVjdDUxNDEiIHg9IjAiIHk9IjY5IiBzdHlsZT0iZmlsbDojNTU2QThBOyIgd2lkdGg9IjIuMjUiIGhlaWdodD0iMi4yNSIvPiYjeGE7CQkJPC9nPiYjeGE7CQk8L2c+JiN4YTsJPC9nPiYjeGE7PC9nPiYjeGE7PC9zdmc+;" vertex="1" parent="1">
          <mxGeometry x="750" y="665" width="41" height="70" as="geometry" />
        </mxCell>
        <mxCell id="enrhANVjS56f6MEKnJ0g-35" value="中间件服务器1" style="shape=image;verticalLabelPosition=bottom;labelBackgroundColor=#ffffff;verticalAlign=top;aspect=fixed;imageAspect=0;image=data:image/svg+xml,PHN2ZyB4bWxuczpjYz0iaHR0cDovL2NyZWF0aXZlY29tbW9ucy5vcmcvbnMjIiB4bWxuczpkYz0iaHR0cDovL3B1cmwub3JnL2RjL2VsZW1lbnRzLzEuMS8iIHhtbG5zOmlua3NjYXBlPSJodHRwOi8vd3d3Lmlua3NjYXBlLm9yZy9uYW1lc3BhY2VzL2lua3NjYXBlIiB4bWxuczpyZGY9Imh0dHA6Ly93d3cudzMub3JnLzE5OTkvMDIvMjItcmRmLXN5bnRheC1ucyMiIHhtbG5zOnNvZGlwb2RpPSJodHRwOi8vc29kaXBvZGkuc291cmNlZm9yZ2UubmV0L0RURC9zb2RpcG9kaS0wLmR0ZCIgeG1sbnM6c3ZnPSJodHRwOi8vd3d3LnczLm9yZy8yMDAwL3N2ZyIgeG1sbnM9Imh0dHA6Ly93d3cudzMub3JnLzIwMDAvc3ZnIiB4bWxuczp4bGluaz0iaHR0cDovL3d3dy53My5vcmcvMTk5OS94bGluayIgdmVyc2lvbj0iMS4xIiBpZD0ic3ZnMTQzMzg3IiBpbmtzY2FwZTp2ZXJzaW9uPSIwLjkyLjMgKDI0MDU1NDYsIDIwMTgtMDMtMTEpIiBzb2RpcG9kaTpkb2NuYW1lPSJkYXRhYmFzZV9zZXJ2ZXIuc3ZnIiB4PSIwcHgiIHk9IjBweCIgdmlld0JveD0iMCAwIDYzLjA0IDc5LjQ5IiBzdHlsZT0iZW5hYmxlLWJhY2tncm91bmQ6bmV3IDAgMCA2My4wNCA3OS40OTsiIHhtbDpzcGFjZT0icHJlc2VydmUiPiYjeGE7PHNvZGlwb2RpOm5hbWVkdmlldyBib3JkZXJjb2xvcj0iIzY2NjY2NiIgYm9yZGVyb3BhY2l0eT0iMSIgZml0LW1hcmdpbi1ib3R0b209IjAiIGZpdC1tYXJnaW4tbGVmdD0iMCIgZml0LW1hcmdpbi1yaWdodD0iMCIgZml0LW1hcmdpbi10b3A9IjAiIGdyaWR0b2xlcmFuY2U9IjEwIiBndWlkZXRvbGVyYW5jZT0iMTAiIGlkPSJuYW1lZHZpZXcxNDMzODkiIGlua3NjYXBlOmN1cnJlbnQtbGF5ZXI9InN2ZzE0MzM4NyIgaW5rc2NhcGU6Y3g9IjQyLjAyOTk4NiIgaW5rc2NhcGU6Y3k9IjUyLjk5MTY0OCIgaW5rc2NhcGU6cGFnZW9wYWNpdHk9IjAiIGlua3NjYXBlOnBhZ2VzaGFkb3c9IjIiIGlua3NjYXBlOndpbmRvdy1oZWlnaHQ9IjEwMTciIGlua3NjYXBlOndpbmRvdy1tYXhpbWl6ZWQ9IjEiIGlua3NjYXBlOndpbmRvdy13aWR0aD0iMTkyMCIgaW5rc2NhcGU6d2luZG93LXg9Ii04IiBpbmtzY2FwZTp3aW5kb3cteT0iLTgiIGlua3NjYXBlOnpvb209IjguMDI4NDkxNSIgb2JqZWN0dG9sZXJhbmNlPSIxMCIgcGFnZWNvbG9yPSIjZmZmZmZmIiBzaG93Z3JpZD0iZmFsc2UiPiYjeGE7CTwvc29kaXBvZGk6bmFtZWR2aWV3PiYjeGE7PGcgaWQ9ImcxNDMzODUiIHRyYW5zZm9ybT0idHJhbnNsYXRlKC0wLjc1LC0wLjc1MDE2NjY1KSI+JiN4YTsJPHRpdGxlIGlkPSJ0aXRsZTE0MzI4NCI+UGFnZS0xPC90aXRsZT4mI3hhOwk8ZyBpZD0iZ3JvdXA3ODc0LTEiIHRyYW5zZm9ybT0idHJhbnNsYXRlKDEuNSwtMS41KSI+JiN4YTsJCTx0aXRsZSBpZD0idGl0bGUxNDMyODYiPkRhdGFiYXNlIFNlcnZlcjwvdGl0bGU+JiN4YTsJCTxnIGlkPSJncm91cDc4NzUtMiIgdHJhbnNmb3JtPSJ0cmFuc2xhdGUoMCwtOS43NDI1KSI+JiN4YTsJCQk8dGl0bGUgaWQ9InRpdGxlMTQzMjg4Ij5nMzExNC4yMTA4NDwvdGl0bGU+JiN4YTsJCQk8ZyBpZD0ic2hhcGU3ODc2LTMiPiYjeGE7CQkJCTx0aXRsZSBpZD0idGl0bGUxNDMyOTAiPnJlY3QzMDg2PC90aXRsZT4mI3hhOwkJCQkmI3hhOwkJCQkJPHJlY3QgaWQ9InJlY3QxNDMyOTIiIHk9IjEyLjc0IiBzdHlsZT0iZmlsbDojRkZGRkZGO3N0cm9rZTojNTU2QThBO3N0cm9rZS13aWR0aDoxLjU7c3Ryb2tlLW1pdGVybGltaXQ6MzsiIHdpZHRoPSIzOS43NSIgaGVpZ2h0PSI2OC4yNSIvPiYjeGE7CQkJPC9nPiYjeGE7CQkJPGcgaWQ9Imdyb3VwNzg3Ny01IiB0cmFuc2Zvcm09InRyYW5zbGF0ZSgxLjUsLTAuNzUpIj4mI3hhOwkJCQk8dGl0bGUgaWQ9InRpdGxlMTQzMjk1Ij5nMzEwNjwvdGl0bGU+JiN4YTsJCQkJPGcgaWQ9InNoYXBlNzg3OC02IiB0cmFuc2Zvcm09InRyYW5zbGF0ZSgxOCkiPiYjeGE7CQkJCQk8dGl0bGUgaWQ9InRpdGxlMTQzMjk3Ij5yZWN0MzA4ODwvdGl0bGU+JiN4YTsJCQkJCTxyZWN0IGlkPSJyZWN0MTQzMjk5IiB5PSIxNC4yNCIgc3R5bGU9ImZpbGw6I0U1RTVFNTsiIHdpZHRoPSIxOS41IiBoZWlnaHQ9IjY2Ljc1Ii8+JiN4YTsJCQkJPC9nPiYjeGE7CQkJCTxnIGlkPSJzaGFwZTc4NzktOCIgdHJhbnNmb3JtPSJ0cmFuc2xhdGUoMCwtNDgpIj4mI3hhOwkJCQkJPHRpdGxlIGlkPSJ0aXRsZTE0MzMwMiI+cmVjdDMwOTA8L3RpdGxlPiYjeGE7CQkJCQk8cmVjdCBpZD0icmVjdDE0MzMwNCIgeT0iNzguNzQiIHN0eWxlPSJmaWxsOiMyQkM3RjQ7IiB3aWR0aD0iMTgiIGhlaWdodD0iMi4yNSIvPiYjeGE7CQkJCTwvZz4mI3hhOwkJCQk8ZyBpZD0ic2hhcGU3ODgwLTEwIiB0cmFuc2Zvcm09InRyYW5zbGF0ZSgwLC01OC41KSI+JiN4YTsJCQkJCTx0aXRsZSBpZD0idGl0bGUxNDMzMDciPnBvbHlnb24zMDkyPC90aXRsZT4mI3hhOwkJCQkJPHJlY3QgaWQ9InJlY3QxNDMzMDkiIHk9Ijc4Ljc0IiBzdHlsZT0iZmlsbDpub25lOyIgd2lkdGg9IjI3IiBoZWlnaHQ9IjIuMjUiLz4mI3hhOwkJCQk8L2c+JiN4YTsJCQkJPGcgaWQ9InNoYXBlNzg4MS0xMiIgdHJhbnNmb3JtPSJ0cmFuc2xhdGUoMCwtNTguNSkiPiYjeGE7CQkJCQk8dGl0bGUgaWQ9InRpdGxlMTQzMzEyIj5wb2x5bGluZTMwOTQ8L3RpdGxlPiYjeGE7CQkJCQk8cmVjdCBpZD0icmVjdDE0MzMxNCIgeT0iNzguNzQiIHN0eWxlPSJmaWxsOm5vbmU7IiB3aWR0aD0iMjciIGhlaWdodD0iMi4yNSIvPiYjeGE7CQkJCTwvZz4mI3hhOwkJCQk8ZyBpZD0ic2hhcGU3ODgyLTE0IiB0cmFuc2Zvcm09InRyYW5zbGF0ZSgwLC01My4yNSkiPiYjeGE7CQkJCQk8dGl0bGUgaWQ9InRpdGxlMTQzMzE3Ij5yZWN0MzA5NjwvdGl0bGU+JiN4YTsJCQkJCTxyZWN0IGlkPSJyZWN0MTQzMzE5IiB5PSI3OC43NCIgc3R5bGU9ImZpbGw6IzJCQzdGNDsiIHdpZHRoPSIxOCIgaGVpZ2h0PSIyLjI1Ii8+JiN4YTsJCQkJPC9nPiYjeGE7CQkJCTxnIGlkPSJzaGFwZTc4ODMtMTYiIHRyYW5zZm9ybT0idHJhbnNsYXRlKDAsLTU4LjUpIj4mI3hhOwkJCQkJPHRpdGxlIGlkPSJ0aXRsZTE0MzMyMiI+cmVjdDMwOTg8L3RpdGxlPiYjeGE7CQkJCQk8cmVjdCBpZD0icmVjdDE0MzMyNCIgeT0iNzguNzQiIHN0eWxlPSJmaWxsOiMyQkM3RjQ7IiB3aWR0aD0iMTgiIGhlaWdodD0iMi4yNSIvPiYjeGE7CQkJCTwvZz4mI3hhOwkJCQk8ZyBpZD0ic2hhcGU3ODg0LTE4IiB0cmFuc2Zvcm09InRyYW5zbGF0ZSgxOCwtNDgpIj4mI3hhOwkJCQkJPHRpdGxlIGlkPSJ0aXRsZTE0MzMyNyI+cmVjdDMxMDA8L3RpdGxlPiYjeGE7CQkJCQk8cmVjdCBpZD0icmVjdDE0MzMyOSIgeT0iNzguNzQiIHN0eWxlPSJmaWxsOiM1NTZBOEE7IiB3aWR0aD0iMTkuNSIgaGVpZ2h0PSIyLjI1Ii8+JiN4YTsJCQkJPC9nPiYjeGE7CQkJCTxnIGlkPSJzaGFwZTc4ODUtMjAiIHRyYW5zZm9ybT0idHJhbnNsYXRlKDE4LC01My4yNSkiPiYjeGE7CQkJCQk8dGl0bGUgaWQ9InRpdGxlMTQzMzMyIj5yZWN0MzEwMjwvdGl0bGU+JiN4YTsJCQkJCTxyZWN0IGlkPSJyZWN0MTQzMzM0IiB5PSI3OC43NCIgc3R5bGU9ImZpbGw6IzU1NkE4QTsiIHdpZHRoPSIxOS41IiBoZWlnaHQ9IjIuMjUiLz4mI3hhOwkJCQk8L2c+JiN4YTsJCQkJPGcgaWQ9InNoYXBlNzg4Ni0yMiIgdHJhbnNmb3JtPSJ0cmFuc2xhdGUoMTgsLTU4LjUpIj4mI3hhOwkJCQkJPHRpdGxlIGlkPSJ0aXRsZTE0MzMzNyI+cmVjdDMxMDQ8L3RpdGxlPiYjeGE7CQkJCQk8cmVjdCBpZD0icmVjdDE0MzMzOSIgeT0iNzguNzQiIHN0eWxlPSJmaWxsOiM1NTZBOEE7IiB3aWR0aD0iMTkuNSIgaGVpZ2h0PSIyLjI1Ii8+JiN4YTsJCQkJPC9nPiYjeGE7CQkJPC9nPiYjeGE7CQkJPGcgaWQ9InNoYXBlNzg4Ny0yNCIgdHJhbnNmb3JtPSJ0cmFuc2xhdGUoMC43NSwtNTkuMjUpIj4mI3hhOwkJCQk8dGl0bGUgaWQ9InRpdGxlMTQzMzQzIj5yZWN0MzEwODwvdGl0bGU+JiN4YTsJCQkJPHJlY3QgaWQ9InJlY3QxNDMzNDUiIHk9Ijc4Ljc0IiBzdHlsZT0iZmlsbDojNTU2QThBOyIgd2lkdGg9IjIuMjUiIGhlaWdodD0iMi4yNSIvPiYjeGE7CQkJPC9nPiYjeGE7CQkJPGcgaWQ9InNoYXBlNzg4OC0yNiIgdHJhbnNmb3JtPSJ0cmFuc2xhdGUoMC43NSwtNTQpIj4mI3hhOwkJCQk8dGl0bGUgaWQ9InRpdGxlMTQzMzQ4Ij5yZWN0MzExMDwvdGl0bGU+JiN4YTsJCQkJPHJlY3QgaWQ9InJlY3QxNDMzNTAiIHk9Ijc4Ljc0IiBzdHlsZT0iZmlsbDojNTU2QThBOyIgd2lkdGg9IjIuMjUiIGhlaWdodD0iMi4yNSIvPiYjeGE7CQkJPC9nPiYjeGE7CQkJPGcgaWQ9InNoYXBlNzg4OS0yOCIgdHJhbnNmb3JtPSJ0cmFuc2xhdGUoMC43NSwtNDguNzUpIj4mI3hhOwkJCQk8dGl0bGUgaWQ9InRpdGxlMTQzMzUzIj5yZWN0MzExMjwvdGl0bGU+JiN4YTsJCQkJPHJlY3QgaWQ9InJlY3QxNDMzNTUiIHk9Ijc4Ljc0IiBzdHlsZT0iZmlsbDojNTU2QThBOyIgd2lkdGg9IjIuMjUiIGhlaWdodD0iMi4yNSIvPiYjeGE7CQkJPC9nPiYjeGE7CQk8L2c+JiN4YTsJCTxnIGlkPSJncm91cDc4OTAtMzAiIHRyYW5zZm9ybT0idHJhbnNsYXRlKDI2LjI1KSI+JiN4YTsJCQk8dGl0bGUgaWQ9InRpdGxlMTQzMzU5Ij5nMzEyNC4yMTA5OTwvdGl0bGU+JiN4YTsJCQk8ZyBpZD0ic2hhcGU3ODkxLTMxIj4mI3hhOwkJCQk8dGl0bGUgaWQ9InRpdGxlMTQzMzYxIj5wYXRoMzExNjwvdGl0bGU+JiN4YTsJCQkJPHBhdGggaWQ9InBhdGgxNDMzNjMiIGlua3NjYXBlOmNvbm5lY3Rvci1jdXJ2YXR1cmU9IjAiIHN0eWxlPSJmaWxsOiNGRkZGRkY7IiBkPSJNMzEuNzksNDAuODJsLTEwLjM1LDAuMDlMMCw0MS4wOXYzMy4zNSAgICAgIGMwLDMuNDIsNy41LDYuMzcsMTcuMjUsNi41NWgwLjM3YzEuMzIsMCwyLjYtMC4wNywzLjgyLTAuMTljMy41Ny0wLjIyLDcuMDgtMS4wNywxMC4zNS0yLjUzYzIuMTktMS4wOSwzLjQ2LTIuNDIsMy40Ni0zLjgzICAgICAgVjQwLjc5TDMxLjc5LDQwLjgyeiIvPiYjeGE7CQkJPC9nPiYjeGE7CQkJPGcgaWQ9InNoYXBlNzg5Mi0zMyIgdHJhbnNmb3JtPSJ0cmFuc2xhdGUoMjEuMTUsLTAuMTg3NSkiPiYjeGE7CQkJCTx0aXRsZSBpZD0idGl0bGUxNDMzNjYiPnBhdGgzMTE4PC90aXRsZT4mI3hhOwkJCQk8cGF0aCBpZD0icGF0aDE0MzM2OCIgaW5rc2NhcGU6Y29ubmVjdG9yLWN1cnZhdHVyZT0iMCIgc3R5bGU9ImZpbGw6I0U1RTVFNTsiIGQ9Ik0xMC4zNSw0MS4wMXYzNy40NSAgICAgIEM3LjA4LDc5LjkyLDMuNTcsODAuNzcsMCw4MC45OVY0MS4xTDEwLjM1LDQxLjAxeiIvPiYjeGE7CQkJPC9nPiYjeGE7CQkJPGcgaWQ9InNoYXBlNzg5My0zNSI+JiN4YTsJCQkJPHRpdGxlIGlkPSJ0aXRsZTE0MzM3MSI+cGF0aDMxMjA8L3RpdGxlPiYjeGE7CQkJCTxwYXRoIGlkPSJwYXRoMTQzMzczIiBpbmtzY2FwZTpjb25uZWN0b3ItY3VydmF0dXJlPSIwIiBzdHlsZT0iZmlsbDpub25lOyIgZD0iTTAsNDEuMDl2MzMuMzVjMCwzLjQyLDcuNDYsNi4zNywxNy4yNSw2LjU1aDAuMzcgICAgICBjOS45Ny0wLjExLDE3LjYzLTMuMDksMTcuNjMtNi41NVY0MC43OUwwLDQxLjA5eiIvPiYjeGE7CQkJCSYjeGE7CQkJCQk8cGF0aCBpZD0icGF0aDE0MzM3NSIgaW5rc2NhcGU6Y29ubmVjdG9yLWN1cnZhdHVyZT0iMCIgc3R5bGU9ImZpbGw6bm9uZTtzdHJva2U6IzU1NkE4QTtzdHJva2Utd2lkdGg6MS41O3N0cm9rZS1taXRlcmxpbWl0OjM7IiBkPSIgICAgICBNMCw0MS4wOXYzMy4zNWMwLDMuNDIsNy40Niw2LjM3LDE3LjI1LDYuNTVoMC4zN2M5Ljk3LTAuMTEsMTcuNjMtMy4wOSwxNy42My02LjU1VjQwLjc5Ii8+JiN4YTsJCQk8L2c+JiN4YTsJCQk8ZyBpZD0ic2hhcGU3ODk0LTM4IiB0cmFuc2Zvcm09InRyYW5zbGF0ZSgwLjA0NSwtMzMuNDQyNSkiPiYjeGE7CQkJCTx0aXRsZSBpZD0idGl0bGUxNDMzNzgiPnBhdGgzMTIyPC90aXRsZT4mI3hhOwkJCQkmI3hhOwkJCQkJPHBhdGggaWQ9InBhdGgxNDMzODAiIGlua3NjYXBlOmNvbm5lY3Rvci1jdXJ2YXR1cmU9IjAiIHN0eWxlPSJmaWxsOiNCQUQ4MEE7c3Ryb2tlOiM1NTZBOEE7c3Ryb2tlLXdpZHRoOjEuNTtzdHJva2UtbWl0ZXJsaW1pdDozOyIgZD0iICAgICAgTTM1LjI1LDc0LjYyYzAsMy41Mi03Ljg5LDYuMzctMTcuNjMsNi4zN0M3Ljg5LDgwLjk5LDAsNzguMTQsMCw3NC42MmMwLTMuNTEsOC4xMy02LjM2LDE3Ljg2LTYuMzYgICAgICBDMjcuNTgsNjguMjYsMzUuMjUsNzEuMTEsMzUuMjUsNzQuNjJ6Ii8+JiN4YTsJCQk8L2c+JiN4YTsJCTwvZz4mI3hhOwk8L2c+JiN4YTs8L2c+JiN4YTs8L3N2Zz4=;" vertex="1" parent="1">
          <mxGeometry x="1290" y="460" width="63" height="79" as="geometry" />
        </mxCell>
        <mxCell id="enrhANVjS56f6MEKnJ0g-36" value="中间件服务器2" style="shape=image;verticalLabelPosition=bottom;labelBackgroundColor=#ffffff;verticalAlign=top;aspect=fixed;imageAspect=0;image=data:image/svg+xml,PHN2ZyB4bWxuczpjYz0iaHR0cDovL2NyZWF0aXZlY29tbW9ucy5vcmcvbnMjIiB4bWxuczpkYz0iaHR0cDovL3B1cmwub3JnL2RjL2VsZW1lbnRzLzEuMS8iIHhtbG5zOmlua3NjYXBlPSJodHRwOi8vd3d3Lmlua3NjYXBlLm9yZy9uYW1lc3BhY2VzL2lua3NjYXBlIiB4bWxuczpyZGY9Imh0dHA6Ly93d3cudzMub3JnLzE5OTkvMDIvMjItcmRmLXN5bnRheC1ucyMiIHhtbG5zOnNvZGlwb2RpPSJodHRwOi8vc29kaXBvZGkuc291cmNlZm9yZ2UubmV0L0RURC9zb2RpcG9kaS0wLmR0ZCIgeG1sbnM6c3ZnPSJodHRwOi8vd3d3LnczLm9yZy8yMDAwL3N2ZyIgeG1sbnM9Imh0dHA6Ly93d3cudzMub3JnLzIwMDAvc3ZnIiB4bWxuczp4bGluaz0iaHR0cDovL3d3dy53My5vcmcvMTk5OS94bGluayIgdmVyc2lvbj0iMS4xIiBpZD0ic3ZnMTQzMzg3IiBpbmtzY2FwZTp2ZXJzaW9uPSIwLjkyLjMgKDI0MDU1NDYsIDIwMTgtMDMtMTEpIiBzb2RpcG9kaTpkb2NuYW1lPSJkYXRhYmFzZV9zZXJ2ZXIuc3ZnIiB4PSIwcHgiIHk9IjBweCIgdmlld0JveD0iMCAwIDYzLjA0IDc5LjQ5IiBzdHlsZT0iZW5hYmxlLWJhY2tncm91bmQ6bmV3IDAgMCA2My4wNCA3OS40OTsiIHhtbDpzcGFjZT0icHJlc2VydmUiPiYjeGE7PHNvZGlwb2RpOm5hbWVkdmlldyBib3JkZXJjb2xvcj0iIzY2NjY2NiIgYm9yZGVyb3BhY2l0eT0iMSIgZml0LW1hcmdpbi1ib3R0b209IjAiIGZpdC1tYXJnaW4tbGVmdD0iMCIgZml0LW1hcmdpbi1yaWdodD0iMCIgZml0LW1hcmdpbi10b3A9IjAiIGdyaWR0b2xlcmFuY2U9IjEwIiBndWlkZXRvbGVyYW5jZT0iMTAiIGlkPSJuYW1lZHZpZXcxNDMzODkiIGlua3NjYXBlOmN1cnJlbnQtbGF5ZXI9InN2ZzE0MzM4NyIgaW5rc2NhcGU6Y3g9IjQyLjAyOTk4NiIgaW5rc2NhcGU6Y3k9IjUyLjk5MTY0OCIgaW5rc2NhcGU6cGFnZW9wYWNpdHk9IjAiIGlua3NjYXBlOnBhZ2VzaGFkb3c9IjIiIGlua3NjYXBlOndpbmRvdy1oZWlnaHQ9IjEwMTciIGlua3NjYXBlOndpbmRvdy1tYXhpbWl6ZWQ9IjEiIGlua3NjYXBlOndpbmRvdy13aWR0aD0iMTkyMCIgaW5rc2NhcGU6d2luZG93LXg9Ii04IiBpbmtzY2FwZTp3aW5kb3cteT0iLTgiIGlua3NjYXBlOnpvb209IjguMDI4NDkxNSIgb2JqZWN0dG9sZXJhbmNlPSIxMCIgcGFnZWNvbG9yPSIjZmZmZmZmIiBzaG93Z3JpZD0iZmFsc2UiPiYjeGE7CTwvc29kaXBvZGk6bmFtZWR2aWV3PiYjeGE7PGcgaWQ9ImcxNDMzODUiIHRyYW5zZm9ybT0idHJhbnNsYXRlKC0wLjc1LC0wLjc1MDE2NjY1KSI+JiN4YTsJPHRpdGxlIGlkPSJ0aXRsZTE0MzI4NCI+UGFnZS0xPC90aXRsZT4mI3hhOwk8ZyBpZD0iZ3JvdXA3ODc0LTEiIHRyYW5zZm9ybT0idHJhbnNsYXRlKDEuNSwtMS41KSI+JiN4YTsJCTx0aXRsZSBpZD0idGl0bGUxNDMyODYiPkRhdGFiYXNlIFNlcnZlcjwvdGl0bGU+JiN4YTsJCTxnIGlkPSJncm91cDc4NzUtMiIgdHJhbnNmb3JtPSJ0cmFuc2xhdGUoMCwtOS43NDI1KSI+JiN4YTsJCQk8dGl0bGUgaWQ9InRpdGxlMTQzMjg4Ij5nMzExNC4yMTA4NDwvdGl0bGU+JiN4YTsJCQk8ZyBpZD0ic2hhcGU3ODc2LTMiPiYjeGE7CQkJCTx0aXRsZSBpZD0idGl0bGUxNDMyOTAiPnJlY3QzMDg2PC90aXRsZT4mI3hhOwkJCQkmI3hhOwkJCQkJPHJlY3QgaWQ9InJlY3QxNDMyOTIiIHk9IjEyLjc0IiBzdHlsZT0iZmlsbDojRkZGRkZGO3N0cm9rZTojNTU2QThBO3N0cm9rZS13aWR0aDoxLjU7c3Ryb2tlLW1pdGVybGltaXQ6MzsiIHdpZHRoPSIzOS43NSIgaGVpZ2h0PSI2OC4yNSIvPiYjeGE7CQkJPC9nPiYjeGE7CQkJPGcgaWQ9Imdyb3VwNzg3Ny01IiB0cmFuc2Zvcm09InRyYW5zbGF0ZSgxLjUsLTAuNzUpIj4mI3hhOwkJCQk8dGl0bGUgaWQ9InRpdGxlMTQzMjk1Ij5nMzEwNjwvdGl0bGU+JiN4YTsJCQkJPGcgaWQ9InNoYXBlNzg3OC02IiB0cmFuc2Zvcm09InRyYW5zbGF0ZSgxOCkiPiYjeGE7CQkJCQk8dGl0bGUgaWQ9InRpdGxlMTQzMjk3Ij5yZWN0MzA4ODwvdGl0bGU+JiN4YTsJCQkJCTxyZWN0IGlkPSJyZWN0MTQzMjk5IiB5PSIxNC4yNCIgc3R5bGU9ImZpbGw6I0U1RTVFNTsiIHdpZHRoPSIxOS41IiBoZWlnaHQ9IjY2Ljc1Ii8+JiN4YTsJCQkJPC9nPiYjeGE7CQkJCTxnIGlkPSJzaGFwZTc4NzktOCIgdHJhbnNmb3JtPSJ0cmFuc2xhdGUoMCwtNDgpIj4mI3hhOwkJCQkJPHRpdGxlIGlkPSJ0aXRsZTE0MzMwMiI+cmVjdDMwOTA8L3RpdGxlPiYjeGE7CQkJCQk8cmVjdCBpZD0icmVjdDE0MzMwNCIgeT0iNzguNzQiIHN0eWxlPSJmaWxsOiMyQkM3RjQ7IiB3aWR0aD0iMTgiIGhlaWdodD0iMi4yNSIvPiYjeGE7CQkJCTwvZz4mI3hhOwkJCQk8ZyBpZD0ic2hhcGU3ODgwLTEwIiB0cmFuc2Zvcm09InRyYW5zbGF0ZSgwLC01OC41KSI+JiN4YTsJCQkJCTx0aXRsZSBpZD0idGl0bGUxNDMzMDciPnBvbHlnb24zMDkyPC90aXRsZT4mI3hhOwkJCQkJPHJlY3QgaWQ9InJlY3QxNDMzMDkiIHk9Ijc4Ljc0IiBzdHlsZT0iZmlsbDpub25lOyIgd2lkdGg9IjI3IiBoZWlnaHQ9IjIuMjUiLz4mI3hhOwkJCQk8L2c+JiN4YTsJCQkJPGcgaWQ9InNoYXBlNzg4MS0xMiIgdHJhbnNmb3JtPSJ0cmFuc2xhdGUoMCwtNTguNSkiPiYjeGE7CQkJCQk8dGl0bGUgaWQ9InRpdGxlMTQzMzEyIj5wb2x5bGluZTMwOTQ8L3RpdGxlPiYjeGE7CQkJCQk8cmVjdCBpZD0icmVjdDE0MzMxNCIgeT0iNzguNzQiIHN0eWxlPSJmaWxsOm5vbmU7IiB3aWR0aD0iMjciIGhlaWdodD0iMi4yNSIvPiYjeGE7CQkJCTwvZz4mI3hhOwkJCQk8ZyBpZD0ic2hhcGU3ODgyLTE0IiB0cmFuc2Zvcm09InRyYW5zbGF0ZSgwLC01My4yNSkiPiYjeGE7CQkJCQk8dGl0bGUgaWQ9InRpdGxlMTQzMzE3Ij5yZWN0MzA5NjwvdGl0bGU+JiN4YTsJCQkJCTxyZWN0IGlkPSJyZWN0MTQzMzE5IiB5PSI3OC43NCIgc3R5bGU9ImZpbGw6IzJCQzdGNDsiIHdpZHRoPSIxOCIgaGVpZ2h0PSIyLjI1Ii8+JiN4YTsJCQkJPC9nPiYjeGE7CQkJCTxnIGlkPSJzaGFwZTc4ODMtMTYiIHRyYW5zZm9ybT0idHJhbnNsYXRlKDAsLTU4LjUpIj4mI3hhOwkJCQkJPHRpdGxlIGlkPSJ0aXRsZTE0MzMyMiI+cmVjdDMwOTg8L3RpdGxlPiYjeGE7CQkJCQk8cmVjdCBpZD0icmVjdDE0MzMyNCIgeT0iNzguNzQiIHN0eWxlPSJmaWxsOiMyQkM3RjQ7IiB3aWR0aD0iMTgiIGhlaWdodD0iMi4yNSIvPiYjeGE7CQkJCTwvZz4mI3hhOwkJCQk8ZyBpZD0ic2hhcGU3ODg0LTE4IiB0cmFuc2Zvcm09InRyYW5zbGF0ZSgxOCwtNDgpIj4mI3hhOwkJCQkJPHRpdGxlIGlkPSJ0aXRsZTE0MzMyNyI+cmVjdDMxMDA8L3RpdGxlPiYjeGE7CQkJCQk8cmVjdCBpZD0icmVjdDE0MzMyOSIgeT0iNzguNzQiIHN0eWxlPSJmaWxsOiM1NTZBOEE7IiB3aWR0aD0iMTkuNSIgaGVpZ2h0PSIyLjI1Ii8+JiN4YTsJCQkJPC9nPiYjeGE7CQkJCTxnIGlkPSJzaGFwZTc4ODUtMjAiIHRyYW5zZm9ybT0idHJhbnNsYXRlKDE4LC01My4yNSkiPiYjeGE7CQkJCQk8dGl0bGUgaWQ9InRpdGxlMTQzMzMyIj5yZWN0MzEwMjwvdGl0bGU+JiN4YTsJCQkJCTxyZWN0IGlkPSJyZWN0MTQzMzM0IiB5PSI3OC43NCIgc3R5bGU9ImZpbGw6IzU1NkE4QTsiIHdpZHRoPSIxOS41IiBoZWlnaHQ9IjIuMjUiLz4mI3hhOwkJCQk8L2c+JiN4YTsJCQkJPGcgaWQ9InNoYXBlNzg4Ni0yMiIgdHJhbnNmb3JtPSJ0cmFuc2xhdGUoMTgsLTU4LjUpIj4mI3hhOwkJCQkJPHRpdGxlIGlkPSJ0aXRsZTE0MzMzNyI+cmVjdDMxMDQ8L3RpdGxlPiYjeGE7CQkJCQk8cmVjdCBpZD0icmVjdDE0MzMzOSIgeT0iNzguNzQiIHN0eWxlPSJmaWxsOiM1NTZBOEE7IiB3aWR0aD0iMTkuNSIgaGVpZ2h0PSIyLjI1Ii8+JiN4YTsJCQkJPC9nPiYjeGE7CQkJPC9nPiYjeGE7CQkJPGcgaWQ9InNoYXBlNzg4Ny0yNCIgdHJhbnNmb3JtPSJ0cmFuc2xhdGUoMC43NSwtNTkuMjUpIj4mI3hhOwkJCQk8dGl0bGUgaWQ9InRpdGxlMTQzMzQzIj5yZWN0MzEwODwvdGl0bGU+JiN4YTsJCQkJPHJlY3QgaWQ9InJlY3QxNDMzNDUiIHk9Ijc4Ljc0IiBzdHlsZT0iZmlsbDojNTU2QThBOyIgd2lkdGg9IjIuMjUiIGhlaWdodD0iMi4yNSIvPiYjeGE7CQkJPC9nPiYjeGE7CQkJPGcgaWQ9InNoYXBlNzg4OC0yNiIgdHJhbnNmb3JtPSJ0cmFuc2xhdGUoMC43NSwtNTQpIj4mI3hhOwkJCQk8dGl0bGUgaWQ9InRpdGxlMTQzMzQ4Ij5yZWN0MzExMDwvdGl0bGU+JiN4YTsJCQkJPHJlY3QgaWQ9InJlY3QxNDMzNTAiIHk9Ijc4Ljc0IiBzdHlsZT0iZmlsbDojNTU2QThBOyIgd2lkdGg9IjIuMjUiIGhlaWdodD0iMi4yNSIvPiYjeGE7CQkJPC9nPiYjeGE7CQkJPGcgaWQ9InNoYXBlNzg4OS0yOCIgdHJhbnNmb3JtPSJ0cmFuc2xhdGUoMC43NSwtNDguNzUpIj4mI3hhOwkJCQk8dGl0bGUgaWQ9InRpdGxlMTQzMzUzIj5yZWN0MzExMjwvdGl0bGU+JiN4YTsJCQkJPHJlY3QgaWQ9InJlY3QxNDMzNTUiIHk9Ijc4Ljc0IiBzdHlsZT0iZmlsbDojNTU2QThBOyIgd2lkdGg9IjIuMjUiIGhlaWdodD0iMi4yNSIvPiYjeGE7CQkJPC9nPiYjeGE7CQk8L2c+JiN4YTsJCTxnIGlkPSJncm91cDc4OTAtMzAiIHRyYW5zZm9ybT0idHJhbnNsYXRlKDI2LjI1KSI+JiN4YTsJCQk8dGl0bGUgaWQ9InRpdGxlMTQzMzU5Ij5nMzEyNC4yMTA5OTwvdGl0bGU+JiN4YTsJCQk8ZyBpZD0ic2hhcGU3ODkxLTMxIj4mI3hhOwkJCQk8dGl0bGUgaWQ9InRpdGxlMTQzMzYxIj5wYXRoMzExNjwvdGl0bGU+JiN4YTsJCQkJPHBhdGggaWQ9InBhdGgxNDMzNjMiIGlua3NjYXBlOmNvbm5lY3Rvci1jdXJ2YXR1cmU9IjAiIHN0eWxlPSJmaWxsOiNGRkZGRkY7IiBkPSJNMzEuNzksNDAuODJsLTEwLjM1LDAuMDlMMCw0MS4wOXYzMy4zNSAgICAgIGMwLDMuNDIsNy41LDYuMzcsMTcuMjUsNi41NWgwLjM3YzEuMzIsMCwyLjYtMC4wNywzLjgyLTAuMTljMy41Ny0wLjIyLDcuMDgtMS4wNywxMC4zNS0yLjUzYzIuMTktMS4wOSwzLjQ2LTIuNDIsMy40Ni0zLjgzICAgICAgVjQwLjc5TDMxLjc5LDQwLjgyeiIvPiYjeGE7CQkJPC9nPiYjeGE7CQkJPGcgaWQ9InNoYXBlNzg5Mi0zMyIgdHJhbnNmb3JtPSJ0cmFuc2xhdGUoMjEuMTUsLTAuMTg3NSkiPiYjeGE7CQkJCTx0aXRsZSBpZD0idGl0bGUxNDMzNjYiPnBhdGgzMTE4PC90aXRsZT4mI3hhOwkJCQk8cGF0aCBpZD0icGF0aDE0MzM2OCIgaW5rc2NhcGU6Y29ubmVjdG9yLWN1cnZhdHVyZT0iMCIgc3R5bGU9ImZpbGw6I0U1RTVFNTsiIGQ9Ik0xMC4zNSw0MS4wMXYzNy40NSAgICAgIEM3LjA4LDc5LjkyLDMuNTcsODAuNzcsMCw4MC45OVY0MS4xTDEwLjM1LDQxLjAxeiIvPiYjeGE7CQkJPC9nPiYjeGE7CQkJPGcgaWQ9InNoYXBlNzg5My0zNSI+JiN4YTsJCQkJPHRpdGxlIGlkPSJ0aXRsZTE0MzM3MSI+cGF0aDMxMjA8L3RpdGxlPiYjeGE7CQkJCTxwYXRoIGlkPSJwYXRoMTQzMzczIiBpbmtzY2FwZTpjb25uZWN0b3ItY3VydmF0dXJlPSIwIiBzdHlsZT0iZmlsbDpub25lOyIgZD0iTTAsNDEuMDl2MzMuMzVjMCwzLjQyLDcuNDYsNi4zNywxNy4yNSw2LjU1aDAuMzcgICAgICBjOS45Ny0wLjExLDE3LjYzLTMuMDksMTcuNjMtNi41NVY0MC43OUwwLDQxLjA5eiIvPiYjeGE7CQkJCSYjeGE7CQkJCQk8cGF0aCBpZD0icGF0aDE0MzM3NSIgaW5rc2NhcGU6Y29ubmVjdG9yLWN1cnZhdHVyZT0iMCIgc3R5bGU9ImZpbGw6bm9uZTtzdHJva2U6IzU1NkE4QTtzdHJva2Utd2lkdGg6MS41O3N0cm9rZS1taXRlcmxpbWl0OjM7IiBkPSIgICAgICBNMCw0MS4wOXYzMy4zNWMwLDMuNDIsNy40Niw2LjM3LDE3LjI1LDYuNTVoMC4zN2M5Ljk3LTAuMTEsMTcuNjMtMy4wOSwxNy42My02LjU1VjQwLjc5Ii8+JiN4YTsJCQk8L2c+JiN4YTsJCQk8ZyBpZD0ic2hhcGU3ODk0LTM4IiB0cmFuc2Zvcm09InRyYW5zbGF0ZSgwLjA0NSwtMzMuNDQyNSkiPiYjeGE7CQkJCTx0aXRsZSBpZD0idGl0bGUxNDMzNzgiPnBhdGgzMTIyPC90aXRsZT4mI3hhOwkJCQkmI3hhOwkJCQkJPHBhdGggaWQ9InBhdGgxNDMzODAiIGlua3NjYXBlOmNvbm5lY3Rvci1jdXJ2YXR1cmU9IjAiIHN0eWxlPSJmaWxsOiNCQUQ4MEE7c3Ryb2tlOiM1NTZBOEE7c3Ryb2tlLXdpZHRoOjEuNTtzdHJva2UtbWl0ZXJsaW1pdDozOyIgZD0iICAgICAgTTM1LjI1LDc0LjYyYzAsMy41Mi03Ljg5LDYuMzctMTcuNjMsNi4zN0M3Ljg5LDgwLjk5LDAsNzguMTQsMCw3NC42MmMwLTMuNTEsOC4xMy02LjM2LDE3Ljg2LTYuMzYgICAgICBDMjcuNTgsNjguMjYsMzUuMjUsNzEuMTEsMzUuMjUsNzQuNjJ6Ii8+JiN4YTsJCQk8L2c+JiN4YTsJCTwvZz4mI3hhOwk8L2c+JiN4YTs8L2c+JiN4YTs8L3N2Zz4=;" vertex="1" parent="1">
          <mxGeometry x="1290" y="650" width="63" height="79" as="geometry" />
        </mxCell>
        <mxCell id="enrhANVjS56f6MEKnJ0g-37" value="中间件服务器3" style="shape=image;verticalLabelPosition=bottom;labelBackgroundColor=#ffffff;verticalAlign=top;aspect=fixed;imageAspect=0;image=data:image/svg+xml,PHN2ZyB4bWxuczpjYz0iaHR0cDovL2NyZWF0aXZlY29tbW9ucy5vcmcvbnMjIiB4bWxuczpkYz0iaHR0cDovL3B1cmwub3JnL2RjL2VsZW1lbnRzLzEuMS8iIHhtbG5zOmlua3NjYXBlPSJodHRwOi8vd3d3Lmlua3NjYXBlLm9yZy9uYW1lc3BhY2VzL2lua3NjYXBlIiB4bWxuczpyZGY9Imh0dHA6Ly93d3cudzMub3JnLzE5OTkvMDIvMjItcmRmLXN5bnRheC1ucyMiIHhtbG5zOnNvZGlwb2RpPSJodHRwOi8vc29kaXBvZGkuc291cmNlZm9yZ2UubmV0L0RURC9zb2RpcG9kaS0wLmR0ZCIgeG1sbnM6c3ZnPSJodHRwOi8vd3d3LnczLm9yZy8yMDAwL3N2ZyIgeG1sbnM9Imh0dHA6Ly93d3cudzMub3JnLzIwMDAvc3ZnIiB4bWxuczp4bGluaz0iaHR0cDovL3d3dy53My5vcmcvMTk5OS94bGluayIgdmVyc2lvbj0iMS4xIiBpZD0ic3ZnMTQzMzg3IiBpbmtzY2FwZTp2ZXJzaW9uPSIwLjkyLjMgKDI0MDU1NDYsIDIwMTgtMDMtMTEpIiBzb2RpcG9kaTpkb2NuYW1lPSJkYXRhYmFzZV9zZXJ2ZXIuc3ZnIiB4PSIwcHgiIHk9IjBweCIgdmlld0JveD0iMCAwIDYzLjA0IDc5LjQ5IiBzdHlsZT0iZW5hYmxlLWJhY2tncm91bmQ6bmV3IDAgMCA2My4wNCA3OS40OTsiIHhtbDpzcGFjZT0icHJlc2VydmUiPiYjeGE7PHNvZGlwb2RpOm5hbWVkdmlldyBib3JkZXJjb2xvcj0iIzY2NjY2NiIgYm9yZGVyb3BhY2l0eT0iMSIgZml0LW1hcmdpbi1ib3R0b209IjAiIGZpdC1tYXJnaW4tbGVmdD0iMCIgZml0LW1hcmdpbi1yaWdodD0iMCIgZml0LW1hcmdpbi10b3A9IjAiIGdyaWR0b2xlcmFuY2U9IjEwIiBndWlkZXRvbGVyYW5jZT0iMTAiIGlkPSJuYW1lZHZpZXcxNDMzODkiIGlua3NjYXBlOmN1cnJlbnQtbGF5ZXI9InN2ZzE0MzM4NyIgaW5rc2NhcGU6Y3g9IjQyLjAyOTk4NiIgaW5rc2NhcGU6Y3k9IjUyLjk5MTY0OCIgaW5rc2NhcGU6cGFnZW9wYWNpdHk9IjAiIGlua3NjYXBlOnBhZ2VzaGFkb3c9IjIiIGlua3NjYXBlOndpbmRvdy1oZWlnaHQ9IjEwMTciIGlua3NjYXBlOndpbmRvdy1tYXhpbWl6ZWQ9IjEiIGlua3NjYXBlOndpbmRvdy13aWR0aD0iMTkyMCIgaW5rc2NhcGU6d2luZG93LXg9Ii04IiBpbmtzY2FwZTp3aW5kb3cteT0iLTgiIGlua3NjYXBlOnpvb209IjguMDI4NDkxNSIgb2JqZWN0dG9sZXJhbmNlPSIxMCIgcGFnZWNvbG9yPSIjZmZmZmZmIiBzaG93Z3JpZD0iZmFsc2UiPiYjeGE7CTwvc29kaXBvZGk6bmFtZWR2aWV3PiYjeGE7PGcgaWQ9ImcxNDMzODUiIHRyYW5zZm9ybT0idHJhbnNsYXRlKC0wLjc1LC0wLjc1MDE2NjY1KSI+JiN4YTsJPHRpdGxlIGlkPSJ0aXRsZTE0MzI4NCI+UGFnZS0xPC90aXRsZT4mI3hhOwk8ZyBpZD0iZ3JvdXA3ODc0LTEiIHRyYW5zZm9ybT0idHJhbnNsYXRlKDEuNSwtMS41KSI+JiN4YTsJCTx0aXRsZSBpZD0idGl0bGUxNDMyODYiPkRhdGFiYXNlIFNlcnZlcjwvdGl0bGU+JiN4YTsJCTxnIGlkPSJncm91cDc4NzUtMiIgdHJhbnNmb3JtPSJ0cmFuc2xhdGUoMCwtOS43NDI1KSI+JiN4YTsJCQk8dGl0bGUgaWQ9InRpdGxlMTQzMjg4Ij5nMzExNC4yMTA4NDwvdGl0bGU+JiN4YTsJCQk8ZyBpZD0ic2hhcGU3ODc2LTMiPiYjeGE7CQkJCTx0aXRsZSBpZD0idGl0bGUxNDMyOTAiPnJlY3QzMDg2PC90aXRsZT4mI3hhOwkJCQkmI3hhOwkJCQkJPHJlY3QgaWQ9InJlY3QxNDMyOTIiIHk9IjEyLjc0IiBzdHlsZT0iZmlsbDojRkZGRkZGO3N0cm9rZTojNTU2QThBO3N0cm9rZS13aWR0aDoxLjU7c3Ryb2tlLW1pdGVybGltaXQ6MzsiIHdpZHRoPSIzOS43NSIgaGVpZ2h0PSI2OC4yNSIvPiYjeGE7CQkJPC9nPiYjeGE7CQkJPGcgaWQ9Imdyb3VwNzg3Ny01IiB0cmFuc2Zvcm09InRyYW5zbGF0ZSgxLjUsLTAuNzUpIj4mI3hhOwkJCQk8dGl0bGUgaWQ9InRpdGxlMTQzMjk1Ij5nMzEwNjwvdGl0bGU+JiN4YTsJCQkJPGcgaWQ9InNoYXBlNzg3OC02IiB0cmFuc2Zvcm09InRyYW5zbGF0ZSgxOCkiPiYjeGE7CQkJCQk8dGl0bGUgaWQ9InRpdGxlMTQzMjk3Ij5yZWN0MzA4ODwvdGl0bGU+JiN4YTsJCQkJCTxyZWN0IGlkPSJyZWN0MTQzMjk5IiB5PSIxNC4yNCIgc3R5bGU9ImZpbGw6I0U1RTVFNTsiIHdpZHRoPSIxOS41IiBoZWlnaHQ9IjY2Ljc1Ii8+JiN4YTsJCQkJPC9nPiYjeGE7CQkJCTxnIGlkPSJzaGFwZTc4NzktOCIgdHJhbnNmb3JtPSJ0cmFuc2xhdGUoMCwtNDgpIj4mI3hhOwkJCQkJPHRpdGxlIGlkPSJ0aXRsZTE0MzMwMiI+cmVjdDMwOTA8L3RpdGxlPiYjeGE7CQkJCQk8cmVjdCBpZD0icmVjdDE0MzMwNCIgeT0iNzguNzQiIHN0eWxlPSJmaWxsOiMyQkM3RjQ7IiB3aWR0aD0iMTgiIGhlaWdodD0iMi4yNSIvPiYjeGE7CQkJCTwvZz4mI3hhOwkJCQk8ZyBpZD0ic2hhcGU3ODgwLTEwIiB0cmFuc2Zvcm09InRyYW5zbGF0ZSgwLC01OC41KSI+JiN4YTsJCQkJCTx0aXRsZSBpZD0idGl0bGUxNDMzMDciPnBvbHlnb24zMDkyPC90aXRsZT4mI3hhOwkJCQkJPHJlY3QgaWQ9InJlY3QxNDMzMDkiIHk9Ijc4Ljc0IiBzdHlsZT0iZmlsbDpub25lOyIgd2lkdGg9IjI3IiBoZWlnaHQ9IjIuMjUiLz4mI3hhOwkJCQk8L2c+JiN4YTsJCQkJPGcgaWQ9InNoYXBlNzg4MS0xMiIgdHJhbnNmb3JtPSJ0cmFuc2xhdGUoMCwtNTguNSkiPiYjeGE7CQkJCQk8dGl0bGUgaWQ9InRpdGxlMTQzMzEyIj5wb2x5bGluZTMwOTQ8L3RpdGxlPiYjeGE7CQkJCQk8cmVjdCBpZD0icmVjdDE0MzMxNCIgeT0iNzguNzQiIHN0eWxlPSJmaWxsOm5vbmU7IiB3aWR0aD0iMjciIGhlaWdodD0iMi4yNSIvPiYjeGE7CQkJCTwvZz4mI3hhOwkJCQk8ZyBpZD0ic2hhcGU3ODgyLTE0IiB0cmFuc2Zvcm09InRyYW5zbGF0ZSgwLC01My4yNSkiPiYjeGE7CQkJCQk8dGl0bGUgaWQ9InRpdGxlMTQzMzE3Ij5yZWN0MzA5NjwvdGl0bGU+JiN4YTsJCQkJCTxyZWN0IGlkPSJyZWN0MTQzMzE5IiB5PSI3OC43NCIgc3R5bGU9ImZpbGw6IzJCQzdGNDsiIHdpZHRoPSIxOCIgaGVpZ2h0PSIyLjI1Ii8+JiN4YTsJCQkJPC9nPiYjeGE7CQkJCTxnIGlkPSJzaGFwZTc4ODMtMTYiIHRyYW5zZm9ybT0idHJhbnNsYXRlKDAsLTU4LjUpIj4mI3hhOwkJCQkJPHRpdGxlIGlkPSJ0aXRsZTE0MzMyMiI+cmVjdDMwOTg8L3RpdGxlPiYjeGE7CQkJCQk8cmVjdCBpZD0icmVjdDE0MzMyNCIgeT0iNzguNzQiIHN0eWxlPSJmaWxsOiMyQkM3RjQ7IiB3aWR0aD0iMTgiIGhlaWdodD0iMi4yNSIvPiYjeGE7CQkJCTwvZz4mI3hhOwkJCQk8ZyBpZD0ic2hhcGU3ODg0LTE4IiB0cmFuc2Zvcm09InRyYW5zbGF0ZSgxOCwtNDgpIj4mI3hhOwkJCQkJPHRpdGxlIGlkPSJ0aXRsZTE0MzMyNyI+cmVjdDMxMDA8L3RpdGxlPiYjeGE7CQkJCQk8cmVjdCBpZD0icmVjdDE0MzMyOSIgeT0iNzguNzQiIHN0eWxlPSJmaWxsOiM1NTZBOEE7IiB3aWR0aD0iMTkuNSIgaGVpZ2h0PSIyLjI1Ii8+JiN4YTsJCQkJPC9nPiYjeGE7CQkJCTxnIGlkPSJzaGFwZTc4ODUtMjAiIHRyYW5zZm9ybT0idHJhbnNsYXRlKDE4LC01My4yNSkiPiYjeGE7CQkJCQk8dGl0bGUgaWQ9InRpdGxlMTQzMzMyIj5yZWN0MzEwMjwvdGl0bGU+JiN4YTsJCQkJCTxyZWN0IGlkPSJyZWN0MTQzMzM0IiB5PSI3OC43NCIgc3R5bGU9ImZpbGw6IzU1NkE4QTsiIHdpZHRoPSIxOS41IiBoZWlnaHQ9IjIuMjUiLz4mI3hhOwkJCQk8L2c+JiN4YTsJCQkJPGcgaWQ9InNoYXBlNzg4Ni0yMiIgdHJhbnNmb3JtPSJ0cmFuc2xhdGUoMTgsLTU4LjUpIj4mI3hhOwkJCQkJPHRpdGxlIGlkPSJ0aXRsZTE0MzMzNyI+cmVjdDMxMDQ8L3RpdGxlPiYjeGE7CQkJCQk8cmVjdCBpZD0icmVjdDE0MzMzOSIgeT0iNzguNzQiIHN0eWxlPSJmaWxsOiM1NTZBOEE7IiB3aWR0aD0iMTkuNSIgaGVpZ2h0PSIyLjI1Ii8+JiN4YTsJCQkJPC9nPiYjeGE7CQkJPC9nPiYjeGE7CQkJPGcgaWQ9InNoYXBlNzg4Ny0yNCIgdHJhbnNmb3JtPSJ0cmFuc2xhdGUoMC43NSwtNTkuMjUpIj4mI3hhOwkJCQk8dGl0bGUgaWQ9InRpdGxlMTQzMzQzIj5yZWN0MzEwODwvdGl0bGU+JiN4YTsJCQkJPHJlY3QgaWQ9InJlY3QxNDMzNDUiIHk9Ijc4Ljc0IiBzdHlsZT0iZmlsbDojNTU2QThBOyIgd2lkdGg9IjIuMjUiIGhlaWdodD0iMi4yNSIvPiYjeGE7CQkJPC9nPiYjeGE7CQkJPGcgaWQ9InNoYXBlNzg4OC0yNiIgdHJhbnNmb3JtPSJ0cmFuc2xhdGUoMC43NSwtNTQpIj4mI3hhOwkJCQk8dGl0bGUgaWQ9InRpdGxlMTQzMzQ4Ij5yZWN0MzExMDwvdGl0bGU+JiN4YTsJCQkJPHJlY3QgaWQ9InJlY3QxNDMzNTAiIHk9Ijc4Ljc0IiBzdHlsZT0iZmlsbDojNTU2QThBOyIgd2lkdGg9IjIuMjUiIGhlaWdodD0iMi4yNSIvPiYjeGE7CQkJPC9nPiYjeGE7CQkJPGcgaWQ9InNoYXBlNzg4OS0yOCIgdHJhbnNmb3JtPSJ0cmFuc2xhdGUoMC43NSwtNDguNzUpIj4mI3hhOwkJCQk8dGl0bGUgaWQ9InRpdGxlMTQzMzUzIj5yZWN0MzExMjwvdGl0bGU+JiN4YTsJCQkJPHJlY3QgaWQ9InJlY3QxNDMzNTUiIHk9Ijc4Ljc0IiBzdHlsZT0iZmlsbDojNTU2QThBOyIgd2lkdGg9IjIuMjUiIGhlaWdodD0iMi4yNSIvPiYjeGE7CQkJPC9nPiYjeGE7CQk8L2c+JiN4YTsJCTxnIGlkPSJncm91cDc4OTAtMzAiIHRyYW5zZm9ybT0idHJhbnNsYXRlKDI2LjI1KSI+JiN4YTsJCQk8dGl0bGUgaWQ9InRpdGxlMTQzMzU5Ij5nMzEyNC4yMTA5OTwvdGl0bGU+JiN4YTsJCQk8ZyBpZD0ic2hhcGU3ODkxLTMxIj4mI3hhOwkJCQk8dGl0bGUgaWQ9InRpdGxlMTQzMzYxIj5wYXRoMzExNjwvdGl0bGU+JiN4YTsJCQkJPHBhdGggaWQ9InBhdGgxNDMzNjMiIGlua3NjYXBlOmNvbm5lY3Rvci1jdXJ2YXR1cmU9IjAiIHN0eWxlPSJmaWxsOiNGRkZGRkY7IiBkPSJNMzEuNzksNDAuODJsLTEwLjM1LDAuMDlMMCw0MS4wOXYzMy4zNSAgICAgIGMwLDMuNDIsNy41LDYuMzcsMTcuMjUsNi41NWgwLjM3YzEuMzIsMCwyLjYtMC4wNywzLjgyLTAuMTljMy41Ny0wLjIyLDcuMDgtMS4wNywxMC4zNS0yLjUzYzIuMTktMS4wOSwzLjQ2LTIuNDIsMy40Ni0zLjgzICAgICAgVjQwLjc5TDMxLjc5LDQwLjgyeiIvPiYjeGE7CQkJPC9nPiYjeGE7CQkJPGcgaWQ9InNoYXBlNzg5Mi0zMyIgdHJhbnNmb3JtPSJ0cmFuc2xhdGUoMjEuMTUsLTAuMTg3NSkiPiYjeGE7CQkJCTx0aXRsZSBpZD0idGl0bGUxNDMzNjYiPnBhdGgzMTE4PC90aXRsZT4mI3hhOwkJCQk8cGF0aCBpZD0icGF0aDE0MzM2OCIgaW5rc2NhcGU6Y29ubmVjdG9yLWN1cnZhdHVyZT0iMCIgc3R5bGU9ImZpbGw6I0U1RTVFNTsiIGQ9Ik0xMC4zNSw0MS4wMXYzNy40NSAgICAgIEM3LjA4LDc5LjkyLDMuNTcsODAuNzcsMCw4MC45OVY0MS4xTDEwLjM1LDQxLjAxeiIvPiYjeGE7CQkJPC9nPiYjeGE7CQkJPGcgaWQ9InNoYXBlNzg5My0zNSI+JiN4YTsJCQkJPHRpdGxlIGlkPSJ0aXRsZTE0MzM3MSI+cGF0aDMxMjA8L3RpdGxlPiYjeGE7CQkJCTxwYXRoIGlkPSJwYXRoMTQzMzczIiBpbmtzY2FwZTpjb25uZWN0b3ItY3VydmF0dXJlPSIwIiBzdHlsZT0iZmlsbDpub25lOyIgZD0iTTAsNDEuMDl2MzMuMzVjMCwzLjQyLDcuNDYsNi4zNywxNy4yNSw2LjU1aDAuMzcgICAgICBjOS45Ny0wLjExLDE3LjYzLTMuMDksMTcuNjMtNi41NVY0MC43OUwwLDQxLjA5eiIvPiYjeGE7CQkJCSYjeGE7CQkJCQk8cGF0aCBpZD0icGF0aDE0MzM3NSIgaW5rc2NhcGU6Y29ubmVjdG9yLWN1cnZhdHVyZT0iMCIgc3R5bGU9ImZpbGw6bm9uZTtzdHJva2U6IzU1NkE4QTtzdHJva2Utd2lkdGg6MS41O3N0cm9rZS1taXRlcmxpbWl0OjM7IiBkPSIgICAgICBNMCw0MS4wOXYzMy4zNWMwLDMuNDIsNy40Niw2LjM3LDE3LjI1LDYuNTVoMC4zN2M5Ljk3LTAuMTEsMTcuNjMtMy4wOSwxNy42My02LjU1VjQwLjc5Ii8+JiN4YTsJCQk8L2c+JiN4YTsJCQk8ZyBpZD0ic2hhcGU3ODk0LTM4IiB0cmFuc2Zvcm09InRyYW5zbGF0ZSgwLjA0NSwtMzMuNDQyNSkiPiYjeGE7CQkJCTx0aXRsZSBpZD0idGl0bGUxNDMzNzgiPnBhdGgzMTIyPC90aXRsZT4mI3hhOwkJCQkmI3hhOwkJCQkJPHBhdGggaWQ9InBhdGgxNDMzODAiIGlua3NjYXBlOmNvbm5lY3Rvci1jdXJ2YXR1cmU9IjAiIHN0eWxlPSJmaWxsOiNCQUQ4MEE7c3Ryb2tlOiM1NTZBOEE7c3Ryb2tlLXdpZHRoOjEuNTtzdHJva2UtbWl0ZXJsaW1pdDozOyIgZD0iICAgICAgTTM1LjI1LDc0LjYyYzAsMy41Mi03Ljg5LDYuMzctMTcuNjMsNi4zN0M3Ljg5LDgwLjk5LDAsNzguMTQsMCw3NC42MmMwLTMuNTEsOC4xMy02LjM2LDE3Ljg2LTYuMzYgICAgICBDMjcuNTgsNjguMjYsMzUuMjUsNzEuMTEsMzUuMjUsNzQuNjJ6Ii8+JiN4YTsJCQk8L2c+JiN4YTsJCTwvZz4mI3hhOwk8L2c+JiN4YTs8L2c+JiN4YTs8L3N2Zz4=;" vertex="1" parent="1">
          <mxGeometry x="1290" y="860" width="63" height="79" as="geometry" />
        </mxCell>
        <mxCell id="enrhANVjS56f6MEKnJ0g-39" value="&lt;br&gt;业务服务器*2&lt;br&gt;配置16G/32C/300G硬盘" style="text;strokeColor=default;align=center;fillColor=none;html=1;verticalAlign=middle;whiteSpace=wrap;rounded=0;" vertex="1" parent="1">
          <mxGeometry x="970" y="930" width="140" height="60" as="geometry" />
        </mxCell>
        <mxCell id="enrhANVjS56f6MEKnJ0g-40" value="&lt;br&gt;中间件服务器*3&lt;br&gt;配置16G/32C/300G硬盘" style="text;strokeColor=default;align=center;fillColor=none;html=1;verticalAlign=middle;whiteSpace=wrap;rounded=0;" vertex="1" parent="1">
          <mxGeometry x="1390" y="920" width="140" height="60" as="geometry" />
        </mxCell>
        <mxCell id="enrhANVjS56f6MEKnJ0g-41" value="管理节点务器*3&lt;br&gt;配置8G/4C/300G硬盘" style="text;strokeColor=default;align=center;fillColor=none;html=1;verticalAlign=middle;whiteSpace=wrap;rounded=0;" vertex="1" parent="1">
          <mxGeometry x="1390" y="1130" width="140" height="60" as="geometry" />
        </mxCell>
        <mxCell id="enrhANVjS56f6MEKnJ0g-42" value="智能投资助理业务组件" style="text;strokeColor=none;align=center;fillColor=none;html=1;verticalAlign=middle;whiteSpace=wrap;rounded=0;fontSize=18;" vertex="1" parent="1">
          <mxGeometry x="690" y="560" width="240" height="30" as="geometry" />
        </mxCell>
        <mxCell id="enrhANVjS56f6MEKnJ0g-43" value="智能投资助理中间件" style="text;strokeColor=none;align=center;fillColor=none;html=1;verticalAlign=middle;whiteSpace=wrap;rounded=0;fontSize=18;" vertex="1" parent="1">
          <mxGeometry x="1133" y="414" width="220" height="30" as="geometry" />
        </mxCell>
        <mxCell id="enrhANVjS56f6MEKnJ0g-44" value="同花顺云服务" style="editableCssRules=.*;html=1;shape=image;verticalLabelPosition=bottom;labelBackgroundColor=#ffffff;verticalAlign=top;aspect=fixed;imageAspect=0;image=data:image/svg+xml,PHN2ZyB4bWxucz0iaHR0cDovL3d3dy53My5vcmcvMjAwMC9zdmciIHhtbG5zOnY9Imh0dHBzOi8vdmVjdGEuaW8vbmFubyIgd2lkdGg9IjQyNCIgaGVpZ2h0PSI0MjQiIHZpZXdCb3g9IjAgMCA0MjQgNDI0Ij4mI3hhOwk8c3R5bGUgdHlwZT0idGV4dC9jc3MiPiYjeGE7CS5zdDB7ZmlsbDojNDI4NWY0O30mI3hhOwk8L3N0eWxlPiYjeGE7CTxwYXRoIGNsYXNzPSJzdDAiIGQ9Ik00MjQgMHY0MjRIMFYwek0yMTIgOTcuODQ2Yy0zNy44ODQgMC03MC4xNjQgMjMuOTktODIuNDc4IDU3LjYwOGgwbC0zLjQwMy4wMDFjLTQyLjYzNCAwLTc3LjE5NiAzNC41NjItNzcuMTk2IDc3LjE5NnMzNC41NjIgNzcuMTk2IDc3LjE5NiA3Ny4xOTZoMCAxNzEuNzYzYzQyLjYzNCAwIDc3LjE5Ni0zNC41NjIgNzcuMTk2LTc3LjE5NnMtMzQuNTYyLTc3LjE5Ni03Ny4xOTYtNzcuMTk2aDBsLTMuNDAzLS4wMDFDMjgyLjE2NCAxMjEuODM3IDI0OS44ODQgOTcuODQ2IDIxMiA5Ny44NDZ6IiBmaWxsLXJ1bGU9ImV2ZW5vZGQiLz4mI3hhOzwvc3ZnPg==;" vertex="1" parent="1">
          <mxGeometry x="890" y="430" width="60" height="60" as="geometry" />
        </mxCell>
        <mxCell id="enrhANVjS56f6MEKnJ0g-45" value="客户端" style="text;strokeColor=none;align=center;fillColor=none;html=1;verticalAlign=middle;whiteSpace=wrap;rounded=0;fontSize=18;" vertex="1" parent="1">
          <mxGeometry x="297.5" y="414" width="220" height="30" as="geometry" />
        </mxCell>
        <mxCell id="enrhANVjS56f6MEKnJ0g-46" value="接入层" style="text;strokeColor=none;align=center;fillColor=none;html=1;verticalAlign=middle;whiteSpace=wrap;rounded=0;fontSize=18;" vertex="1" parent="1">
          <mxGeometry x="490" y="414" width="220" height="30" as="geometry" />
        </mxCell>
        <mxCell id="enrhANVjS56f6MEKnJ0g-47" value="" style="shape=table;startSize=0;container=1;collapsible=0;childLayout=tableLayout;" vertex="1" parent="1">
          <mxGeometry x="1570" y="420" width="530" height="210" as="geometry" />
        </mxCell>
        <mxCell id="enrhANVjS56f6MEKnJ0g-48" value="" style="shape=tableRow;horizontal=0;startSize=0;swimlaneHead=0;swimlaneBody=0;strokeColor=inherit;top=0;left=0;bottom=0;right=0;collapsible=0;dropTarget=0;fillColor=none;points=[[0,0.5],[1,0.5]];portConstraint=eastwest;" vertex="1" parent="enrhANVjS56f6MEKnJ0g-47">
          <mxGeometry width="530" height="30" as="geometry" />
        </mxCell>
        <mxCell id="enrhANVjS56f6MEKnJ0g-49" value="域名" style="shape=partialRectangle;html=1;whiteSpace=wrap;connectable=0;strokeColor=inherit;overflow=hidden;fillColor=none;top=0;left=0;bottom=0;right=0;pointerEvents=1;" vertex="1" parent="enrhANVjS56f6MEKnJ0g-48">
          <mxGeometry width="177" height="30" as="geometry">
            <mxRectangle width="177" height="30" as="alternateBounds" />
          </mxGeometry>
        </mxCell>
        <mxCell id="enrhANVjS56f6MEKnJ0g-50" value="端口" style="shape=partialRectangle;html=1;whiteSpace=wrap;connectable=0;strokeColor=inherit;overflow=hidden;fillColor=none;top=0;left=0;bottom=0;right=0;pointerEvents=1;" vertex="1" parent="enrhANVjS56f6MEKnJ0g-48">
          <mxGeometry x="177" width="176" height="30" as="geometry">
            <mxRectangle width="176" height="30" as="alternateBounds" />
          </mxGeometry>
        </mxCell>
        <mxCell id="enrhANVjS56f6MEKnJ0g-51" value="说明" style="shape=partialRectangle;html=1;whiteSpace=wrap;connectable=0;strokeColor=inherit;overflow=hidden;fillColor=none;top=0;left=0;bottom=0;right=0;pointerEvents=1;" vertex="1" parent="enrhANVjS56f6MEKnJ0g-48">
          <mxGeometry x="353" width="177" height="30" as="geometry">
            <mxRectangle width="177" height="30" as="alternateBounds" />
          </mxGeometry>
        </mxCell>
        <mxCell id="enrhANVjS56f6MEKnJ0g-52" value="" style="shape=tableRow;horizontal=0;startSize=0;swimlaneHead=0;swimlaneBody=0;strokeColor=inherit;top=0;left=0;bottom=0;right=0;collapsible=0;dropTarget=0;fillColor=none;points=[[0,0.5],[1,0.5]];portConstraint=eastwest;" vertex="1" parent="enrhANVjS56f6MEKnJ0g-47">
          <mxGeometry y="30" width="530" height="30" as="geometry" />
        </mxCell>
        <mxCell id="enrhANVjS56f6MEKnJ0g-53" value="ai-stable-new.iwencai.com" style="shape=partialRectangle;html=1;whiteSpace=wrap;connectable=0;strokeColor=inherit;overflow=hidden;fillColor=none;top=0;left=0;bottom=0;right=0;pointerEvents=1;" vertex="1" parent="enrhANVjS56f6MEKnJ0g-52">
          <mxGeometry width="177" height="30" as="geometry">
            <mxRectangle width="177" height="30" as="alternateBounds" />
          </mxGeometry>
        </mxCell>
        <mxCell id="enrhANVjS56f6MEKnJ0g-54" value="443" style="shape=partialRectangle;html=1;whiteSpace=wrap;connectable=0;strokeColor=inherit;overflow=hidden;fillColor=none;top=0;left=0;bottom=0;right=0;pointerEvents=1;" vertex="1" parent="enrhANVjS56f6MEKnJ0g-52">
          <mxGeometry x="177" width="176" height="30" as="geometry">
            <mxRectangle width="176" height="30" as="alternateBounds" />
          </mxGeometry>
        </mxCell>
        <mxCell id="enrhANVjS56f6MEKnJ0g-55" value="同花顺云总控" style="shape=partialRectangle;html=1;whiteSpace=wrap;connectable=0;strokeColor=inherit;overflow=hidden;fillColor=none;top=0;left=0;bottom=0;right=0;pointerEvents=1;" vertex="1" parent="enrhANVjS56f6MEKnJ0g-52">
          <mxGeometry x="353" width="177" height="30" as="geometry">
            <mxRectangle width="177" height="30" as="alternateBounds" />
          </mxGeometry>
        </mxCell>
        <mxCell id="enrhANVjS56f6MEKnJ0g-56" value="" style="shape=tableRow;horizontal=0;startSize=0;swimlaneHead=0;swimlaneBody=0;strokeColor=inherit;top=0;left=0;bottom=0;right=0;collapsible=0;dropTarget=0;fillColor=none;points=[[0,0.5],[1,0.5]];portConstraint=eastwest;" vertex="1" parent="enrhANVjS56f6MEKnJ0g-47">
          <mxGeometry y="60" width="530" height="29" as="geometry" />
        </mxCell>
        <mxCell id="enrhANVjS56f6MEKnJ0g-57" value="wservice.iwencai.com" style="shape=partialRectangle;html=1;whiteSpace=wrap;connectable=0;strokeColor=inherit;overflow=hidden;fillColor=none;top=0;left=0;bottom=0;right=0;pointerEvents=1;" vertex="1" parent="enrhANVjS56f6MEKnJ0g-56">
          <mxGeometry width="177" height="29" as="geometry">
            <mxRectangle width="177" height="29" as="alternateBounds" />
          </mxGeometry>
        </mxCell>
        <mxCell id="enrhANVjS56f6MEKnJ0g-58" value="443" style="shape=partialRectangle;html=1;whiteSpace=wrap;connectable=0;strokeColor=inherit;overflow=hidden;fillColor=none;top=0;left=0;bottom=0;right=0;pointerEvents=1;" vertex="1" parent="enrhANVjS56f6MEKnJ0g-56">
          <mxGeometry x="177" width="176" height="29" as="geometry">
            <mxRectangle width="176" height="29" as="alternateBounds" />
          </mxGeometry>
        </mxCell>
        <mxCell id="enrhANVjS56f6MEKnJ0g-59" value="咨询结果页" style="shape=partialRectangle;html=1;whiteSpace=wrap;connectable=0;strokeColor=inherit;overflow=hidden;fillColor=none;top=0;left=0;bottom=0;right=0;pointerEvents=1;" vertex="1" parent="enrhANVjS56f6MEKnJ0g-56">
          <mxGeometry x="353" width="177" height="29" as="geometry">
            <mxRectangle width="177" height="29" as="alternateBounds" />
          </mxGeometry>
        </mxCell>
        <mxCell id="enrhANVjS56f6MEKnJ0g-60" value="" style="shape=tableRow;horizontal=0;startSize=0;swimlaneHead=0;swimlaneBody=0;strokeColor=inherit;top=0;left=0;bottom=0;right=0;collapsible=0;dropTarget=0;fillColor=none;points=[[0,0.5],[1,0.5]];portConstraint=eastwest;" vertex="1" parent="enrhANVjS56f6MEKnJ0g-47">
          <mxGeometry y="89" width="530" height="32" as="geometry" />
        </mxCell>
        <mxCell id="enrhANVjS56f6MEKnJ0g-61" value="www.10jqka.com.cn" style="shape=partialRectangle;html=1;whiteSpace=wrap;connectable=0;strokeColor=inherit;overflow=hidden;fillColor=none;top=0;left=0;bottom=0;right=0;pointerEvents=1;" vertex="1" parent="enrhANVjS56f6MEKnJ0g-60">
          <mxGeometry width="177" height="32" as="geometry">
            <mxRectangle width="177" height="32" as="alternateBounds" />
          </mxGeometry>
        </mxCell>
        <mxCell id="enrhANVjS56f6MEKnJ0g-62" value="80" style="shape=partialRectangle;html=1;whiteSpace=wrap;connectable=0;strokeColor=inherit;overflow=hidden;fillColor=none;top=0;left=0;bottom=0;right=0;pointerEvents=1;" vertex="1" parent="enrhANVjS56f6MEKnJ0g-60">
          <mxGeometry x="177" width="176" height="32" as="geometry">
            <mxRectangle width="176" height="32" as="alternateBounds" />
          </mxGeometry>
        </mxCell>
        <mxCell id="enrhANVjS56f6MEKnJ0g-63" value="交易日历" style="shape=partialRectangle;html=1;whiteSpace=wrap;connectable=0;strokeColor=inherit;overflow=hidden;fillColor=none;top=0;left=0;bottom=0;right=0;pointerEvents=1;" vertex="1" parent="enrhANVjS56f6MEKnJ0g-60">
          <mxGeometry x="353" width="177" height="32" as="geometry">
            <mxRectangle width="177" height="32" as="alternateBounds" />
          </mxGeometry>
        </mxCell>
        <mxCell id="enrhANVjS56f6MEKnJ0g-64" value="" style="shape=tableRow;horizontal=0;startSize=0;swimlaneHead=0;swimlaneBody=0;strokeColor=inherit;top=0;left=0;bottom=0;right=0;collapsible=0;dropTarget=0;fillColor=none;points=[[0,0.5],[1,0.5]];portConstraint=eastwest;" vertex="1" parent="enrhANVjS56f6MEKnJ0g-47">
          <mxGeometry y="121" width="530" height="29" as="geometry" />
        </mxCell>
        <mxCell id="enrhANVjS56f6MEKnJ0g-65" value="ai.iwencai.com" style="shape=partialRectangle;html=1;whiteSpace=wrap;connectable=0;strokeColor=inherit;overflow=hidden;fillColor=none;top=0;left=0;bottom=0;right=0;pointerEvents=1;" vertex="1" parent="enrhANVjS56f6MEKnJ0g-64">
          <mxGeometry width="177" height="29" as="geometry">
            <mxRectangle width="177" height="29" as="alternateBounds" />
          </mxGeometry>
        </mxCell>
        <mxCell id="enrhANVjS56f6MEKnJ0g-66" value="443" style="shape=partialRectangle;html=1;whiteSpace=wrap;connectable=0;strokeColor=inherit;overflow=hidden;fillColor=none;top=0;left=0;bottom=0;right=0;pointerEvents=1;" vertex="1" parent="enrhANVjS56f6MEKnJ0g-64">
          <mxGeometry x="177" width="176" height="29" as="geometry">
            <mxRectangle width="176" height="29" as="alternateBounds" />
          </mxGeometry>
        </mxCell>
        <mxCell id="enrhANVjS56f6MEKnJ0g-67" value="其他结果页" style="shape=partialRectangle;html=1;whiteSpace=wrap;connectable=0;strokeColor=inherit;overflow=hidden;fillColor=none;top=0;left=0;bottom=0;right=0;pointerEvents=1;" vertex="1" parent="enrhANVjS56f6MEKnJ0g-64">
          <mxGeometry x="353" width="177" height="29" as="geometry">
            <mxRectangle width="177" height="29" as="alternateBounds" />
          </mxGeometry>
        </mxCell>
        <mxCell id="enrhANVjS56f6MEKnJ0g-68" value="" style="shape=tableRow;horizontal=0;startSize=0;swimlaneHead=0;swimlaneBody=0;strokeColor=inherit;top=0;left=0;bottom=0;right=0;collapsible=0;dropTarget=0;fillColor=none;points=[[0,0.5],[1,0.5]];portConstraint=eastwest;" vertex="1" parent="enrhANVjS56f6MEKnJ0g-47">
          <mxGeometry y="150" width="530" height="31" as="geometry" />
        </mxCell>
        <mxCell id="enrhANVjS56f6MEKnJ0g-69" value="b2b-api.10jqka.com.cn" style="shape=partialRectangle;html=1;whiteSpace=wrap;connectable=0;strokeColor=inherit;overflow=hidden;fillColor=none;top=0;left=0;bottom=0;right=0;pointerEvents=1;" vertex="1" parent="enrhANVjS56f6MEKnJ0g-68">
          <mxGeometry width="177" height="31" as="geometry">
            <mxRectangle width="177" height="31" as="alternateBounds" />
          </mxGeometry>
        </mxCell>
        <mxCell id="enrhANVjS56f6MEKnJ0g-70" value="443" style="shape=partialRectangle;html=1;whiteSpace=wrap;connectable=0;strokeColor=inherit;overflow=hidden;fillColor=none;top=0;left=0;bottom=0;right=0;pointerEvents=1;" vertex="1" parent="enrhANVjS56f6MEKnJ0g-68">
          <mxGeometry x="177" width="176" height="31" as="geometry">
            <mxRectangle width="176" height="31" as="alternateBounds" />
          </mxGeometry>
        </mxCell>
        <mxCell id="enrhANVjS56f6MEKnJ0g-71" value="问句联想" style="shape=partialRectangle;html=1;whiteSpace=wrap;connectable=0;strokeColor=inherit;overflow=hidden;fillColor=none;top=0;left=0;bottom=0;right=0;pointerEvents=1;" vertex="1" parent="enrhANVjS56f6MEKnJ0g-68">
          <mxGeometry x="353" width="177" height="31" as="geometry">
            <mxRectangle width="177" height="31" as="alternateBounds" />
          </mxGeometry>
        </mxCell>
        <mxCell id="enrhANVjS56f6MEKnJ0g-72" value="" style="shape=tableRow;horizontal=0;startSize=0;swimlaneHead=0;swimlaneBody=0;strokeColor=inherit;top=0;left=0;bottom=0;right=0;collapsible=0;dropTarget=0;fillColor=none;points=[[0,0.5],[1,0.5]];portConstraint=eastwest;" vertex="1" parent="enrhANVjS56f6MEKnJ0g-47">
          <mxGeometry y="181" width="530" height="29" as="geometry" />
        </mxCell>
        <mxCell id="enrhANVjS56f6MEKnJ0g-73" value="ths8.iwencai.com" style="shape=partialRectangle;html=1;whiteSpace=wrap;connectable=0;strokeColor=inherit;overflow=hidden;fillColor=none;top=0;left=0;bottom=0;right=0;pointerEvents=1;" vertex="1" parent="enrhANVjS56f6MEKnJ0g-72">
          <mxGeometry width="177" height="29" as="geometry">
            <mxRectangle width="177" height="29" as="alternateBounds" />
          </mxGeometry>
        </mxCell>
        <mxCell id="enrhANVjS56f6MEKnJ0g-74" value="443" style="shape=partialRectangle;html=1;whiteSpace=wrap;connectable=0;strokeColor=inherit;overflow=hidden;fillColor=none;top=0;left=0;bottom=0;right=0;pointerEvents=1;" vertex="1" parent="enrhANVjS56f6MEKnJ0g-72">
          <mxGeometry x="177" width="176" height="29" as="geometry">
            <mxRectangle width="176" height="29" as="alternateBounds" />
          </mxGeometry>
        </mxCell>
        <mxCell id="enrhANVjS56f6MEKnJ0g-75" value="新版诊选股二级页" style="shape=partialRectangle;html=1;whiteSpace=wrap;connectable=0;strokeColor=inherit;overflow=hidden;fillColor=none;top=0;left=0;bottom=0;right=0;pointerEvents=1;" vertex="1" parent="enrhANVjS56f6MEKnJ0g-72">
          <mxGeometry x="353" width="177" height="29" as="geometry">
            <mxRectangle width="177" height="29" as="alternateBounds" />
          </mxGeometry>
        </mxCell>
      </root>
    </mxGraphModel>
  </diagram>
</mxfile>
